ISO-10303-21;
HEADER;
FILE_DESCRIPTION (( 'STEP AP203' ),
    '1' );
FILE_NAME ('定位销.STEP',
    '2025-03-10T00:20:03',
    ( 'Users' ),
    ( 'Microsoft' ),
    'SwSTEP 2.0',
    'SolidWorks 2016',
    '' );
FILE_SCHEMA (( 'CONFIG_CONTROL_DESIGN' ));
ENDSEC;

DATA;
#1 = CARTESIAN_POINT ( 'NONE',  ( 51.77957208694898100, -10.57111523806921500, 2.583092198071547800 ) ) ;
#2 = CIRCLE ( 'NONE', #380, 1.000000000000000000 ) ;
#3 = DIRECTION ( 'NONE',  ( 0.0000000000000000000, 0.0000000000000000000, -1.000000000000000000 ) ) ;
#4 = ORIENTED_EDGE ( 'NONE', *, *, #234, .T. ) ;
#5 = CARTESIAN_POINT ( 'NONE',  ( 51.64258044501952600, -10.35578703764012700, -3.313578053992690900 ) ) ;
#6 = ORIENTED_EDGE ( 'NONE', *, *, #418, .F. ) ;
#7 = LINE ( 'NONE', #347, #94 ) ;
#8 = CARTESIAN_POINT ( 'NONE',  ( 0.0000000000000000000, 8.572527594031474200E-016, -7.000000000000000900 ) ) ;
#9 = CARTESIAN_POINT ( 'NONE',  ( 50.13427462818809500, -9.499999999999996400, -5.282698174228772600 ) ) ;
#10 = AXIS2_PLACEMENT_3D ( 'NONE', #812, #830, #685 ) ;
#11 = CARTESIAN_POINT ( 'NONE',  ( 88.92255533507794500, 0.0000000000000000000, 0.0000000000000000000 ) ) ;
#12 = CARTESIAN_POINT ( 'NONE',  ( 38.09566499370113500, -9.500000000000001800, -4.852305730068371400 ) ) ;
#13 = EDGE_CURVE ( 'NONE', #435, #935, #198, .T. ) ;
#14 = CARTESIAN_POINT ( 'NONE',  ( 38.00000000000000000, 0.0000000000000000000, -10.56999999999995400 ) ) ;
#15 = SPHERICAL_SURFACE ( 'NONE', #422, 5.330000000000004500 ) ;
#16 = DIRECTION ( 'NONE',  ( 1.000000000000000000, 0.0000000000000000000, 0.0000000000000000000 ) ) ;
#17 = ORIENTED_EDGE ( 'NONE', *, *, #880, .F. ) ;
#18 = CARTESIAN_POINT ( 'NONE',  ( 77.24692906653473300, 1.258331254041942100E-015, -10.27505444768272400 ) ) ;
#19 = CARTESIAN_POINT ( 'NONE',  ( 38.00000000000000000, 0.0000000000000000000, 0.0000000000000000000 ) ) ;
#20 = ORIENTED_EDGE ( 'NONE', *, *, #584, .T. ) ;
#21 = CIRCLE ( 'NONE', #727, 7.000000000000000900 ) ;
#22 = ORIENTED_EDGE ( 'NONE', *, *, #894, .F. ) ;
#23 = EDGE_CURVE ( 'NONE', #873, #899, #285, .T. ) ;
#24 = CALENDAR_DATE ( 2025, 10, 3 ) ;
#25 = DIRECTION ( 'NONE',  ( 0.0000000000000000000, -1.000000000000000000, 0.0000000000000000000 ) ) ;
#26 = CARTESIAN_POINT ( 'NONE',  ( 0.0000000000000000000, 0.0000000000000000000, 0.0000000000000000000 ) ) ;
#27 = ADVANCED_FACE ( 'NONE', ( #732 ), #355, .T. ) ;
#28 = DIRECTION ( 'NONE',  ( 0.0000000000000000000, 0.0000000000000000000, 1.000000000000000000 ) ) ;
#29 = CARTESIAN_POINT ( 'NONE',  ( 0.0000000000000000000, 0.0000000000000000000, 0.0000000000000000000 ) ) ;
#30 = DIRECTION ( 'NONE',  ( 0.0000000000000000000, 0.0000000000000000000, 1.000000000000000000 ) ) ;
#31 = B_SPLINE_CURVE_WITH_KNOTS ( 'NONE', 3,
 ( #541, #12, #709, #405 ),
 .UNSPECIFIED., .F., .F.,
 ( 4, 4 ),
 ( 0.0000000000000000000, 0.0007146168103740600100 ),
 .UNSPECIFIED. ) ;
#32 = COORDINATED_UNIVERSAL_TIME_OFFSET ( 8, 0, .AHEAD. ) ;
#33 = CARTESIAN_POINT ( 'NONE',  ( 51.88711426188128000, 10.83277025185725700, -1.038398121252628300 ) ) ;
#34 = FACE_OUTER_BOUND ( 'NONE', #889, .T. ) ;
#35 = ORIENTED_EDGE ( 'NONE', *, *, #418, .T. ) ;
#36 = EDGE_LOOP ( 'NONE', ( #474, #661, #97, #597, #294 ) ) ;
#37 = EDGE_CURVE ( 'NONE', #867, #947, #531, .T. ) ;
#38 = CARTESIAN_POINT ( 'NONE',  ( 51.64071245461601500, 10.35305249916715000, -3.322226605690551200 ) ) ;
#39 = ORIENTED_EDGE ( 'NONE', *, *, #581, .T. ) ;
#40 = CARTESIAN_POINT ( 'NONE',  ( 38.00000000000000000, 9.499999999999998200, -4.634101854728603700 ) ) ;
#41 = CIRCLE ( 'NONE', #161, 10.56999999999995400 ) ;
#42 = CARTESIAN_POINT ( 'NONE',  ( 38.00000000000000000, -9.500000000000001800, -4.634101854728594800 ) ) ;
#43 = ADVANCED_FACE ( 'NONE', ( #372 ), #694, .T. ) ;
#44 = DIRECTION ( 'NONE',  ( 0.0000000000000000000, 0.0000000000000000000, 1.000000000000000000 ) ) ;
#45 = CARTESIAN_POINT ( 'NONE',  ( 51.33391727309230400, 10.00156709458710900, -4.263647846134033700 ) ) ;
#46 = DIRECTION ( 'NONE',  ( 0.0000000000000000000, 0.0000000000000000000, 1.000000000000000000 ) ) ;
#47 = FACE_OUTER_BOUND ( 'NONE', #901, .T. ) ;
#48 = TOROIDAL_SURFACE ( 'NONE', #656, 4.519999999999999600, 6.349999999999999600 ) ;
#49 = VERTEX_POINT ( 'NONE', #854 ) ;
#50 = EDGE_CURVE ( 'NONE', #935, #823, #714, .T. ) ;
#51 = CC_DESIGN_PERSON_AND_ORGANIZATION_ASSIGNMENT ( #617, #793, ( #850 ) ) ;
#52 = ORIENTED_EDGE ( 'NONE', *, *, #940, .T. ) ;
#53 = PERSON_AND_ORGANIZATION ( #760, #376 ) ;
#54 = ORIENTED_EDGE ( 'NONE', *, *, #872, .T. ) ;
#55 = CARTESIAN_POINT ( 'NONE',  ( 51.42958965224206500, 10.09647241719816300, -4.035017589515404300 ) ) ;
#56 = CALENDAR_DATE ( 2025, 10, 3 ) ;
#57 = CARTESIAN_POINT ( 'NONE',  ( 51.33701122654595400, 10.00414221976480000, 4.257769994838856300 ) ) ;
#58 = AXIS2_PLACEMENT_3D ( 'NONE', #337, #828, #898 ) ;
#59 = DIRECTION ( 'NONE',  ( 0.0000000000000000000, 0.0000000000000000000, -1.000000000000000000 ) ) ;
#60 = CIRCLE ( 'NONE', #469, 5.250000000000000000 ) ;
#61 = EDGE_LOOP ( 'NONE', ( #495, #162 ) ) ;
#62 = CIRCLE ( 'NONE', #618, 5.250000000000000000 ) ;
#63 = DIRECTION ( 'NONE',  ( 0.0000000000000000000, 8.480678358307785000E-017, 1.000000000000000000 ) ) ;
#64 = ORIENTED_EDGE ( 'NONE', *, *, #130, .F. ) ;
#65 = ORIENTED_EDGE ( 'NONE', *, *, #249, .T. ) ;
#66 = CYLINDRICAL_SURFACE ( 'NONE', #123, 5.250000000000000000 ) ;
#67 = CARTESIAN_POINT ( 'NONE',  ( 38.00000000000000000, 0.0000000000000000000, 0.0000000000000000000 ) ) ;
#68 = CIRCLE ( 'NONE', #282, 7.000000000000000000 ) ;
#69 = CARTESIAN_POINT ( 'NONE',  ( 50.51006515117698100, -9.562082853882907700, 5.169722135034513500 ) ) ;
#70 = DIRECTION ( 'NONE',  ( 0.0000000000000000000, 0.0000000000000000000, 1.000000000000000000 ) ) ;
#71 = DIRECTION ( 'NONE',  ( -1.000000000000000000, -0.0000000000000000000, -0.0000000000000000000 ) ) ;
#72 = TOROIDAL_SURFACE ( 'NONE', #788, 6.250000000000000000, 1.000000000000000000 ) ;
#73 = ORIENTED_EDGE ( 'NONE', *, *, #607, .F. ) ;
#74 = EDGE_CURVE ( 'NONE', #214, #751, #389, .T. ) ;
#75 = CARTESIAN_POINT ( 'NONE',  ( 38.30000000000003300, -9.500000000000000000, -5.282698174228770900 ) ) ;
#76 = EDGE_CURVE ( 'NONE', #745, #236, #885, .T. ) ;
#77 = DIRECTION ( 'NONE',  ( 0.0000000000000000000, 0.0000000000000000000, -1.000000000000000000 ) ) ;
#78 = CARTESIAN_POINT ( 'NONE',  ( 88.92255533507794500, 0.0000000000000000000, 0.0000000000000000000 ) ) ;
#79 = DIRECTION ( 'NONE',  ( 0.0000000000000000000, 0.0000000000000000000, 1.000000000000000000 ) ) ;
#80 = FACE_OUTER_BOUND ( 'NONE', #697, .T. ) ;
#81 = DIRECTION ( 'NONE',  ( -1.000000000000000000, -0.0000000000000000000, -0.0000000000000000000 ) ) ;
#82 = ORIENTED_EDGE ( 'NONE', *, *, #880, .T. ) ;
#83 = EDGE_LOOP ( 'NONE', ( #52, #295, #174, #773 ) ) ;
#84 = DIRECTION ( 'NONE',  ( 0.0000000000000000000, -1.000000000000000000, 0.0000000000000000000 ) ) ;
#85 = EDGE_LOOP ( 'NONE', ( #383, #188, #203, #262 ) ) ;
#86 = DIRECTION ( 'NONE',  ( 0.0000000000000000000, 0.0000000000000000000, 1.000000000000000000 ) ) ;
#87 = EDGE_CURVE ( 'NONE', #93, #258, #913, .T. ) ;
#88 = COORDINATED_UNIVERSAL_TIME_OFFSET ( 8, 0, .AHEAD. ) ;
#89 = CARTESIAN_POINT ( 'NONE',  ( 51.43268506805894400, -10.09965011104866800, -4.027092577390411600 ) ) ;
#90 = DIRECTION ( 'NONE',  ( 0.0000000000000000000, -8.480678358307785000E-017, -1.000000000000000000 ) ) ;
#91 = CARTESIAN_POINT ( 'NONE',  ( 51.77957208694899500, 10.57111523806921100, -2.583092198071548200 ) ) ;
#92 = CIRCLE ( 'NONE', #691, 4.830620504905348300 ) ;
#93 = VERTEX_POINT ( 'NONE', #609 ) ;
#94 = VECTOR ( 'NONE', #269, 999.9999999999998900 ) ;
#95 = EDGE_CURVE ( 'NONE', #847, #627, #865, .T. ) ;
#96 = DIRECTION ( 'NONE',  ( 1.000000000000000000, 0.0000000000000000000, 0.0000000000000000000 ) ) ;
#97 = ORIENTED_EDGE ( 'NONE', *, *, #719, .T. ) ;
#98 = VECTOR ( 'NONE', #219, 1000.000000000000000 ) ;
#99 = CARTESIAN_POINT ( 'NONE',  ( 88.92255533507794500, 0.0000000000000000000, 0.0000000000000000000 ) ) ;
#100 = DIRECTION ( 'NONE',  ( 0.0000000000000000000, 0.0000000000000000000, -1.000000000000000000 ) ) ;
#101 = CC_DESIGN_PERSON_AND_ORGANIZATION_ASSIGNMENT ( #672, #539, ( #850 ) ) ;
#102 = CARTESIAN_POINT ( 'NONE',  ( 49.99999999999999300, -9.500000000000000000, 5.282698174228772600 ) ) ;
#103 = DIRECTION ( 'NONE',  ( 0.0000000000000000000, -1.272101753746167500E-016, -1.000000000000000000 ) ) ;
#104 = AXIS2_PLACEMENT_3D ( 'NONE', #927, #499, #59 ) ;
#105 = ORIENTED_EDGE ( 'NONE', *, *, #23, .T. ) ;
#106 = DIRECTION ( 'NONE',  ( 0.0000000000000000000, 0.0000000000000000000, -1.000000000000000000 ) ) ;
#107 = ORIENTED_EDGE ( 'NONE', *, *, #688, .F. ) ;
#108 =( LENGTH_UNIT ( ) NAMED_UNIT ( * ) SI_UNIT ( .MILLI., .METRE. ) );
#109 = ORIENTED_EDGE ( 'NONE', *, *, #463, .T. ) ;
#110 = B_SPLINE_CURVE_WITH_KNOTS ( 'NONE', 3,
 ( #756, #564, #896, #40 ),
 .UNSPECIFIED., .F., .F.,
 ( 4, 4 ),
 ( 0.0000000000000000000, 0.0007146168103740572000 ),
 .UNSPECIFIED. ) ;
#111 = VECTOR ( 'NONE', #318, 1000.000000000000000 ) ;
#112 = ADVANCED_FACE ( 'NONE', ( #149 ), #353, .T. ) ;
#113 = FACE_OUTER_BOUND ( 'NONE', #366, .T. ) ;
#114 = AXIS2_PLACEMENT_3D ( 'NONE', #717, #937, #70 ) ;
#115 = CARTESIAN_POINT ( 'NONE',  ( 38.30000000000003300, 0.0000000000000000000, 10.86999999999999900 ) ) ;
#116 = CARTESIAN_POINT ( 'NONE',  ( 20.45710678118660300, 0.0000000000000000000, 5.542893218813441400 ) ) ;
#117 = ADVANCED_FACE ( 'NONE', ( #508 ), #739, .T. ) ;
#118 = CARTESIAN_POINT ( 'NONE',  ( 21.16421356237314200, 7.654042494670957600E-016, -6.250000000000000000 ) ) ;
#119 = CARTESIAN_POINT ( 'NONE',  ( 50.26429012668479100, 9.513586132600570600, -5.258434591737113800 ) ) ;
#120 = CARTESIAN_POINT ( 'NONE',  ( 19.00000000000000400, 0.0000000000000000000, 0.0000000000000000000 ) ) ;
#121 = FACE_OUTER_BOUND ( 'NONE', #809, .T. ) ;
#122 = TOROIDAL_SURFACE ( 'NONE', #638, 6.250000000000000000, 1.000000000000000000 ) ;
#123 = AXIS2_PLACEMENT_3D ( 'NONE', #848, #554, #905 ) ;
#124 = ADVANCED_FACE ( 'NONE', ( #883 ), #122, .F. ) ;
#125 = CARTESIAN_POINT ( 'NONE',  ( 21.16421356237314200, 0.0000000000000000000, 0.0000000000000000000 ) ) ;
#126 = VERTEX_POINT ( 'NONE', #346 ) ;
#127 = CONICAL_SURFACE ( 'NONE', #949, 5.500000000000017800, 0.7853981633974447300 ) ;
#128 = MANIFOLD_SOLID_BREP ( '倒角3', #274 ) ;
#129 = CARTESIAN_POINT ( 'NONE',  ( 51.08383194226696800, 9.811822051915147100, -4.683821658103847000 ) ) ;
#130 = EDGE_CURVE ( 'NONE', #435, #273, #324, .T. ) ;
#131 = CARTESIAN_POINT ( 'NONE',  ( 38.00000000000000000, 5.250000000000000000, 0.0000000000000000000 ) ) ;
#132 = EDGE_CURVE ( 'NONE', #137, #534, #256, .T. ) ;
#133 = CARTESIAN_POINT ( 'NONE',  ( 51.58555356616216200, 10.27542407154332300, 3.554724622587003900 ) ) ;
#134 = CIRCLE ( 'NONE', #559, 10.86999999999999900 ) ;
#135 = VERTEX_POINT ( 'NONE', #890 ) ;
#136 = CARTESIAN_POINT ( 'NONE',  ( 0.0000000000000000000, 0.0000000000000000000, -5.500000000000017800 ) ) ;
#137 = VERTEX_POINT ( 'NONE', #235 ) ;
#138 = VERTEX_POINT ( 'NONE', #476 ) ;
#139 = CARTESIAN_POINT ( 'NONE',  ( 50.50963347137357600, 9.561983907152507500, 5.169903976122928800 ) ) ;
#140 = CIRCLE ( 'NONE', #836, 10.56999999999995400 ) ;
#141 = VECTOR ( 'NONE', #338, 1000.000000000000000 ) ;
#142 = DIRECTION ( 'NONE',  ( 1.000000000000000000, 0.0000000000000000000, 0.0000000000000000000 ) ) ;
#143 = CALENDAR_DATE ( 2025, 10, 3 ) ;
#144 = DIRECTION ( 'NONE',  ( 0.0000000000000000000, 0.0000000000000000000, -1.000000000000000000 ) ) ;
#145 = EDGE_CURVE ( 'NONE', #847, #356, #832, .T. ) ;
#146 = DATE_AND_TIME ( #711, #846 ) ;
#147 = CARTESIAN_POINT ( 'NONE',  ( 49.99999999999999300, 9.499999999999998200, -5.282698174228776200 ) ) ;
#148 = FACE_BOUND ( 'NONE', #519, .T. ) ;
#149 = FACE_OUTER_BOUND ( 'NONE', #36, .T. ) ;
#150 = ORIENTED_EDGE ( 'NONE', *, *, #76, .F. ) ;
#151 = ORIENTED_EDGE ( 'NONE', *, *, #556, .F. ) ;
#152 = LINE ( 'NONE', #341, #177 ) ;
#153 = COORDINATED_UNIVERSAL_TIME_OFFSET ( 8, 0, .AHEAD. ) ;
#154 = AXIS2_PLACEMENT_3D ( 'NONE', #611, #16, #181 ) ;
#155 = CARTESIAN_POINT ( 'NONE',  ( 51.89524353121117900, 10.86090675506642900, 0.5153874047617607000 ) ) ;
#156 = SECURITY_CLASSIFICATION ( '', '', #526 ) ;
#157 = LINE ( 'NONE', #399, #681 ) ;
#158 = ORIENTED_EDGE ( 'NONE', *, *, #940, .F. ) ;
#159 = ORIENTED_EDGE ( 'NONE', *, *, #184, .T. ) ;
#160 = CARTESIAN_POINT ( 'NONE',  ( 51.88228468665342100, -10.82369195132135600, -1.035669958112087400 ) ) ;
#161 = AXIS2_PLACEMENT_3D ( 'NONE', #67, #576, #144 ) ;
#162 = ORIENTED_EDGE ( 'NONE', *, *, #180, .F. ) ;
#163 = LOCAL_TIME ( 8, 20, 3.000000000000000000, #153 ) ;
#164 = DIRECTION ( 'NONE',  ( 1.000000000000000000, 0.0000000000000000000, 0.0000000000000000000 ) ) ;
#165 = CIRCLE ( 'NONE', #496, 1.000000000000000000 ) ;
#166 = DIRECTION ( 'NONE',  ( -0.9063077870366497100, 5.175581015019662500E-017, -0.4226182617406997200 ) ) ;
#167 = AXIS2_PLACEMENT_3D ( 'NONE', #792, #377, #299 ) ;
#168 = DIRECTION ( 'NONE',  ( -1.000000000000000000, -0.0000000000000000000, -0.0000000000000000000 ) ) ;
#169 = COORDINATED_UNIVERSAL_TIME_OFFSET ( 8, 0, .AHEAD. ) ;
#170 = CARTESIAN_POINT ( 'NONE',  ( 0.0000000000000000000, 0.0000000000000000000, 0.0000000000000000000 ) ) ;
#171 = FACE_OUTER_BOUND ( 'NONE', #414, .T. ) ;
#172 = CARTESIAN_POINT ( 'NONE',  ( 51.14751703797368500, -9.860029870025034200, -4.577155523113866300 ) ) ;
#173 = VECTOR ( 'NONE', #284, 1000.000000000000100 ) ;
#174 = ORIENTED_EDGE ( 'NONE', *, *, #821, .T. ) ;
#175 = APPROVAL_STATUS ( 'not_yet_approved' ) ;
#176 = ORIENTED_EDGE ( 'NONE', *, *, #132, .F. ) ;
#177 = VECTOR ( 'NONE', #455, 1000.000000000000000 ) ;
#178 = AXIS2_PLACEMENT_3D ( 'NONE', #352, #416, #279 ) ;
#179 = CIRCLE ( 'NONE', #406, 4.830620504905348300 ) ;
#180 = EDGE_CURVE ( 'NONE', #247, #644, #754, .T. ) ;
#181 = DIRECTION ( 'NONE',  ( 0.0000000000000000000, 0.0000000000000000000, -1.000000000000000000 ) ) ;
#182 = DIRECTION ( 'NONE',  ( -1.000000000000000000, -0.0000000000000000000, -0.0000000000000000000 ) ) ;
#183 = DIRECTION ( 'NONE',  ( -1.000000000000000000, -0.0000000000000000000, -0.0000000000000000000 ) ) ;
#184 = EDGE_CURVE ( 'NONE', #327, #669, #381, .T. ) ;
#185 = DIRECTION ( 'NONE',  ( 1.000000000000000000, 0.0000000000000000000, 0.0000000000000000000 ) ) ;
#186 = CARTESIAN_POINT ( 'NONE',  ( 38.00000000000000000, 0.0000000000000000000, -10.56999999999995400 ) ) ;
#187 = CIRCLE ( 'NONE', #600, 6.250000000000000000 ) ;
#188 = ORIENTED_EDGE ( 'NONE', *, *, #199, .T. ) ;
#189 = EDGE_CURVE ( 'NONE', #745, #138, #934, .T. ) ;
#190 = ORIENTED_EDGE ( 'NONE', *, *, #13, .F. ) ;
#191 = DIRECTION ( 'NONE',  ( 1.000000000000000000, 0.0000000000000000000, 0.0000000000000000000 ) ) ;
#192 = VECTOR ( 'NONE', #753, 1000.000000000000000 ) ;
#193 = ADVANCED_FACE ( 'NONE', ( #430 ), #300, .F. ) ;
#194 = DIRECTION ( 'NONE',  ( -1.000000000000000000, -0.0000000000000000000, -0.0000000000000000000 ) ) ;
#195 = CARTESIAN_POINT ( 'NONE',  ( 74.56330310448127800, 0.0000000000000000000, 0.0000000000000000000 ) ) ;
#196 = ADVANCED_FACE ( 'NONE', ( #486 ), #242, .T. ) ;
#197 = CIRCLE ( 'NONE', #412, 7.000000000000000000 ) ;
#198 = LINE ( 'NONE', #660, #933 ) ;
#199 = EDGE_CURVE ( 'NONE', #947, #867, #254, .T. ) ;
#200 = CARTESIAN_POINT ( 'NONE',  ( 74.56330310448127800, 0.0000000000000000000, 10.86999999999999900 ) ) ;
#201 = CARTESIAN_POINT ( 'NONE',  ( 38.30000000000003300, -9.500000000000000000, 5.282698174228772600 ) ) ;
#202 = ORIENTED_EDGE ( 'NONE', *, *, #774, .F. ) ;
#203 = ORIENTED_EDGE ( 'NONE', *, *, #920, .T. ) ;
#204 = DIRECTION ( 'NONE',  ( 0.0000000000000000000, 0.0000000000000000000, -1.000000000000000000 ) ) ;
#205 = LINE ( 'NONE', #186, #945 ) ;
#206 = ADVANCED_FACE ( 'NONE', ( #309 ), #224, .T. ) ;
#207 = DIRECTION ( 'NONE',  ( -1.000000000000000000, -0.0000000000000000000, -0.0000000000000000000 ) ) ;
#208 = AXIS2_PLACEMENT_3D ( 'NONE', #825, #168, #730 ) ;
#209 = CYLINDRICAL_SURFACE ( 'NONE', #457, 7.000000000000000900 ) ;
#210 = CC_DESIGN_PERSON_AND_ORGANIZATION_ASSIGNMENT ( #852, #517, ( #156 ) ) ;
#211 = FACE_OUTER_BOUND ( 'NONE', #357, .T. ) ;
#212 = ORIENTED_EDGE ( 'NONE', *, *, #132, .T. ) ;
#213 = CARTESIAN_POINT ( 'NONE',  ( 19.00000000000000400, 0.0000000000000000000, 0.0000000000000000000 ) ) ;
#214 = VERTEX_POINT ( 'NONE', #939 ) ;
#215 = LINE ( 'NONE', #432, #296 ) ;
#216 = CARTESIAN_POINT ( 'NONE',  ( 51.14751703797368500, 9.860029870025032400, 4.577155523113869000 ) ) ;
#217 = DIRECTION ( 'NONE',  ( 0.7071067811865500200, 0.0000000000000000000, -0.7071067811865451300 ) ) ;
#218 = CARTESIAN_POINT ( 'NONE',  ( 50.26429750554150600, 9.513601379419357700, 5.258405856957539400 ) ) ;
#219 = DIRECTION ( 'NONE',  ( 1.000000000000000000, 0.0000000000000000000, 0.0000000000000000000 ) ) ;
#220 = APPROVAL_PERSON_ORGANIZATION ( #349, #895, #386 ) ;
#221 = APPROVAL_DATE_TIME ( #407, #308 ) ;
#222 = AXIS2_PLACEMENT_3D ( 'NONE', #371, #90, #504 ) ;
#223 = CARTESIAN_POINT ( 'NONE',  ( 74.56330310448127800, 1.331191070673172900E-015, -10.86999999999999900 ) ) ;
#224 = CONICAL_SURFACE ( 'NONE', #167, 5.250000000000000000, 0.7853981633974339600 ) ;
#225 = VERTEX_POINT ( 'NONE', #440 ) ;
#226 = CARTESIAN_POINT ( 'NONE',  ( 38.00000000000000000, -9.500000000000001800, 4.634101854728596600 ) ) ;
#227 = FACE_OUTER_BOUND ( 'NONE', #442, .T. ) ;
#228 = ORIENTED_EDGE ( 'NONE', *, *, #234, .F. ) ;
#229 = ORIENTED_EDGE ( 'NONE', *, *, #37, .T. ) ;
#230 = DIRECTION ( 'NONE',  ( 0.0000000000000000000, 0.0000000000000000000, 1.000000000000000000 ) ) ;
#231 = DIRECTION ( 'NONE',  ( 0.0000000000000000000, 0.0000000000000000000, 1.000000000000000000 ) ) ;
#232 = AXIS2_PLACEMENT_3D ( 'NONE', #29, #164, #591 ) ;
#233 = LINE ( 'NONE', #429, #810 ) ;
#234 = EDGE_CURVE ( 'NONE', #93, #311, #551, .T. ) ;
#235 = CARTESIAN_POINT ( 'NONE',  ( 88.92255533507794500, 0.0000000000000000000, 4.830620504905348300 ) ) ;
#236 = VERTEX_POINT ( 'NONE', #870 ) ;
#237 = VERTEX_POINT ( 'NONE', #494 ) ;
#238 = CARTESIAN_POINT ( 'NONE',  ( 21.16421356237314200, 0.0000000000000000000, 0.0000000000000000000 ) ) ;
#239 = EDGE_CURVE ( 'NONE', #536, #356, #283, .T. ) ;
#240 = DIRECTION ( 'NONE',  ( 1.000000000000000000, 0.0000000000000000000, 0.0000000000000000000 ) ) ;
#241 = APPROVAL_PERSON_ORGANIZATION ( #53, #308, #497 ) ;
#242 = CYLINDRICAL_SURFACE ( 'NONE', #276, 10.86999999999999900 ) ;
#243 = DIRECTION ( 'NONE',  ( 0.0000000000000000000, -1.000000000000000000, 0.0000000000000000000 ) ) ;
#244 = ORIENTED_EDGE ( 'NONE', *, *, #607, .T. ) ;
#245 = ORIENTED_EDGE ( 'NONE', *, *, #199, .F. ) ;
#246 = CARTESIAN_POINT ( 'NONE',  ( 0.0000000000000000000, 9.499999999999998200, -5.282698174228776200 ) ) ;
#247 = VERTEX_POINT ( 'NONE', #794 ) ;
#248 = CARTESIAN_POINT ( 'NONE',  ( 0.0000000000000000000, 1.331191070673172900E-015, -10.86999999999999900 ) ) ;
#249 = EDGE_CURVE ( 'NONE', #644, #247, #233, .T. ) ;
#250 = CARTESIAN_POINT ( 'NONE',  ( 38.30000000000003300, 0.0000000000000000000, 0.0000000000000000000 ) ) ;
#251 = CARTESIAN_POINT ( 'NONE',  ( 77.24692906653473300, 0.0000000000000000000, 10.27505444768272400 ) ) ;
#252 = COORDINATED_UNIVERSAL_TIME_OFFSET ( 8, 0, .AHEAD. ) ;
#253 = CARTESIAN_POINT ( 'NONE',  ( 0.0000000000000000000, 6.735557395310464700E-016, 5.500000000000017800 ) ) ;
#254 = CIRCLE ( 'NONE', #114, 5.542893218813441400 ) ;
#255 = DIRECTION ( 'NONE',  ( -1.000000000000000000, -0.0000000000000000000, -0.0000000000000000000 ) ) ;
#256 = CIRCLE ( 'NONE', #674, 4.830620504905348300 ) ;
#257 = AXIS2_PLACEMENT_3D ( 'NONE', #402, #488, #86 ) ;
#258 = VERTEX_POINT ( 'NONE', #647 ) ;
#259 = CARTESIAN_POINT ( 'NONE',  ( 74.56330310448127800, 5.535403532146036100E-016, 4.519999999999999600 ) ) ;
#260 = ORIENTED_EDGE ( 'NONE', *, *, #650, .F. ) ;
#261 = CONICAL_SURFACE ( 'NONE', #267, 10.56999999999995400, 0.7853981633974627100 ) ;
#262 = ORIENTED_EDGE ( 'NONE', *, *, #287, .F. ) ;
#263 = DIRECTION ( 'NONE',  ( -1.000000000000000000, -0.0000000000000000000, -0.0000000000000000000 ) ) ;
#264 = CC_DESIGN_DATE_AND_TIME_ASSIGNMENT ( #374, #505, ( #156 ) ) ;
#265 = DIRECTION ( 'NONE',  ( -1.000000000000000000, -0.0000000000000000000, -0.0000000000000000000 ) ) ;
#266 = DIRECTION ( 'NONE',  ( 0.0000000000000000000, 0.0000000000000000000, -1.000000000000000000 ) ) ;
#267 = AXIS2_PLACEMENT_3D ( 'NONE', #19, #946, #77 ) ;
#268 = DIRECTION ( 'NONE',  ( 0.0000000000000000000, 0.0000000000000000000, 1.000000000000000000 ) ) ;
#269 = DIRECTION ( 'NONE',  ( -0.7071067811865577900, 0.0000000000000000000, 0.7071067811865373600 ) ) ;
#270 = CIRCLE ( 'NONE', #503, 10.86999999999999900 ) ;
#271 = ORIENTED_EDGE ( 'NONE', *, *, #584, .F. ) ;
#272 = PRODUCT ( '定位销', '定位销', '', ( #603 ) ) ;
#273 = VERTEX_POINT ( 'NONE', #223 ) ;
#274 = CLOSED_SHELL ( 'NONE', ( #690, #281, #909, #351, #630, #839, #844, #904, #43, #622, #767, #196, #345, #485, #112, #480, #206, #275, #914, #582, #761, #124, #679, #117, #193, #558, #563, #27, #415 ) ) ;
#275 = ADVANCED_FACE ( 'NONE', ( #433 ), #209, .T. ) ;
#276 = AXIS2_PLACEMENT_3D ( 'NONE', #712, #789, #230 ) ;
#277 = TOROIDAL_SURFACE ( 'NONE', #593, 6.250000000000000000, 1.000000000000000000 ) ;
#278 = CARTESIAN_POINT ( 'NONE',  ( 51.82781354743993100, 10.68422220550113300, -2.067505223988842300 ) ) ;
#279 = DIRECTION ( 'NONE',  ( 0.0000000000000000000, 1.000000000000000000, 1.224646799147353500E-016 ) ) ;
#280 = DIRECTION ( 'NONE',  ( 1.000000000000000000, 0.0000000000000000000, 0.0000000000000000000 ) ) ;
#281 = ADVANCED_FACE ( 'NONE', ( #211 ), #643, .T. ) ;
#282 = AXIS2_PLACEMENT_3D ( 'NONE', #120, #676, #79 ) ;
#283 = CIRCLE ( 'NONE', #319, 10.27505444768272200 ) ;
#284 = DIRECTION ( 'NONE',  ( 0.7071067811865500200, 8.659560562354903300E-017, 0.7071067811865451300 ) ) ;
#285 = LINE ( 'NONE', #606, #560 ) ;
#286 = ORIENTED_EDGE ( 'NONE', *, *, #718, .T. ) ;
#287 = EDGE_CURVE ( 'NONE', #626, #135, #197, .T. ) ;
#288 = DIRECTION ( 'NONE',  ( -1.000000000000000000, -0.0000000000000000000, -0.0000000000000000000 ) ) ;
#289 = EDGE_CURVE ( 'NONE', #669, #258, #270, .T. ) ;
#290 = DIRECTION ( 'NONE',  ( 1.000000000000000000, 0.0000000000000000000, 0.0000000000000000000 ) ) ;
#291 = DIRECTION ( 'NONE',  ( 1.000000000000000000, 0.0000000000000000000, 0.0000000000000000000 ) ) ;
#292 = LINE ( 'NONE', #675, #795 ) ;
#293 = ORIENTED_EDGE ( 'NONE', *, *, #718, .F. ) ;
#294 = ORIENTED_EDGE ( 'NONE', *, *, #239, .T. ) ;
#295 = ORIENTED_EDGE ( 'NONE', *, *, #796, .T. ) ;
#296 = VECTOR ( 'NONE', #502, 1000.000000000000100 ) ;
#297 = DIRECTION ( 'NONE',  ( 0.7071067811865373600, 0.0000000000000000000, -0.7071067811865577900 ) ) ;
#298 = CARTESIAN_POINT ( 'NONE',  ( 50.13380097728492000, -9.499999999999996400, 5.282698174228770900 ) ) ;
#299 = DIRECTION ( 'NONE',  ( 0.0000000000000000000, 0.0000000000000000000, 1.000000000000000000 ) ) ;
#300 = CYLINDRICAL_SURFACE ( 'NONE', #222, 2.000000000000000000 ) ;
#301 = ORIENTED_EDGE ( 'NONE', *, *, #595, .F. ) ;
#302 = EDGE_LOOP ( 'NONE', ( #801, #82, #859, #776, #4, #260, #343, #190 ) ) ;
#303 = LINE ( 'NONE', #822, #192 ) ;
#304 = ORIENTED_EDGE ( 'NONE', *, *, #184, .F. ) ;
#305 = FACE_OUTER_BOUND ( 'NONE', #403, .T. ) ;
#306 = AXIS2_PLACEMENT_3D ( 'NONE', #250, #185, #100 ) ;
#307 = DATE_AND_TIME ( #56, #483 ) ;
#308 = APPROVAL ( #501, '未指定' ) ;
#309 = FACE_OUTER_BOUND ( 'NONE', #85, .T. ) ;
#310 = DIRECTION ( 'NONE',  ( 0.0000000000000000000, 0.0000000000000000000, -1.000000000000000000 ) ) ;
#311 = VERTEX_POINT ( 'NONE', #918 ) ;
#312 = AXIS2_PLACEMENT_3D ( 'NONE', #572, #620, #471 ) ;
#313 = DATE_TIME_ROLE ( 'creation_date' ) ;
#314 = ORIENTED_EDGE ( 'NONE', *, *, #287, .T. ) ;
#315 = LINE ( 'NONE', #248, #111 ) ;
#316 = CARTESIAN_POINT ( 'NONE',  ( 51.08383194226696800, -9.811822051915147100, 4.683821658103843400 ) ) ;
#317 = CIRCLE ( 'NONE', #916, 1.000000000000000000 ) ;
#318 = DIRECTION ( 'NONE',  ( -1.000000000000000000, -0.0000000000000000000, -0.0000000000000000000 ) ) ;
#319 = AXIS2_PLACEMENT_3D ( 'NONE', #928, #142, #575 ) ;
#320 = CARTESIAN_POINT ( 'NONE',  ( 51.89821057110424400, -10.87008204080125400, -0.2557290714766991500 ) ) ;
#321 = APPLICATION_CONTEXT ( 'configuration controlled 3d designs of mechanical parts and assemblies' ) ;
#322 = CARTESIAN_POINT ( 'NONE',  ( 50.82638920587756800, -9.675448595212646600, -4.954784923663844200 ) ) ;
#323 = CARTESIAN_POINT ( 'NONE',  ( 38.00000000000000000, 0.0000000000000000000, 0.0000000000000000000 ) ) ;
#324 = CIRCLE ( 'NONE', #544, 10.86999999999999900 ) ;
#325 = PERSON_AND_ORGANIZATION_ROLE ( 'design_owner' ) ;
#326 = VECTOR ( 'NONE', #255, 1000.000000000000000 ) ;
#327 = VERTEX_POINT ( 'NONE', #75 ) ;
#328 = EDGE_CURVE ( 'NONE', #273, #435, #134, .T. ) ;
#329 =( GEOMETRIC_REPRESENTATION_CONTEXT ( 3 ) GLOBAL_UNCERTAINTY_ASSIGNED_CONTEXT ( ( #655 ) ) GLOBAL_UNIT_ASSIGNED_CONTEXT ( ( #108, #527, #629 ) ) REPRESENTATION_CONTEXT ( 'NONE', 'WORKASPACE' ) );
#330 = ORIENTED_EDGE ( 'NONE', *, *, #729, .F. ) ;
#331 = VECTOR ( 'NONE', #417, 1000.000000000000000 ) ;
#332 = CARTESIAN_POINT ( 'NONE',  ( 1.499999999999993800, 0.0000000000000000000, 0.0000000000000000000 ) ) ;
#333 = CARTESIAN_POINT ( 'NONE',  ( 51.77992481562547100, 10.57207600683511700, 2.578566978212887100 ) ) ;
#334 = DIRECTION ( 'NONE',  ( 0.0000000000000000000, 1.224646799147353200E-016, 1.000000000000000000 ) ) ;
#335 = AXIS2_PLACEMENT_3D ( 'NONE', #871, #902, #818 ) ;
#336 = DIRECTION ( 'NONE',  ( -1.000000000000000000, -0.0000000000000000000, -0.0000000000000000000 ) ) ;
#337 = CARTESIAN_POINT ( 'NONE',  ( 86.67000000000000200, 8.958662199524575100E-016, 0.0000000000000000000 ) ) ;
#338 = DIRECTION ( 'NONE',  ( 0.0000000000000000000, -8.480678358307785000E-017, -1.000000000000000000 ) ) ;
#339 = EDGE_CURVE ( 'NONE', #511, #237, #187, .T. ) ;
#340 = EDGE_LOOP ( 'NONE', ( #562, #444, #105, #109, #579, #244 ) ) ;
#341 = CARTESIAN_POINT ( 'NONE',  ( 0.0000000000000000000, 0.0000000000000000000, 5.250000000000000000 ) ) ;
#342 = ORIENTED_EDGE ( 'NONE', *, *, #500, .T. ) ;
#343 = ORIENTED_EDGE ( 'NONE', *, *, #729, .T. ) ;
#344 = CARTESIAN_POINT ( 'NONE',  ( 92.00000000000000000, 1.222234591925227600E-015, 0.0000000000000000000 ) ) ;
#345 = ADVANCED_FACE ( 'NONE', ( #148, #121 ), #671, .F. ) ;
#346 = CARTESIAN_POINT ( 'NONE',  ( 1.499999999999993800, 8.572527594031474200E-016, -7.000000000000000900 ) ) ;
#347 = CARTESIAN_POINT ( 'NONE',  ( 20.75000000000005300, 0.0000000000000000000, 5.250000000000000000 ) ) ;
#348 = DIRECTION ( 'NONE',  ( 1.000000000000000000, 0.0000000000000000000, 0.0000000000000000000 ) ) ;
#349 = PERSON_AND_ORGANIZATION ( #760, #376 ) ;
#350 = CARTESIAN_POINT ( 'NONE',  ( 51.82739817376347000, 10.68323469170655400, 2.073280520373689000 ) ) ;
#351 = ADVANCED_FACE ( 'NONE', ( #171 ), #72, .F. ) ;
#352 = CARTESIAN_POINT ( 'NONE',  ( 86.67000000000000200, 8.958662199524575100E-016, 0.0000000000000000000 ) ) ;
#353 = CONICAL_SURFACE ( 'NONE', #443, 4.830620504905348300, 0.4363323129985827700 ) ;
#354 = CARTESIAN_POINT ( 'NONE',  ( 38.30000000000003300, 0.0000000000000000000, 0.0000000000000000000 ) ) ;
#355 = CONICAL_SURFACE ( 'NONE', #154, 10.56999999999995400, 0.7853981633974627100 ) ;
#356 = VERTEX_POINT ( 'NONE', #18 ) ;
#357 = EDGE_LOOP ( 'NONE', ( #64, #509, #367, #799 ) ) ;
#358 = DIRECTION ( 'NONE',  ( 1.000000000000000000, 0.0000000000000000000, 0.0000000000000000000 ) ) ;
#359 = CARTESIAN_POINT ( 'NONE',  ( 50.91678550563344200, 9.720108660085990900, 4.866965120118104300 ) ) ;
#360 = CARTESIAN_POINT ( 'NONE',  ( 38.00000000000000000, 0.0000000000000000000, 0.0000000000000000000 ) ) ;
#361 = AXIS2_PLACEMENT_3D ( 'NONE', #744, #336, #826 ) ;
#362 = CC_DESIGN_APPROVAL ( #308, ( #156 ) ) ;
#363 = CARTESIAN_POINT ( 'NONE',  ( 50.82638920587757500, 9.675448595212646600, 4.954784923663842400 ) ) ;
#364 = PERSON_AND_ORGANIZATION ( #760, #376 ) ;
#365 = EDGE_LOOP ( 'NONE', ( #451, #475, #489, #577 ) ) ;
#366 = EDGE_LOOP ( 'NONE', ( #550, #20, #286, #65, #561, #568 ) ) ;
#367 = ORIENTED_EDGE ( 'NONE', *, *, #637, .F. ) ;
#368 = AXIS2_PLACEMENT_3D ( 'NONE', #843, #906, #358 ) ;
#369 = CARTESIAN_POINT ( 'NONE',  ( 0.0000000000000000000, 9.499999999999998200, 5.282698174228774400 ) ) ;
#370 = AXIS2_PLACEMENT_3D ( 'NONE', #460, #853, #654 ) ;
#371 = CARTESIAN_POINT ( 'NONE',  ( 49.99999999999999300, -11.49999999999999800, 20.45500846376811000 ) ) ;
#372 = FACE_OUTER_BOUND ( 'NONE', #612, .T. ) ;
#373 = ORIENTED_EDGE ( 'NONE', *, *, #740, .T. ) ;
#374 = DATE_AND_TIME ( #143, #790 ) ;
#375 = ORIENTED_EDGE ( 'NONE', *, *, #378, .F. ) ;
#376 = ORGANIZATION ( '未指定', '未指定', '' ) ;
#377 = DIRECTION ( 'NONE',  ( -1.000000000000000000, -0.0000000000000000000, -0.0000000000000000000 ) ) ;
#378 = EDGE_CURVE ( 'NONE', #534, #847, #92, .T. ) ;
#379 = CARTESIAN_POINT ( 'NONE',  ( 50.13380097728493500, 9.499999999999998200, -5.282698174228778900 ) ) ;
#380 = AXIS2_PLACEMENT_3D ( 'NONE', #585, #25, #515 ) ;
#381 = CIRCLE ( 'NONE', #720, 10.86999999999999900 ) ;
#382 = ORIENTED_EDGE ( 'NONE', *, *, #781, .F. ) ;
#383 = ORIENTED_EDGE ( 'NONE', *, *, #538, .F. ) ;
#384 = PERSON_AND_ORGANIZATION ( #760, #376 ) ;
#385 = DIRECTION ( 'NONE',  ( 0.0000000000000000000, 0.0000000000000000000, 1.000000000000000000 ) ) ;
#386 = APPROVAL_ROLE ( '' ) ;
#387 = CARTESIAN_POINT ( 'NONE',  ( 51.42958965224205100, -10.09647241719816100, 4.035017589515404300 ) ) ;
#388 = CARTESIAN_POINT ( 'NONE',  ( 51.82739817376346300, -10.68323469170655700, -2.073280520373685000 ) ) ;
#389 = CIRCLE ( 'NONE', #361, 5.250000000000000000 ) ;
#390 = VERTEX_POINT ( 'NONE', #910 ) ;
#391 = CARTESIAN_POINT ( 'NONE',  ( 38.00000000000000000, -9.500000000000001800, 4.634101854728596600 ) ) ;
#392 = ORIENTED_EDGE ( 'NONE', *, *, #239, .F. ) ;
#393 = FACE_OUTER_BOUND ( 'NONE', #917, .T. ) ;
#394 = DESIGN_CONTEXT ( 'detailed design', #321, 'design' ) ;
#395 = CARTESIAN_POINT ( 'NONE',  ( 50.50963347137359000, -9.561983907152507500, -5.169903976122930600 ) ) ;
#396 = LINE ( 'NONE', #724, #425 ) ;
#397 = DIRECTION ( 'NONE',  ( -1.000000000000000000, -0.0000000000000000000, -0.0000000000000000000 ) ) ;
#398 = AXIS2_PLACEMENT_3D ( 'NONE', #506, #71, #231 ) ;
#399 = CARTESIAN_POINT ( 'NONE',  ( 49.99999999999999300, 9.499999999999998200, -5.282698174228776200 ) ) ;
#400 = EDGE_LOOP ( 'NONE', ( #107, #493, #490, #783 ) ) ;
#401 = DIRECTION ( 'NONE',  ( 0.0000000000000000000, 0.0000000000000000000, 1.000000000000000000 ) ) ;
#402 = CARTESIAN_POINT ( 'NONE',  ( 88.92255533507794500, 0.0000000000000000000, 0.0000000000000000000 ) ) ;
#403 = EDGE_LOOP ( 'NONE', ( #837, #798, #304, #271 ) ) ;
#404 = DIRECTION ( 'NONE',  ( 0.0000000000000000000, 0.0000000000000000000, -1.000000000000000000 ) ) ;
#405 = CARTESIAN_POINT ( 'NONE',  ( 38.30000000000003300, -9.500000000000000000, -5.282698174228770900 ) ) ;
#406 = AXIS2_PLACEMENT_3D ( 'NONE', #99, #897, #473 ) ;
#407 = DATE_AND_TIME ( #594, #777 ) ;
#408 = CARTESIAN_POINT ( 'NONE',  ( 21.16421356237314200, 0.0000000000000000000, 0.0000000000000000000 ) ) ;
#409 = CONICAL_SURFACE ( 'NONE', #335, 10.56999999999995400, 0.7853981633974627100 ) ;
#410 = ORIENTED_EDGE ( 'NONE', *, *, #339, .T. ) ;
#411 = CARTESIAN_POINT ( 'NONE',  ( 50.62298165087319300, 9.596371672048931600, 5.106255956203690400 ) ) ;
#412 = AXIS2_PLACEMENT_3D ( 'NONE', #213, #81, #385 ) ;
#413 = ORIENTED_EDGE ( 'NONE', *, *, #565, .T. ) ;
#414 = EDGE_LOOP ( 'NONE', ( #245, #707, #151, #811 ) ) ;
#415 = ADVANCED_FACE ( 'NONE', ( #80 ), #409, .T. ) ;
#416 = DIRECTION ( 'NONE',  ( 0.0000000000000000000, 1.224646799147353200E-016, -1.000000000000000000 ) ) ;
#417 = DIRECTION ( 'NONE',  ( -1.000000000000000000, -0.0000000000000000000, -0.0000000000000000000 ) ) ;
#418 = EDGE_CURVE ( 'NONE', #237, #751, #2, .T. ) ;
#419 = CIRCLE ( 'NONE', #569, 6.349999999999999600 ) ;
#420 = CIRCLE ( 'NONE', #900, 5.500000000000017800 ) ;
#421 = EDGE_LOOP ( 'NONE', ( #498, #549, #35, #452 ) ) ;
#422 = AXIS2_PLACEMENT_3D ( 'NONE', #678, #768, #633 ) ;
#423 = ORIENTED_EDGE ( 'NONE', *, *, #74, .T. ) ;
#424 = FACE_OUTER_BOUND ( 'NONE', #667, .T. ) ;
#425 = VECTOR ( 'NONE', #240, 1000.000000000000000 ) ;
#426 = CARTESIAN_POINT ( 'NONE',  ( 51.07672811356905400, 9.812052899321051000, 4.678833160655582200 ) ) ;
#427 = DIRECTION ( 'NONE',  ( 1.000000000000000000, 0.0000000000000000000, 0.0000000000000000000 ) ) ;
#428 = CARTESIAN_POINT ( 'NONE',  ( 38.00000000000000000, -9.500000000000001800, 1.250900057850398500E-015 ) ) ;
#429 = CARTESIAN_POINT ( 'NONE',  ( 49.99999999999999300, -9.500000000000000000, 5.282698174228772600 ) ) ;
#430 = FACE_OUTER_BOUND ( 'NONE', #61, .T. ) ;
#431 = ORIENTED_EDGE ( 'NONE', *, *, #673, .F. ) ;
#432 = CARTESIAN_POINT ( 'NONE',  ( 88.92255533507794500, 0.0000000000000000000, 4.830620504905348300 ) ) ;
#433 = FACE_OUTER_BOUND ( 'NONE', #682, .T. ) ;
#434 = ORIENTED_EDGE ( 'NONE', *, *, #50, .F. ) ;
#435 = VERTEX_POINT ( 'NONE', #200 ) ;
#436 = CARTESIAN_POINT ( 'NONE',  ( 0.0000000000000000000, 0.0000000000000000000, 0.0000000000000000000 ) ) ;
#437 = CARTESIAN_POINT ( 'NONE',  ( 50.51006515117699500, 9.562082853882904100, -5.169722135034524200 ) ) ;
#438 = PERSON_AND_ORGANIZATION ( #760, #376 ) ;
#439 = CARTESIAN_POINT ( 'NONE',  ( 38.00000000000000000, 9.499999999999998200, 4.634101854728601900 ) ) ;
#440 = CARTESIAN_POINT ( 'NONE',  ( 38.30000000000003300, 9.499999999999998200, 5.282698174228774400 ) ) ;
#441 = ORIENTED_EDGE ( 'NONE', *, *, #512, .T. ) ;
#442 = EDGE_LOOP ( 'NONE', ( #599, #762, #546, #375 ) ) ;
#443 = AXIS2_PLACEMENT_3D ( 'NONE', #11, #288, #401 ) ;
#444 = ORIENTED_EDGE ( 'NONE', *, *, #922, .T. ) ;
#445 = CARTESIAN_POINT ( 'NONE',  ( 0.0000000000000000000, 0.0000000000000000000, 0.0000000000000000000 ) ) ;
#446 = PLANE ( 'NONE',  #312 ) ;
#447 = CARTESIAN_POINT ( 'NONE',  ( 20.75000000000005300, 0.0000000000000000000, 0.0000000000000000000 ) ) ;
#448 = AXIS2_PLACEMENT_3D ( 'NONE', #354, #280, #625 ) ;
#449 = VECTOR ( 'NONE', #217, 1000.000000000000100 ) ;
#450 = DIRECTION ( 'NONE',  ( 0.0000000000000000000, 0.0000000000000000000, 1.000000000000000000 ) ) ;
#451 = ORIENTED_EDGE ( 'NONE', *, *, #189, .F. ) ;
#452 = ORIENTED_EDGE ( 'NONE', *, *, #74, .F. ) ;
#453 = CARTESIAN_POINT ( 'NONE',  ( 51.64071245461601500, -10.35305249916715000, 3.322226605690550300 ) ) ;
#454 = EDGE_LOOP ( 'NONE', ( #646, #734, #441, #392 ) ) ;
#455 = DIRECTION ( 'NONE',  ( -1.000000000000000000, -0.0000000000000000000, -0.0000000000000000000 ) ) ;
#456 = CIRCLE ( 'NONE', #555, 1.000000000000000000 ) ;
#457 = AXIS2_PLACEMENT_3D ( 'NONE', #445, #649, #942 ) ;
#458 = DIRECTION ( 'NONE',  ( -1.000000000000000000, -0.0000000000000000000, -0.0000000000000000000 ) ) ;
#459 = CARTESIAN_POINT ( 'NONE',  ( 50.92680271132758200, -9.714453965939092900, 4.880077684988182600 ) ) ;
#460 = CARTESIAN_POINT ( 'NONE',  ( 74.56330310448127800, 0.0000000000000000000, 0.0000000000000000000 ) ) ;
#461 = DIRECTION ( 'NONE',  ( 0.0000000000000000000, 0.0000000000000000000, -1.000000000000000000 ) ) ;
#462 = VECTOR ( 'NONE', #166, 1000.000000000000100 ) ;
#463 = EDGE_CURVE ( 'NONE', #899, #225, #698, .T. ) ;
#464 = CARTESIAN_POINT ( 'NONE',  ( 21.16421356237314200, 0.0000000000000000000, 0.0000000000000000000 ) ) ;
#465 = DIRECTION ( 'NONE',  ( -0.0000000000000000000, 1.000000000000000000, 1.224646799147353200E-016 ) ) ;
#466 = APPROVAL_DATE_TIME ( #307, #895 ) ;
#467 = FACE_OUTER_BOUND ( 'NONE', #580, .T. ) ;
#468 = CARTESIAN_POINT ( 'NONE',  ( 0.0000000000000000000, 0.0000000000000000000, 0.0000000000000000000 ) ) ;
#469 = AXIS2_PLACEMENT_3D ( 'NONE', #238, #96, #268 ) ;
#470 = CARTESIAN_POINT ( 'NONE',  ( 50.62324862862286100, -9.596491233724304200, 5.106023356587774800 ) ) ;
#471 = DIRECTION ( 'NONE',  ( 0.0000000000000000000, -8.480678358307785000E-017, -1.000000000000000000 ) ) ;
#472 = DIRECTION ( 'NONE',  ( -1.000000000000000000, -0.0000000000000000000, -0.0000000000000000000 ) ) ;
#473 = DIRECTION ( 'NONE',  ( 0.0000000000000000000, 0.0000000000000000000, 1.000000000000000000 ) ) ;
#474 = ORIENTED_EDGE ( 'NONE', *, *, #145, .F. ) ;
#475 = ORIENTED_EDGE ( 'NONE', *, *, #76, .T. ) ;
#476 = CARTESIAN_POINT ( 'NONE',  ( 0.0000000000000000000, 0.0000000000000000000, -5.500000000000017800 ) ) ;
#477 = ORIENTED_EDGE ( 'NONE', *, *, #339, .F. ) ;
#478 = DIRECTION ( 'NONE',  ( -1.000000000000000000, -0.0000000000000000000, -0.0000000000000000000 ) ) ;
#479 = DIRECTION ( 'NONE',  ( 0.0000000000000000000, 0.0000000000000000000, 1.000000000000000000 ) ) ;
#480 = ADVANCED_FACE ( 'NONE', ( #34 ), #932, .T. ) ;
#481 = DIRECTION ( 'NONE',  ( 0.0000000000000000000, 0.0000000000000000000, -1.000000000000000000 ) ) ;
#482 = CARTESIAN_POINT ( 'NONE',  ( 0.0000000000000000000, 7.654042494670969400E-016, 5.500000000000017800 ) ) ;
#483 = LOCAL_TIME ( 8, 20, 3.000000000000000000, #169 ) ;
#484 = DIRECTION ( 'NONE',  ( 0.0000000000000000000, 1.224646799147352500E-016, 1.000000000000000000 ) ) ;
#485 = ADVANCED_FACE ( 'NONE', ( #47 ), #15, .T. ) ;
#486 = FACE_OUTER_BOUND ( 'NONE', #833, .T. ) ;
#487 = DATE_AND_TIME ( #24, #163 ) ;
#488 = DIRECTION ( 'NONE',  ( -1.000000000000000000, -0.0000000000000000000, -0.0000000000000000000 ) ) ;
#489 = ORIENTED_EDGE ( 'NONE', *, *, #821, .F. ) ;
#490 = ORIENTED_EDGE ( 'NONE', *, *, #922, .F. ) ;
#491 = CARTESIAN_POINT ( 'NONE',  ( 51.43268506805896600, 10.09965011104866800, 4.027092577390416000 ) ) ;
#492 = APPROVAL_PERSON_ORGANIZATION ( #364, #651, #665 ) ;
#493 = ORIENTED_EDGE ( 'NONE', *, *, #838, .F. ) ;
#494 = CARTESIAN_POINT ( 'NONE',  ( 38.00000000000000000, 0.0000000000000000000, -6.250000000000000000 ) ) ;
#495 = ORIENTED_EDGE ( 'NONE', *, *, #249, .F. ) ;
#496 = AXIS2_PLACEMENT_3D ( 'NONE', #616, #632, #484 ) ;
#497 = APPROVAL_ROLE ( '' ) ;
#498 = ORIENTED_EDGE ( 'NONE', *, *, #740, .F. ) ;
#499 = DIRECTION ( 'NONE',  ( 1.000000000000000000, 0.0000000000000000000, 0.0000000000000000000 ) ) ;
#500 = EDGE_CURVE ( 'NONE', #390, #49, #60, .T. ) ;
#501 = APPROVAL_STATUS ( 'not_yet_approved' ) ;
#502 = DIRECTION ( 'NONE',  ( -0.9063077870366497100, 0.0000000000000000000, 0.4226182617406997200 ) ) ;
#503 = AXIS2_PLACEMENT_3D ( 'NONE', #891, #755, #752 ) ;
#504 = DIRECTION ( 'NONE',  ( 0.0000000000000000000, 1.000000000000000000, 0.0000000000000000000 ) ) ;
#505 = DATE_TIME_ROLE ( 'classification_date' ) ;
#506 = CARTESIAN_POINT ( 'NONE',  ( 88.92255533507794500, 0.0000000000000000000, 0.0000000000000000000 ) ) ;
#507 = CIRCLE ( 'NONE', #104, 10.27505444768272200 ) ;
#508 = FACE_OUTER_BOUND ( 'NONE', #340, .T. ) ;
#509 = ORIENTED_EDGE ( 'NONE', *, *, #586, .T. ) ;
#510 = ADVANCED_BREP_SHAPE_REPRESENTATION ( '定位销', ( #128, #513 ), #329 ) ;
#511 = VERTEX_POINT ( 'NONE', #623 ) ;
#512 = EDGE_CURVE ( 'NONE', #273, #356, #419, .T. ) ;
#513 = AXIS2_PLACEMENT_3D ( 'NONE', #468, #785, #545 ) ;
#514 = CIRCLE ( 'NONE', #766, 6.250000000000000000 ) ;
#515 = DIRECTION ( 'NONE',  ( 0.0000000000000000000, 0.0000000000000000000, -1.000000000000000000 ) ) ;
#516 = AXIS2_PLACEMENT_3D ( 'NONE', #699, #772, #613 ) ;
#517 = PERSON_AND_ORGANIZATION_ROLE ( 'classification_officer' ) ;
#518 = SPHERICAL_SURFACE ( 'NONE', #58, 5.330000000000004500 ) ;
#519 = EDGE_LOOP ( 'NONE', ( #652, #410 ) ) ;
#520 = ORIENTED_EDGE ( 'NONE', *, *, #538, .T. ) ;
#521 = DIRECTION ( 'NONE',  ( 0.0000000000000000000, 0.0000000000000000000, -1.000000000000000000 ) ) ;
#522 = ORIENTED_EDGE ( 'NONE', *, *, #838, .T. ) ;
#523 = FACE_OUTER_BOUND ( 'NONE', #532, .T. ) ;
#524 = TOROIDAL_SURFACE ( 'NONE', #10, 6.250000000000000000, 1.000000000000000000 ) ;
#525 = LINE ( 'NONE', #369, #98 ) ;
#526 = SECURITY_CLASSIFICATION_LEVEL ( 'unclassified' ) ;
#527 =( NAMED_UNIT ( * ) PLANE_ANGLE_UNIT ( ) SI_UNIT ( $, .RADIAN. ) );
#528 = CARTESIAN_POINT ( 'NONE',  ( 51.82781354743993100, -10.68422220550112900, 2.067505223988843200 ) ) ;
#529 = CARTESIAN_POINT ( 'NONE',  ( 51.33701122654594700, -10.00414221976479600, -4.257769994838850100 ) ) ;
#530 = DIRECTION ( 'NONE',  ( -1.000000000000000000, -0.0000000000000000000, -0.0000000000000000000 ) ) ;
#531 = CIRCLE ( 'NONE', #208, 5.542893218813441400 ) ;
#532 = EDGE_LOOP ( 'NONE', ( #423, #641, #342, #22 ) ) ;
#533 = CARTESIAN_POINT ( 'NONE',  ( 49.99999999999999300, -9.500000000000000000, -5.282698174228770900 ) ) ;
#534 = VERTEX_POINT ( 'NONE', #573 ) ;
#535 = DIRECTION ( 'NONE',  ( -1.000000000000000000, -0.0000000000000000000, -0.0000000000000000000 ) ) ;
#536 = VERTEX_POINT ( 'NONE', #251 ) ;
#537 = CARTESIAN_POINT ( 'NONE',  ( 74.56330310448127800, 0.0000000000000000000, -4.519999999999999600 ) ) ;
#538 = EDGE_CURVE ( 'NONE', #947, #626, #292, .T. ) ;
#539 = PERSON_AND_ORGANIZATION_ROLE ( 'design_supplier' ) ;
#540 = CARTESIAN_POINT ( 'NONE',  ( 52.00000000000000000, 9.500000000000001800, 20.45500846376811000 ) ) ;
#541 = CARTESIAN_POINT ( 'NONE',  ( 38.00000000000000000, -9.500000000000001800, -4.634101854728594800 ) ) ;
#542 = CARTESIAN_POINT ( 'NONE',  ( 37.00000000000000000, 6.429395695523604200E-016, -5.250000000000000000 ) ) ;
#543 = DIRECTION ( 'NONE',  ( -0.0000000000000000000, 1.272101753746167500E-016, 1.000000000000000000 ) ) ;
#544 = AXIS2_PLACEMENT_3D ( 'NONE', #195, #183, #310 ) ;
#545 = DIRECTION ( 'NONE',  ( 1.000000000000000000, 0.0000000000000000000, 0.0000000000000000000 ) ) ;
#546 = ORIENTED_EDGE ( 'NONE', *, *, #95, .F. ) ;
#547 = DIRECTION ( 'NONE',  ( 0.0000000000000000000, 1.272101753746167500E-016, 1.000000000000000000 ) ) ;
#548 = CARTESIAN_POINT ( 'NONE',  ( 88.92255533507794500, -4.830620504905345700, -5.915803939227902900E-016 ) ) ;
#549 = ORIENTED_EDGE ( 'NONE', *, *, #849, .F. ) ;
#550 = ORIENTED_EDGE ( 'NONE', *, *, #645, .T. ) ;
#551 = B_SPLINE_CURVE_WITH_KNOTS ( 'NONE', 3,
 ( #147, #379, #119, #437, #862, #578, #129, #45, #55, #842, #38, #91, #278, #33, #874, #805, #155, #800, #782, #350, #333, #571, #133, #491, #57, #216, #426, #359, #363, #411, #139, #218, #640, #710 ),
 .UNSPECIFIED., .F., .F.,
 ( 4, 2, 2, 2, 2, 2, 2, 2, 2, 2, 2, 2, 2, 2, 2, 2, 4 ),
 ( -0.007496241055281160600, -0.007107473180576176000, -0.006718705305871191400, -0.005941169556461236100, -0.005163633807051279000, -0.004386098057641322000, -0.002831026558821406200, -0.001275955060001491200, -0.0004984193105915333400, 0.0002791164388184237000, 0.001834187937638341200, 0.002611723687048300000, 0.003389259436458255300, 0.003778027311163237300, 0.004166795185868219300, 0.004555563060573201300, 0.004944330935278181500 ),
 .UNSPECIFIED. ) ;
#552 = CIRCLE ( 'NONE', #178, 5.330000000000004500 ) ;
#553 = DIRECTION ( 'NONE',  ( 0.0000000000000000000, 0.0000000000000000000, -1.000000000000000000 ) ) ;
#554 = DIRECTION ( 'NONE',  ( -1.000000000000000000, -0.0000000000000000000, -0.0000000000000000000 ) ) ;
#555 = AXIS2_PLACEMENT_3D ( 'NONE', #118, #465, #770 ) ;
#556 = EDGE_CURVE ( 'NONE', #49, #390, #62, .T. ) ;
#557 = CARTESIAN_POINT ( 'NONE',  ( 21.16421356237314200, 0.0000000000000000000, 6.250000000000000000 ) ) ;
#558 = ADVANCED_FACE ( 'NONE', ( #713 ), #757, .F. ) ;
#559 = AXIS2_PLACEMENT_3D ( 'NONE', #604, #207, #553 ) ;
#560 = VECTOR ( 'NONE', #543, 1000.000000000000000 ) ;
#561 = ORIENTED_EDGE ( 'NONE', *, *, #869, .T. ) ;
#562 = ORIENTED_EDGE ( 'NONE', *, *, #87, .T. ) ;
#563 = ADVANCED_FACE ( 'NONE', ( #864 ), #48, .T. ) ;
#564 = CARTESIAN_POINT ( 'NONE',  ( 38.19586036039802900, 9.499999999999998200, -5.068414138847729500 ) ) ;
#565 = EDGE_CURVE ( 'NONE', #135, #236, #731, .T. ) ;
#566 = CC_DESIGN_PERSON_AND_ORGANIZATION_ASSIGNMENT ( #384, #325, ( #272 ) ) ;
#567 = DIRECTION ( 'NONE',  ( -1.000000000000000000, -0.0000000000000000000, -0.0000000000000000000 ) ) ;
#568 = ORIENTED_EDGE ( 'NONE', *, *, #673, .T. ) ;
#569 = AXIS2_PLACEMENT_3D ( 'NONE', #537, #84, #3 ) ;
#570 = SHAPE_DEFINITION_REPRESENTATION ( #787, #510 ) ;
#571 = CARTESIAN_POINT ( 'NONE',  ( 51.64258044501950500, 10.35578703764012300, 3.313578053992691800 ) ) ;
#572 = CARTESIAN_POINT ( 'NONE',  ( 52.00000000000000000, -9.499999999999998200, 20.45500846376811000 ) ) ;
#573 = CARTESIAN_POINT ( 'NONE',  ( 88.92255533507794500, 4.830620504905346600, 0.0000000000000000000 ) ) ;
#574 = CARTESIAN_POINT ( 'NONE',  ( 38.19586036039802900, -9.500000000000000000, 5.068414138847724200 ) ) ;
#575 = DIRECTION ( 'NONE',  ( 0.0000000000000000000, 0.0000000000000000000, -1.000000000000000000 ) ) ;
#576 = DIRECTION ( 'NONE',  ( -1.000000000000000000, -0.0000000000000000000, -0.0000000000000000000 ) ) ;
#577 = ORIENTED_EDGE ( 'NONE', *, *, #634, .F. ) ;
#578 = CARTESIAN_POINT ( 'NONE',  ( 50.92680271132758200, 9.714453965939091200, -4.880077684988184400 ) ) ;
#579 = ORIENTED_EDGE ( 'NONE', *, *, #650, .T. ) ;
#580 = EDGE_LOOP ( 'NONE', ( #382, #936, #54, #857 ) ) ;
#581 = EDGE_CURVE ( 'NONE', #763, #899, #693, .T. ) ;
#582 = ADVANCED_FACE ( 'NONE', ( #779 ), #706, .T. ) ;
#583 = CIRCLE ( 'NONE', #368, 5.330000000000001800 ) ;
#584 = EDGE_CURVE ( 'NONE', #943, #327, #31, .T. ) ;
#585 = CARTESIAN_POINT ( 'NONE',  ( 37.00000000000000000, 0.0000000000000000000, -6.250000000000000000 ) ) ;
#586 = EDGE_CURVE ( 'NONE', #435, #536, #845, .T. ) ;
#587 = AXIS2_PLACEMENT_3D ( 'NONE', #540, #721, #547 ) ;
#588 = ORIENTED_EDGE ( 'NONE', *, *, #827, .F. ) ;
#589 = ORIENTED_EDGE ( 'NONE', *, *, #180, .T. ) ;
#590 = CARTESIAN_POINT ( 'NONE',  ( 51.87222622480224000, -10.79544952151096000, -1.297475829088768700 ) ) ;
#591 = DIRECTION ( 'NONE',  ( 0.0000000000000000000, 0.0000000000000000000, -1.000000000000000000 ) ) ;
#592 = CARTESIAN_POINT ( 'NONE',  ( 38.30000000000003300, 0.0000000000000000000, 0.0000000000000000000 ) ) ;
#593 = AXIS2_PLACEMENT_3D ( 'NONE', #408, #472, #46 ) ;
#594 = CALENDAR_DATE ( 2025, 10, 3 ) ;
#595 = EDGE_CURVE ( 'NONE', #138, #745, #420, .T. ) ;
#596 = CARTESIAN_POINT ( 'NONE',  ( 51.88711426188130100, -10.83277025185725700, 1.038398121252629600 ) ) ;
#597 = ORIENTED_EDGE ( 'NONE', *, *, #769, .T. ) ;
#598 = CARTESIAN_POINT ( 'NONE',  ( 49.99999999999999300, 11.50000000000000200, 20.45500846376811000 ) ) ;
#599 = ORIENTED_EDGE ( 'NONE', *, *, #701, .F. ) ;
#600 = AXIS2_PLACEMENT_3D ( 'NONE', #323, #290, #266 ) ;
#601 = CARTESIAN_POINT ( 'NONE',  ( 51.58555356616215400, -10.27542407154332700, -3.554724622587000400 ) ) ;
#602 = FACE_OUTER_BOUND ( 'NONE', #302, .T. ) ;
#603 = MECHANICAL_CONTEXT ( 'NONE', #689, 'mechanical' ) ;
#604 = CARTESIAN_POINT ( 'NONE',  ( 74.56330310448127800, 0.0000000000000000000, 0.0000000000000000000 ) ) ;
#605 = CARTESIAN_POINT ( 'NONE',  ( 0.0000000000000000000, 0.0000000000000000000, 7.000000000000000900 ) ) ;
#606 = CARTESIAN_POINT ( 'NONE',  ( 38.00000000000000000, 9.499999999999998200, -5.406432453421210400E-016 ) ) ;
#607 = EDGE_CURVE ( 'NONE', #311, #93, #157, .T. ) ;
#608 = PRODUCT_DEFINITION ( '未知', '', #850, #394 ) ;
#609 = CARTESIAN_POINT ( 'NONE',  ( 49.99999999999999300, 9.499999999999998200, -5.282698174228776200 ) ) ;
#610 = CARTESIAN_POINT ( 'NONE',  ( 19.00000000000000400, 8.572527594031473200E-016, -7.000000000000000000 ) ) ;
#611 = CARTESIAN_POINT ( 'NONE',  ( 38.00000000000000000, 0.0000000000000000000, 0.0000000000000000000 ) ) ;
#612 = EDGE_LOOP ( 'NONE', ( #759, #636, #875, #715, #212 ) ) ;
#613 = DIRECTION ( 'NONE',  ( 0.0000000000000000000, 0.0000000000000000000, 1.000000000000000000 ) ) ;
#614 = ORIENTED_EDGE ( 'NONE', *, *, #719, .F. ) ;
#615 = CARTESIAN_POINT ( 'NONE',  ( 0.0000000000000000000, 0.0000000000000000000, 0.0000000000000000000 ) ) ;
#616 = CARTESIAN_POINT ( 'NONE',  ( 37.00000000000000000, 7.654042494670957600E-016, 6.250000000000000000 ) ) ;
#617 = PERSON_AND_ORGANIZATION ( #760, #376 ) ;
#618 = AXIS2_PLACEMENT_3D ( 'NONE', #464, #291, #44 ) ;
#619 = DIRECTION ( 'NONE',  ( -0.7071067811865577900, 8.659560562354808400E-017, -0.7071067811865373600 ) ) ;
#620 = DIRECTION ( 'NONE',  ( 0.0000000000000000000, -1.000000000000000000, 8.480678358307785000E-017 ) ) ;
#621 = DIRECTION ( 'NONE',  ( 0.0000000000000000000, 0.0000000000000000000, 1.000000000000000000 ) ) ;
#622 = ADVANCED_FACE ( 'NONE', ( #227 ), #518, .T. ) ;
#623 = CARTESIAN_POINT ( 'NONE',  ( 38.00000000000000000, 7.654042494670957600E-016, 6.250000000000000000 ) ) ;
#624 = DIRECTION ( 'NONE',  ( 1.000000000000000000, 0.0000000000000000000, 0.0000000000000000000 ) ) ;
#625 = DIRECTION ( 'NONE',  ( 0.0000000000000000000, 0.0000000000000000000, -1.000000000000000000 ) ) ;
#626 = VERTEX_POINT ( 'NONE', #610 ) ;
#627 = VERTEX_POINT ( 'NONE', #548 ) ;
#628 = ORIENTED_EDGE ( 'NONE', *, *, #634, .T. ) ;
#629 =( NAMED_UNIT ( * ) SI_UNIT ( $, .STERADIAN. ) SOLID_ANGLE_UNIT ( ) );
#630 = ADVANCED_FACE ( 'NONE', ( #807 ), #127, .T. ) ;
#631 = DIRECTION ( 'NONE',  ( 1.000000000000000000, 0.0000000000000000000, 0.0000000000000000000 ) ) ;
#632 = DIRECTION ( 'NONE',  ( 0.0000000000000000000, 1.000000000000000000, -1.224646799147353200E-016 ) ) ;
#633 = DIRECTION ( 'NONE',  ( 0.0000000000000000000, 1.000000000000000000, 0.0000000000000000000 ) ) ;
#634 = EDGE_CURVE ( 'NONE', #138, #126, #819, .T. ) ;
#635 = ORIENTED_EDGE ( 'NONE', *, *, #645, .F. ) ;
#636 = ORIENTED_EDGE ( 'NONE', *, *, #145, .T. ) ;
#637 = EDGE_CURVE ( 'NONE', #356, #536, #507, .T. ) ;
#638 = AXIS2_PLACEMENT_3D ( 'NONE', #921, #427, #703 ) ;
#639 = CIRCLE ( 'NONE', #448, 10.86999999999999900 ) ;
#640 = CARTESIAN_POINT ( 'NONE',  ( 50.13427462818810200, 9.500000000000000000, 5.282698174228773500 ) ) ;
#641 = ORIENTED_EDGE ( 'NONE', *, *, #877, .T. ) ;
#642 = AXIS2_PLACEMENT_3D ( 'NONE', #677, #831, #804 ) ;
#643 = TOROIDAL_SURFACE ( 'NONE', #370, 4.519999999999999600, 6.349999999999999600 ) ;
#644 = VERTEX_POINT ( 'NONE', #926 ) ;
#645 = EDGE_CURVE ( 'NONE', #763, #943, #912, .T. ) ;
#646 = ORIENTED_EDGE ( 'NONE', *, *, #586, .F. ) ;
#647 = CARTESIAN_POINT ( 'NONE',  ( 38.30000000000003300, 9.499999999999998200, -5.282698174228776200 ) ) ;
#648 = CARTESIAN_POINT ( 'NONE',  ( 38.30000000000003300, -9.500000000000000000, 5.282698174228772600 ) ) ;
#649 = DIRECTION ( 'NONE',  ( -1.000000000000000000, -0.0000000000000000000, -0.0000000000000000000 ) ) ;
#650 = EDGE_CURVE ( 'NONE', #225, #311, #525, .T. ) ;
#651 = APPROVAL ( #175, '未指定' ) ;
#652 = ORIENTED_EDGE ( 'NONE', *, *, #849, .T. ) ;
#653 = CIRCLE ( 'NONE', #642, 7.000000000000000900 ) ;
#654 = DIRECTION ( 'NONE',  ( 0.0000000000000000000, 0.0000000000000000000, -1.000000000000000000 ) ) ;
#655 = UNCERTAINTY_MEASURE_WITH_UNIT (LENGTH_MEASURE( 1.000000000000000100E-005 ), #108, 'distance_accuracy_value', 'NONE');
#656 = AXIS2_PLACEMENT_3D ( 'NONE', #888, #765, #728 ) ;
#657 = DIRECTION ( 'NONE',  ( -1.000000000000000000, -0.0000000000000000000, -0.0000000000000000000 ) ) ;
#658 = ORIENTED_EDGE ( 'NONE', *, *, #796, .F. ) ;
#659 = EDGE_LOOP ( 'NONE', ( #229, #520, #158, #716 ) ) ;
#660 = CARTESIAN_POINT ( 'NONE',  ( 0.0000000000000000000, 0.0000000000000000000, 10.86999999999999900 ) ) ;
#661 = ORIENTED_EDGE ( 'NONE', *, *, #95, .T. ) ;
#662 = CARTESIAN_POINT ( 'NONE',  ( 51.89812833442222500, -10.86983426278836100, 0.5218494289595289000 ) ) ;
#663 = CARTESIAN_POINT ( 'NONE',  ( 38.00000000000000000, 0.0000000000000000000, 0.0000000000000000000 ) ) ;
#664 = CARTESIAN_POINT ( 'NONE',  ( 51.07672811356905400, -9.812052899321047400, -4.678833160655585700 ) ) ;
#665 = APPROVAL_ROLE ( '' ) ;
#666 = APPROVAL_DATE_TIME ( #487, #651 ) ;
#667 = EDGE_LOOP ( 'NONE', ( #835, #903 ) ) ;
#668 = CARTESIAN_POINT ( 'NONE',  ( 38.00000000000000000, 0.0000000000000000000, 0.0000000000000000000 ) ) ;
#669 = VERTEX_POINT ( 'NONE', #680 ) ;
#670 = EDGE_CURVE ( 'NONE', #723, #943, #41, .T. ) ;
#671 = PLANE ( 'NONE',  #733 ) ;
#672 = PERSON_AND_ORGANIZATION ( #760, #376 ) ;
#673 = EDGE_CURVE ( 'NONE', #823, #763, #907, .T. ) ;
#674 = AXIS2_PLACEMENT_3D ( 'NONE', #78, #535, #479 ) ;
#675 = CARTESIAN_POINT ( 'NONE',  ( 20.75000000000005300, 6.429395695523604200E-016, -5.250000000000000000 ) ) ;
#676 = DIRECTION ( 'NONE',  ( -1.000000000000000000, -0.0000000000000000000, -0.0000000000000000000 ) ) ;
#677 = CARTESIAN_POINT ( 'NONE',  ( 1.499999999999993800, 0.0000000000000000000, 0.0000000000000000000 ) ) ;
#678 = CARTESIAN_POINT ( 'NONE',  ( 86.67000000000000200, 8.958662199524575100E-016, 0.0000000000000000000 ) ) ;
#679 = ADVANCED_FACE ( 'NONE', ( #113 ), #446, .T. ) ;
#680 = CARTESIAN_POINT ( 'NONE',  ( 38.30000000000003300, 1.331191070673172900E-015, -10.86999999999999900 ) ) ;
#681 = VECTOR ( 'NONE', #103, 1000.000000000000000 ) ;
#682 = EDGE_LOOP ( 'NONE', ( #658, #314, #413, #780 ) ) ;
#683 = EDGE_LOOP ( 'NONE', ( #150, #301, #628, #202 ) ) ;
#684 = ORIENTED_EDGE ( 'NONE', *, *, #869, .F. ) ;
#685 = DIRECTION ( 'NONE',  ( 0.0000000000000000000, 0.0000000000000000000, -1.000000000000000000 ) ) ;
#686 = CARTESIAN_POINT ( 'NONE',  ( 20.45710678118660300, 7.680307016233461200E-016, -5.542893218813441400 ) ) ;
#687 = AXIS2_PLACEMENT_3D ( 'NONE', #170, #458, #621 ) ;
#688 = EDGE_CURVE ( 'NONE', #723, #669, #205, .T. ) ;
#689 = APPLICATION_CONTEXT ( 'configuration controlled 3d designs of mechanical parts and assemblies' ) ;
#690 = ADVANCED_FACE ( 'NONE', ( #305 ), #261, .T. ) ;
#691 = AXIS2_PLACEMENT_3D ( 'NONE', #887, #856, #829 ) ;
#692 = CARTESIAN_POINT ( 'NONE',  ( 0.0000000000000000000, -9.500000000000000000, 5.282698174228772600 ) ) ;
#693 = CIRCLE ( 'NONE', #705, 10.56999999999995400 ) ;
#694 = CONICAL_SURFACE ( 'NONE', #257, 4.830620504905348300, 0.4363323129985827700 ) ;
#695 = CARTESIAN_POINT ( 'NONE',  ( 50.26429012668479900, -9.513586132600572400, 5.258434591737106700 ) ) ;
#696 = ORIENTED_EDGE ( 'NONE', *, *, #670, .T. ) ;
#697 = EDGE_LOOP ( 'NONE', ( #431, #434, #330, #944, #866 ) ) ;
#698 = B_SPLINE_CURVE_WITH_KNOTS ( 'NONE', 3,
 ( #439, #817, #742, #704 ),
 .UNSPECIFIED., .F., .F.,
 ( 4, 4 ),
 ( 0.0000000000000000000, 0.0007146168103740568700 ),
 .UNSPECIFIED. ) ;
#699 = CARTESIAN_POINT ( 'NONE',  ( 0.0000000000000000000, 0.0000000000000000000, 0.0000000000000000000 ) ) ;
#700 = CIRCLE ( 'NONE', #778, 5.250000000000000000 ) ;
#701 = EDGE_CURVE ( 'NONE', #813, #534, #583, .T. ) ;
#702 = CC_DESIGN_APPROVAL ( #651, ( #608 ) ) ;
#703 = DIRECTION ( 'NONE',  ( 0.0000000000000000000, 0.0000000000000000000, -1.000000000000000000 ) ) ;
#704 = CARTESIAN_POINT ( 'NONE',  ( 38.30000000000003300, 9.499999999999998200, 5.282698174228774400 ) ) ;
#705 = AXIS2_PLACEMENT_3D ( 'NONE', #668, #397, #892 ) ;
#706 = CONICAL_SURFACE ( 'NONE', #803, 5.500000000000017800, 0.7853981633974447300 ) ;
#707 = ORIENTED_EDGE ( 'NONE', *, *, #781, .T. ) ;
#708 = ORIENTED_EDGE ( 'NONE', *, *, #877, .F. ) ;
#709 = CARTESIAN_POINT ( 'NONE',  ( 38.19586036039802200, -9.500000000000000000, -5.068414138847725100 ) ) ;
#710 = CARTESIAN_POINT ( 'NONE',  ( 49.99999999999999300, 9.499999999999998200, 5.282698174228774400 ) ) ;
#711 = CALENDAR_DATE ( 2025, 10, 3 ) ;
#712 = CARTESIAN_POINT ( 'NONE',  ( 0.0000000000000000000, 0.0000000000000000000, 0.0000000000000000000 ) ) ;
#713 = FACE_OUTER_BOUND ( 'NONE', #736, .T. ) ;
#714 = CIRCLE ( 'NONE', #306, 10.86999999999999900 ) ;
#715 = ORIENTED_EDGE ( 'NONE', *, *, #769, .F. ) ;
#716 = ORIENTED_EDGE ( 'NONE', *, *, #920, .F. ) ;
#717 = CARTESIAN_POINT ( 'NONE',  ( 20.45710678118660300, 0.0000000000000000000, 0.0000000000000000000 ) ) ;
#718 = EDGE_CURVE ( 'NONE', #327, #644, #396, .T. ) ;
#719 = EDGE_CURVE ( 'NONE', #627, #137, #179, .T. ) ;
#720 = AXIS2_PLACEMENT_3D ( 'NONE', #592, #931, #106 ) ;
#721 = DIRECTION ( 'NONE',  ( 0.0000000000000000000, 1.000000000000000000, -1.272101753746167500E-016 ) ) ;
#722 = ORIENTED_EDGE ( 'NONE', *, *, #50, .T. ) ;
#723 = VERTEX_POINT ( 'NONE', #14 ) ;
#724 = CARTESIAN_POINT ( 'NONE',  ( 0.0000000000000000000, -9.500000000000000000, -5.282698174228770900 ) ) ;
#725 = CARTESIAN_POINT ( 'NONE',  ( 88.92255533507794500, 5.915803939227905800E-016, -4.830620504905348300 ) ) ;
#726 = PERSON_AND_ORGANIZATION_ROLE ( 'creator' ) ;
#727 = AXIS2_PLACEMENT_3D ( 'NONE', #332, #840, #481 ) ;
#728 = DIRECTION ( 'NONE',  ( 0.0000000000000000000, 0.0000000000000000000, -1.000000000000000000 ) ) ;
#729 = EDGE_CURVE ( 'NONE', #225, #935, #639, .T. ) ;
#730 = DIRECTION ( 'NONE',  ( 0.0000000000000000000, 0.0000000000000000000, 1.000000000000000000 ) ) ;
#731 = LINE ( 'NONE', #605, #771 ) ;
#732 = FACE_OUTER_BOUND ( 'NONE', #400, .T. ) ;
#733 = AXIS2_PLACEMENT_3D ( 'NONE', #131, #631, #204 ) ;
#734 = ORIENTED_EDGE ( 'NONE', *, *, #328, .F. ) ;
#735 = CARTESIAN_POINT ( 'NONE',  ( 50.91678550563344200, -9.720108660085992700, -4.866965120118109700 ) ) ;
#736 = EDGE_LOOP ( 'NONE', ( #73, #228 ) ) ;
#737 = CC_DESIGN_SECURITY_CLASSIFICATION ( #156, ( #850 ) ) ;
#738 = DIRECTION ( 'NONE',  ( 0.0000000000000000000, -8.881784197001252300E-016, -1.000000000000000000 ) ) ;
#739 = PLANE ( 'NONE',  #587 ) ;
#740 = EDGE_CURVE ( 'NONE', #511, #214, #165, .T. ) ;
#741 = CC_DESIGN_PERSON_AND_ORGANIZATION_ASSIGNMENT ( #438, #726, ( #608 ) ) ;
#742 = CARTESIAN_POINT ( 'NONE',  ( 38.19586036039802200, 9.500000000000000000, 5.068414138847728600 ) ) ;
#743 = DIRECTION ( 'NONE',  ( 0.0000000000000000000, 1.000000000000000000, -1.224646799147353200E-016 ) ) ;
#744 = CARTESIAN_POINT ( 'NONE',  ( 37.00000000000000000, 0.0000000000000000000, 0.0000000000000000000 ) ) ;
#745 = VERTEX_POINT ( 'NONE', #482 ) ;
#746 = CARTESIAN_POINT ( 'NONE',  ( 50.62298165087320700, -9.596371672048931600, -5.106255956203690400 ) ) ;
#747 = DIRECTION ( 'NONE',  ( 0.0000000000000000000, 0.0000000000000000000, -1.000000000000000000 ) ) ;
#748 = DIRECTION ( 'NONE',  ( 0.0000000000000000000, -1.000000000000000000, 0.0000000000000000000 ) ) ;
#749 = CYLINDRICAL_SURFACE ( 'NONE', #687, 10.86999999999999900 ) ;
#750 = AXIS2_PLACEMENT_3D ( 'NONE', #598, #879, #243 ) ;
#751 = VERTEX_POINT ( 'NONE', #542 ) ;
#752 = DIRECTION ( 'NONE',  ( 0.0000000000000000000, 0.0000000000000000000, -1.000000000000000000 ) ) ;
#753 = DIRECTION ( 'NONE',  ( -1.000000000000000000, -0.0000000000000000000, -0.0000000000000000000 ) ) ;
#754 = B_SPLINE_CURVE_WITH_KNOTS ( 'NONE', 3,
 ( #102, #298, #695, #69, #470, #459, #316, #808, #387, #878, #453, #1, #528, #596, #662, #320, #814, #160, #590, #388, #881, #5, #601, #89, #529, #172, #664, #735, #322, #746, #395, #884, #9, #533 ),
 .UNSPECIFIED., .F., .F.,
 ( 4, 2, 2, 2, 2, 2, 2, 2, 2, 2, 2, 2, 2, 2, 2, 2, 4 ),
 ( -0.007496241055281049500, -0.007107473180576063200, -0.006718705305871076900, -0.005941169556461119900, -0.005163633807051162800, -0.004386098057641207500, -0.002831026558821296000, -0.001275955060001383700, -0.0004984193105914283900, 0.0002791164388185286500, 0.001834187937638440100, 0.002611723687048397200, 0.003389259436458354200, 0.003778027311163336200, 0.004166795185868318200, 0.004555563060573301900, 0.004944330935278282200 ),
 .UNSPECIFIED. ) ;
#755 = DIRECTION ( 'NONE',  ( 1.000000000000000000, 0.0000000000000000000, 0.0000000000000000000 ) ) ;
#756 = CARTESIAN_POINT ( 'NONE',  ( 38.30000000000003300, 9.499999999999998200, -5.282698174228776200 ) ) ;
#757 = CYLINDRICAL_SURFACE ( 'NONE', #750, 2.000000000000000000 ) ;
#758 = DIRECTION ( 'NONE',  ( 0.0000000000000000000, 0.0000000000000000000, -1.000000000000000000 ) ) ;
#759 = ORIENTED_EDGE ( 'NONE', *, *, #378, .T. ) ;
#760 = PERSON ( '未指定', '未指定', '未指定', ('未指定'), ('未指定'), ('未指定') ) ;
#761 = ADVANCED_FACE ( 'NONE', ( #467 ), #277, .F. ) ;
#762 = ORIENTED_EDGE ( 'NONE', *, *, #930, .T. ) ;
#763 = VERTEX_POINT ( 'NONE', #391 ) ;
#764 = APPLICATION_PROTOCOL_DEFINITION ( 'international standard', 'config_control_design', 1994, #689 ) ;
#765 = DIRECTION ( 'NONE',  ( 1.000000000000000000, 0.0000000000000000000, 0.0000000000000000000 ) ) ;
#766 = AXIS2_PLACEMENT_3D ( 'NONE', #360, #348, #758 ) ;
#767 = ADVANCED_FACE ( 'NONE', ( #602 ), #749, .T. ) ;
#768 = DIRECTION ( 'NONE',  ( -0.0000000000000000000, 0.0000000000000000000, -1.000000000000000000 ) ) ;
#769 = EDGE_CURVE ( 'NONE', #137, #536, #215, .T. ) ;
#770 = DIRECTION ( 'NONE',  ( 0.0000000000000000000, -1.224646799147353500E-016, 1.000000000000000000 ) ) ;
#771 = VECTOR ( 'NONE', #182, 1000.000000000000000 ) ;
#772 = DIRECTION ( 'NONE',  ( -1.000000000000000000, -0.0000000000000000000, -0.0000000000000000000 ) ) ;
#773 = ORIENTED_EDGE ( 'NONE', *, *, #565, .F. ) ;
#774 = EDGE_CURVE ( 'NONE', #236, #126, #653, .T. ) ;
#775 = AXIS2_PLACEMENT_3D ( 'NONE', #436, #924, #861 ) ;
#776 = ORIENTED_EDGE ( 'NONE', *, *, #87, .F. ) ;
#777 = LOCAL_TIME ( 8, 20, 3.000000000000000000, #32 ) ;
#778 = AXIS2_PLACEMENT_3D ( 'NONE', #876, #194, #521 ) ;
#779 = FACE_OUTER_BOUND ( 'NONE', #683, .T. ) ;
#780 = ORIENTED_EDGE ( 'NONE', *, *, #774, .T. ) ;
#781 = EDGE_CURVE ( 'NONE', #947, #390, #456, .T. ) ;
#782 = CARTESIAN_POINT ( 'NONE',  ( 51.87222622480224000, 10.79544952151095800, 1.297475829088770000 ) ) ;
#783 = ORIENTED_EDGE ( 'NONE', *, *, #289, .F. ) ;
#784 = ORIENTED_EDGE ( 'NONE', *, *, #328, .T. ) ;
#785 = DIRECTION ( 'NONE',  ( 0.0000000000000000000, 0.0000000000000000000, 1.000000000000000000 ) ) ;
#786 = ORIENTED_EDGE ( 'NONE', *, *, #894, .T. ) ;
#787 = PRODUCT_DEFINITION_SHAPE ( 'NONE', 'NONE',  #608 ) ;
#788 = AXIS2_PLACEMENT_3D ( 'NONE', #125, #567, #28 ) ;
#789 = DIRECTION ( 'NONE',  ( -1.000000000000000000, -0.0000000000000000000, -0.0000000000000000000 ) ) ;
#790 = LOCAL_TIME ( 8, 20, 3.000000000000000000, #88 ) ;
#791 = PRODUCT_RELATED_PRODUCT_CATEGORY ( 'detail', '', ( #272 ) ) ;
#792 = CARTESIAN_POINT ( 'NONE',  ( 20.75000000000005300, 0.0000000000000000000, 0.0000000000000000000 ) ) ;
#793 = PERSON_AND_ORGANIZATION_ROLE ( 'creator' ) ;
#794 = CARTESIAN_POINT ( 'NONE',  ( 49.99999999999999300, -9.500000000000000000, 5.282698174228772600 ) ) ;
#795 = VECTOR ( 'NONE', #619, 999.9999999999998900 ) ;
#796 = EDGE_CURVE ( 'NONE', #626, #126, #860, .T. ) ;
#797 = CC_DESIGN_DATE_AND_TIME_ASSIGNMENT ( #146, #313, ( #608 ) ) ;
#798 = ORIENTED_EDGE ( 'NONE', *, *, #688, .T. ) ;
#799 = ORIENTED_EDGE ( 'NONE', *, *, #512, .F. ) ;
#800 = CARTESIAN_POINT ( 'NONE',  ( 51.88228468665344200, 10.82369195132135300, 1.035669958112086500 ) ) ;
#801 = ORIENTED_EDGE ( 'NONE', *, *, #130, .T. ) ;
#802 = CONICAL_SURFACE ( 'NONE', #816, 5.250000000000000000, 0.7853981633974339600 ) ;
#803 = AXIS2_PLACEMENT_3D ( 'NONE', #820, #624, #461 ) ;
#804 = DIRECTION ( 'NONE',  ( 0.0000000000000000000, 0.0000000000000000000, -1.000000000000000000 ) ) ;
#805 = CARTESIAN_POINT ( 'NONE',  ( 51.89821057110425100, 10.87008204080125200, 0.2557290714766999900 ) ) ;
#806 = APPROVAL_STATUS ( 'not_yet_approved' ) ;
#807 = FACE_OUTER_BOUND ( 'NONE', #365, .T. ) ;
#808 = CARTESIAN_POINT ( 'NONE',  ( 51.33391727309230400, -10.00156709458710600, 4.263647846134030100 ) ) ;
#809 = EDGE_LOOP ( 'NONE', ( #824, #522, #696, #635, #39 ) ) ;
#810 = VECTOR ( 'NONE', #63, 1000.000000000000000 ) ;
#811 = ORIENTED_EDGE ( 'NONE', *, *, #872, .F. ) ;
#812 = CARTESIAN_POINT ( 'NONE',  ( 37.00000000000000000, 0.0000000000000000000, 0.0000000000000000000 ) ) ;
#813 = VERTEX_POINT ( 'NONE', #344 ) ;
#814 = CARTESIAN_POINT ( 'NONE',  ( 51.89524353121117200, -10.86090675506642700, -0.5153874047617611500 ) ) ;
#815 = CARTESIAN_POINT ( 'NONE',  ( 38.00000000000000000, 9.499999999999998200, 4.634101854728601900 ) ) ;
#816 = AXIS2_PLACEMENT_3D ( 'NONE', #447, #950, #450 ) ;
#817 = CARTESIAN_POINT ( 'NONE',  ( 38.09566499370113500, 9.499999999999998200, 4.852305730068377600 ) ) ;
#818 = DIRECTION ( 'NONE',  ( 0.0000000000000000000, 0.0000000000000000000, -1.000000000000000000 ) ) ;
#819 = LINE ( 'NONE', #136, #449 ) ;
#820 = CARTESIAN_POINT ( 'NONE',  ( 0.0000000000000000000, 0.0000000000000000000, 0.0000000000000000000 ) ) ;
#821 = EDGE_CURVE ( 'NONE', #126, #236, #21, .T. ) ;
#822 = CARTESIAN_POINT ( 'NONE',  ( 0.0000000000000000000, 6.429395695523604200E-016, -5.250000000000000000 ) ) ;
#823 = VERTEX_POINT ( 'NONE', #201 ) ;
#824 = ORIENTED_EDGE ( 'NONE', *, *, #23, .F. ) ;
#825 = CARTESIAN_POINT ( 'NONE',  ( 20.45710678118660300, 0.0000000000000000000, 0.0000000000000000000 ) ) ;
#826 = DIRECTION ( 'NONE',  ( 0.0000000000000000000, 0.0000000000000000000, -1.000000000000000000 ) ) ;
#827 = EDGE_CURVE ( 'NONE', #751, #214, #700, .T. ) ;
#828 = DIRECTION ( 'NONE',  ( -0.0000000000000000000, 0.0000000000000000000, -1.000000000000000000 ) ) ;
#829 = DIRECTION ( 'NONE',  ( 0.0000000000000000000, 0.0000000000000000000, 1.000000000000000000 ) ) ;
#830 = DIRECTION ( 'NONE',  ( 1.000000000000000000, 0.0000000000000000000, 0.0000000000000000000 ) ) ;
#831 = DIRECTION ( 'NONE',  ( 1.000000000000000000, 0.0000000000000000000, 0.0000000000000000000 ) ) ;
#832 = LINE ( 'NONE', #725, #462 ) ;
#833 = EDGE_LOOP ( 'NONE', ( #17, #784, #925, #722, #684, #589, #293, #159 ) ) ;
#834 = CARTESIAN_POINT ( 'NONE',  ( 88.92255533507794500, 9.249558239823663800E-016, -4.830620504905348300 ) ) ;
#835 = ORIENTED_EDGE ( 'NONE', *, *, #595, .T. ) ;
#836 = AXIS2_PLACEMENT_3D ( 'NONE', #663, #530, #738 ) ;
#837 = ORIENTED_EDGE ( 'NONE', *, *, #670, .F. ) ;
#838 = EDGE_CURVE ( 'NONE', #873, #723, #140, .T. ) ;
#839 = ADVANCED_FACE ( 'NONE', ( #948 ), #938, .T. ) ;
#840 = DIRECTION ( 'NONE',  ( 1.000000000000000000, 0.0000000000000000000, 0.0000000000000000000 ) ) ;
#841 = CARTESIAN_POINT ( 'NONE',  ( 38.00000000000000000, 9.499999999999998200, -4.634101854728603700 ) ) ;
#842 = CARTESIAN_POINT ( 'NONE',  ( 51.58311002429779500, 10.27224640075826800, -3.563856913661215000 ) ) ;
#843 = CARTESIAN_POINT ( 'NONE',  ( 86.67000000000000200, 8.958662199524575100E-016, 0.0000000000000000000 ) ) ;
#844 = ADVANCED_FACE ( 'NONE', ( #851 ), #802, .T. ) ;
#845 = CIRCLE ( 'NONE', #855, 6.349999999999999600 ) ;
#846 = LOCAL_TIME ( 8, 20, 3.000000000000000000, #252 ) ;
#847 = VERTEX_POINT ( 'NONE', #834 ) ;
#848 = CARTESIAN_POINT ( 'NONE',  ( 0.0000000000000000000, 0.0000000000000000000, 0.0000000000000000000 ) ) ;
#849 = EDGE_CURVE ( 'NONE', #237, #511, #514, .T. ) ;
#850 = PRODUCT_DEFINITION_FORMATION_WITH_SPECIFIED_SOURCE ( '任何', '', #272, .NOT_KNOWN. ) ;
#851 = FACE_OUTER_BOUND ( 'NONE', #659, .T. ) ;
#852 = PERSON_AND_ORGANIZATION ( #760, #376 ) ;
#853 = DIRECTION ( 'NONE',  ( 1.000000000000000000, 0.0000000000000000000, 0.0000000000000000000 ) ) ;
#854 = CARTESIAN_POINT ( 'NONE',  ( 21.16421356237314200, 0.0000000000000000000, 5.250000000000000000 ) ) ;
#855 = AXIS2_PLACEMENT_3D ( 'NONE', #259, #743, #334 ) ;
#856 = DIRECTION ( 'NONE',  ( -1.000000000000000000, -0.0000000000000000000, -0.0000000000000000000 ) ) ;
#857 = ORIENTED_EDGE ( 'NONE', *, *, #500, .F. ) ;
#858 = ORIENTED_EDGE ( 'NONE', *, *, #930, .F. ) ;
#859 = ORIENTED_EDGE ( 'NONE', *, *, #289, .T. ) ;
#860 = LINE ( 'NONE', #8, #331 ) ;
#861 = DIRECTION ( 'NONE',  ( 0.0000000000000000000, 0.0000000000000000000, -1.000000000000000000 ) ) ;
#862 = CARTESIAN_POINT ( 'NONE',  ( 50.62324862862286100, 9.596491233724304200, -5.106023356587776600 ) ) ;
#863 = AXIS2_PLACEMENT_3D ( 'NONE', #911, #657, #30 ) ;
#864 = FACE_OUTER_BOUND ( 'NONE', #454, .T. ) ;
#865 = CIRCLE ( 'NONE', #398, 4.830620504905348300 ) ;
#866 = ORIENTED_EDGE ( 'NONE', *, *, #581, .F. ) ;
#867 = VERTEX_POINT ( 'NONE', #116 ) ;
#868 = LINE ( 'NONE', #692, #919 ) ;
#869 = EDGE_CURVE ( 'NONE', #247, #823, #868, .T. ) ;
#870 = CARTESIAN_POINT ( 'NONE',  ( 1.499999999999993800, 0.0000000000000000000, 7.000000000000000900 ) ) ;
#871 = CARTESIAN_POINT ( 'NONE',  ( 38.00000000000000000, 0.0000000000000000000, 0.0000000000000000000 ) ) ;
#872 = EDGE_CURVE ( 'NONE', #867, #49, #317, .T. ) ;
#873 = VERTEX_POINT ( 'NONE', #841 ) ;
#874 = CARTESIAN_POINT ( 'NONE',  ( 51.89812833442221800, 10.86983426278835900, -0.5218494289595272400 ) ) ;
#875 = ORIENTED_EDGE ( 'NONE', *, *, #637, .T. ) ;
#876 = CARTESIAN_POINT ( 'NONE',  ( 37.00000000000000000, 0.0000000000000000000, 0.0000000000000000000 ) ) ;
#877 = EDGE_CURVE ( 'NONE', #751, #390, #303, .T. ) ;
#878 = CARTESIAN_POINT ( 'NONE',  ( 51.58311002429781000, -10.27224640075826800, 3.563856913661215500 ) ) ;
#879 = DIRECTION ( 'NONE',  ( 0.0000000000000000000, 1.272101753746167500E-016, 1.000000000000000000 ) ) ;
#880 = EDGE_CURVE ( 'NONE', #273, #669, #315, .T. ) ;
#881 = CARTESIAN_POINT ( 'NONE',  ( 51.77992481562547100, -10.57207600683511500, -2.578566978212883100 ) ) ;
#882 = APPLICATION_PROTOCOL_DEFINITION ( 'international standard', 'config_control_design', 1994, #321 ) ;
#883 = FACE_OUTER_BOUND ( 'NONE', #421, .T. ) ;
#884 = CARTESIAN_POINT ( 'NONE',  ( 50.26429750554152100, -9.513601379419357700, -5.258405856957542900 ) ) ;
#885 = LINE ( 'NONE', #253, #173 ) ;
#886 = ORIENTED_EDGE ( 'NONE', *, *, #556, .T. ) ;
#887 = CARTESIAN_POINT ( 'NONE',  ( 88.92255533507794500, 0.0000000000000000000, 0.0000000000000000000 ) ) ;
#888 = CARTESIAN_POINT ( 'NONE',  ( 74.56330310448127800, 0.0000000000000000000, 0.0000000000000000000 ) ) ;
#889 = EDGE_LOOP ( 'NONE', ( #708, #915, #786, #886 ) ) ;
#890 = CARTESIAN_POINT ( 'NONE',  ( 19.00000000000000400, 0.0000000000000000000, 7.000000000000000000 ) ) ;
#891 = CARTESIAN_POINT ( 'NONE',  ( 38.30000000000003300, 0.0000000000000000000, 0.0000000000000000000 ) ) ;
#892 = DIRECTION ( 'NONE',  ( 0.0000000000000000000, 8.881784197001252300E-016, -1.000000000000000000 ) ) ;
#893 = PLANE ( 'NONE',  #232 ) ;
#894 = EDGE_CURVE ( 'NONE', #214, #49, #152, .T. ) ;
#895 = APPROVAL ( #806, '未指定' ) ;
#896 = CARTESIAN_POINT ( 'NONE',  ( 38.09566499370112800, 9.499999999999998200, -4.852305730068386500 ) ) ;
#897 = DIRECTION ( 'NONE',  ( -1.000000000000000000, -0.0000000000000000000, -0.0000000000000000000 ) ) ;
#898 = DIRECTION ( 'NONE',  ( 0.0000000000000000000, 1.000000000000000000, 0.0000000000000000000 ) ) ;
#899 = VERTEX_POINT ( 'NONE', #815 ) ;
#900 = AXIS2_PLACEMENT_3D ( 'NONE', #615, #265, #747 ) ;
#901 = EDGE_LOOP ( 'NONE', ( #858, #923, #176, #614 ) ) ;
#902 = DIRECTION ( 'NONE',  ( 1.000000000000000000, 0.0000000000000000000, 0.0000000000000000000 ) ) ;
#903 = ORIENTED_EDGE ( 'NONE', *, *, #189, .T. ) ;
#904 = ADVANCED_FACE ( 'NONE', ( #523 ), #66, .T. ) ;
#905 = DIRECTION ( 'NONE',  ( 0.0000000000000000000, 0.0000000000000000000, 1.000000000000000000 ) ) ;
#906 = DIRECTION ( 'NONE',  ( -0.0000000000000000000, 0.0000000000000000000, 1.000000000000000000 ) ) ;
#907 = B_SPLINE_CURVE_WITH_KNOTS ( 'NONE', 3,
 ( #648, #574, #929, #226 ),
 .UNSPECIFIED., .F., .F.,
 ( 4, 4 ),
 ( 0.0000000000000000000, 0.0007146168103740608800 ),
 .UNSPECIFIED. ) ;
#908 = DIRECTION ( 'NONE',  ( 0.0000000000000000000, 0.0000000000000000000, -1.000000000000000000 ) ) ;
#909 = ADVANCED_FACE ( 'NONE', ( #393 ), #524, .F. ) ;
#910 = CARTESIAN_POINT ( 'NONE',  ( 21.16421356237314200, 6.429395695523604200E-016, -5.250000000000000000 ) ) ;
#911 = CARTESIAN_POINT ( 'NONE',  ( 0.0000000000000000000, 0.0000000000000000000, 0.0000000000000000000 ) ) ;
#912 = LINE ( 'NONE', #428, #141 ) ;
#913 = LINE ( 'NONE', #246, #326 ) ;
#914 = ADVANCED_FACE ( 'NONE', ( #424 ), #893, .F. ) ;
#915 = ORIENTED_EDGE ( 'NONE', *, *, #827, .T. ) ;
#916 = AXIS2_PLACEMENT_3D ( 'NONE', #557, #748, #908 ) ;
#917 = EDGE_LOOP ( 'NONE', ( #477, #373, #588, #6 ) ) ;
#918 = CARTESIAN_POINT ( 'NONE',  ( 49.99999999999999300, 9.499999999999998200, 5.282698174228774400 ) ) ;
#919 = VECTOR ( 'NONE', #478, 1000.000000000000000 ) ;
#920 = EDGE_CURVE ( 'NONE', #867, #135, #7, .T. ) ;
#921 = CARTESIAN_POINT ( 'NONE',  ( 37.00000000000000000, 0.0000000000000000000, 0.0000000000000000000 ) ) ;
#922 = EDGE_CURVE ( 'NONE', #258, #873, #110, .T. ) ;
#923 = ORIENTED_EDGE ( 'NONE', *, *, #701, .T. ) ;
#924 = DIRECTION ( 'NONE',  ( -1.000000000000000000, -0.0000000000000000000, -0.0000000000000000000 ) ) ;
#925 = ORIENTED_EDGE ( 'NONE', *, *, #13, .T. ) ;
#926 = CARTESIAN_POINT ( 'NONE',  ( 49.99999999999999300, -9.500000000000000000, -5.282698174228770900 ) ) ;
#927 = CARTESIAN_POINT ( 'NONE',  ( 77.24692906653473300, 0.0000000000000000000, 0.0000000000000000000 ) ) ;
#928 = CARTESIAN_POINT ( 'NONE',  ( 77.24692906653473300, 0.0000000000000000000, 0.0000000000000000000 ) ) ;
#929 = CARTESIAN_POINT ( 'NONE',  ( 38.09566499370112100, -9.500000000000000000, 4.852305730068377600 ) ) ;
#930 = EDGE_CURVE ( 'NONE', #813, #627, #552, .T. ) ;
#931 = DIRECTION ( 'NONE',  ( 1.000000000000000000, 0.0000000000000000000, 0.0000000000000000000 ) ) ;
#932 = CYLINDRICAL_SURFACE ( 'NONE', #516, 5.250000000000000000 ) ;
#933 = VECTOR ( 'NONE', #263, 1000.000000000000000 ) ;
#934 = CIRCLE ( 'NONE', #775, 5.500000000000017800 ) ;
#935 = VERTEX_POINT ( 'NONE', #115 ) ;
#936 = ORIENTED_EDGE ( 'NONE', *, *, #37, .F. ) ;
#937 = DIRECTION ( 'NONE',  ( -1.000000000000000000, -0.0000000000000000000, -0.0000000000000000000 ) ) ;
#938 = CYLINDRICAL_SURFACE ( 'NONE', #863, 7.000000000000000900 ) ;
#939 = CARTESIAN_POINT ( 'NONE',  ( 37.00000000000000000, 0.0000000000000000000, 5.250000000000000000 ) ) ;
#940 = EDGE_CURVE ( 'NONE', #135, #626, #68, .T. ) ;
#941 = CC_DESIGN_APPROVAL ( #895, ( #850 ) ) ;
#942 = DIRECTION ( 'NONE',  ( 0.0000000000000000000, 0.0000000000000000000, 1.000000000000000000 ) ) ;
#943 = VERTEX_POINT ( 'NONE', #42 ) ;
#944 = ORIENTED_EDGE ( 'NONE', *, *, #463, .F. ) ;
#945 = VECTOR ( 'NONE', #297, 1000.000000000000000 ) ;
#946 = DIRECTION ( 'NONE',  ( 1.000000000000000000, 0.0000000000000000000, 0.0000000000000000000 ) ) ;
#947 = VERTEX_POINT ( 'NONE', #686 ) ;
#948 = FACE_OUTER_BOUND ( 'NONE', #83, .T. ) ;
#949 = AXIS2_PLACEMENT_3D ( 'NONE', #26, #191, #404 ) ;
#950 = DIRECTION ( 'NONE',  ( -1.000000000000000000, -0.0000000000000000000, -0.0000000000000000000 ) ) ;
ENDSEC;
END-ISO-10303-21;
