ISO-10303-21;
HEADER;
FILE_DESCRIPTION (( 'STEP AP203' ),
    '1' );
FILE_NAME ('法兰.STEP',
    '2025-03-10T00:29:00',
    ( 'Users' ),
    ( 'Microsoft' ),
    'SwSTEP 2.0',
    'SolidWorks 2016',
    '' );
FILE_SCHEMA (( 'CONFIG_CONTROL_DESIGN' ));
ENDSEC;

DATA;
#1 = FACE_OUTER_BOUND ( 'NONE', #162, .T. ) ;
#2 = CARTESIAN_POINT ( 'NONE',  ( -11.00000000000000000, -6.928203230275509700, 30.50000000000000000 ) ) ;
#3 = ORIENTED_EDGE ( 'NONE', *, *, #73, .F. ) ;
#4 = CARTESIAN_POINT ( 'NONE',  ( 0.0000000000000000000, 0.0000000000000000000, 1.500000000000000000 ) ) ;
#5 = AXIS2_PLACEMENT_3D ( 'NONE', #88, #56, #59 ) ;
#6 = DIRECTION ( 'NONE',  ( -2.503857664561931400E-016, -1.000000000000000000, 0.0000000000000000000 ) ) ;
#7 = CIRCLE ( 'NONE', #212, 20.00000000000000000 ) ;
#8 = DIRECTION ( 'NONE',  ( -0.0000000000000000000, -0.0000000000000000000, -1.000000000000000000 ) ) ;
#9 = PERSON_AND_ORGANIZATION ( #195, #386 ) ;
#10 = FACE_OUTER_BOUND ( 'NONE', #179, .T. ) ;
#11 = EDGE_LOOP ( 'NONE', ( #3, #46, #128, #155 ) ) ;
#12 = DIRECTION ( 'NONE',  ( 1.000000000000000000, 0.0000000000000000000, 0.0000000000000000000 ) ) ;
#13 = DIRECTION ( 'NONE',  ( 1.000000000000000000, 0.0000000000000000000, 0.0000000000000000000 ) ) ;
#14 = CLOSED_SHELL ( 'NONE', ( #390, #61, #146, #25, #358, #178, #260, #234, #89, #294, #121 ) ) ;
#15 = CC_DESIGN_PERSON_AND_ORGANIZATION_ASSIGNMENT ( #29, #380, ( #350 ) ) ;
#16 = AXIS2_PLACEMENT_3D ( 'NONE', #304, #8, #339 ) ;
#17 = ORIENTED_EDGE ( 'NONE', *, *, #131, .T. ) ;
#18 = VERTEX_POINT ( 'NONE', #28 ) ;
#19 = AXIS2_PLACEMENT_3D ( 'NONE', #163, #344, #134 ) ;
#20 = VECTOR ( 'NONE', #100, 1000.000000000000000 ) ;
#21 = VERTEX_POINT ( 'NONE', #23 ) ;
#22 = AXIS2_PLACEMENT_3D ( 'NONE', #32, #210, #393 ) ;
#23 = CARTESIAN_POINT ( 'NONE',  ( -51.50000000000000000, 0.0000000000000000000, 0.0000000000000000000 ) ) ;
#24 = VECTOR ( 'NONE', #215, 1000.000000000000000 ) ;
#25 = ADVANCED_FACE ( 'NONE', ( #385, #298 ), #113, .T. ) ;
#26 = EDGE_CURVE ( 'NONE', #173, #196, #75, .T. ) ;
#27 = LINE ( 'NONE', #371, #392 ) ;
#28 = CARTESIAN_POINT ( 'NONE',  ( -14.38461538461538100, 9.059958070360286400, 1.500000000000008200 ) ) ;
#29 = PERSON_AND_ORGANIZATION ( #195, #386 ) ;
#30 = DIRECTION ( 'NONE',  ( 1.000000000000000000, 0.0000000000000000000, -0.0000000000000000000 ) ) ;
#31 = LOCAL_TIME ( 8, 29, 0.0000000000000000000, #360 ) ;
#32 = CARTESIAN_POINT ( 'NONE',  ( 0.0000000000000000000, 0.0000000000000000000, 0.0000000000000000000 ) ) ;
#33 = CARTESIAN_POINT ( 'NONE',  ( -14.99999999999999600, 6.928203230275515900, 30.50000000000000000 ) ) ;
#34 = ORIENTED_EDGE ( 'NONE', *, *, #26, .F. ) ;
#35 = CARTESIAN_POINT ( 'NONE',  ( -14.99999999999999600, 6.928203230275515900, 30.50000000000000000 ) ) ;
#36 = CC_DESIGN_PERSON_AND_ORGANIZATION_ASSIGNMENT ( #262, #345, ( #350 ) ) ;
#37 = DIRECTION ( 'NONE',  ( -1.000000000000000000, 0.0000000000000000000, 0.0000000000000000000 ) ) ;
#38 = DIRECTION ( 'NONE',  ( -1.000000000000000000, 0.0000000000000000000, 0.0000000000000000000 ) ) ;
#39 = LINE ( 'NONE', #273, #261 ) ;
#40 = DIRECTION ( 'NONE',  ( 1.000000000000000000, 0.0000000000000000000, 0.0000000000000000000 ) ) ;
#41 = DATE_AND_TIME ( #124, #31 ) ;
#42 = CARTESIAN_POINT ( 'NONE',  ( -14.99999999999999600, 6.928203230275515900, 30.50000000000000000 ) ) ;
#43 = PERSON_AND_ORGANIZATION_ROLE ( 'classification_officer' ) ;
#44 = UNCERTAINTY_MEASURE_WITH_UNIT (LENGTH_MEASURE( 1.000000000000000100E-005 ), #79, 'distance_accuracy_value', 'NONE');
#45 = DATE_TIME_ROLE ( 'classification_date' ) ;
#46 = ORIENTED_EDGE ( 'NONE', *, *, #191, .T. ) ;
#47 = MANIFOLD_SOLID_BREP ( '切除-拉伸2', #14 ) ;
#48 = ORIENTED_EDGE ( 'NONE', *, *, #131, .F. ) ;
#49 =( GEOMETRIC_REPRESENTATION_CONTEXT ( 3 ) GLOBAL_UNCERTAINTY_ASSIGNED_CONTEXT ( ( #44 ) ) GLOBAL_UNIT_ASSIGNED_CONTEXT ( ( #79, #312, #348 ) ) REPRESENTATION_CONTEXT ( 'NONE', 'WORKASPACE' ) );
#50 = CIRCLE ( 'NONE', #119, 51.50000000000000000 ) ;
#51 = EDGE_CURVE ( 'NONE', #18, #347, #150, .T. ) ;
#52 = LINE ( 'NONE', #213, #133 ) ;
#53 = EDGE_LOOP ( 'NONE', ( #280, #85, #72, #211 ) ) ;
#54 = CYLINDRICAL_SURFACE ( 'NONE', #372, 20.00000000000000000 ) ;
#55 = ORIENTED_EDGE ( 'NONE', *, *, #104, .F. ) ;
#56 = DIRECTION ( 'NONE',  ( 0.0000000000000000000, 0.0000000000000000000, -1.000000000000000000 ) ) ;
#57 = CARTESIAN_POINT ( 'NONE',  ( 0.0000000000000000000, 0.0000000000000000000, 30.50000000000000000 ) ) ;
#58 = SECURITY_CLASSIFICATION ( '', '', #317 ) ;
#59 = DIRECTION ( 'NONE',  ( -1.000000000000000000, 0.0000000000000000000, 0.0000000000000000000 ) ) ;
#60 = AXIS2_PLACEMENT_3D ( 'NONE', #188, #370, #158 ) ;
#61 = ADVANCED_FACE ( 'NONE', ( #230 ), #236, .T. ) ;
#62 = CARTESIAN_POINT ( 'NONE',  ( 0.0000000000000000000, 0.0000000000000000000, 0.0000000000000000000 ) ) ;
#63 = APPROVAL_PERSON_ORGANIZATION ( #143, #259, #137 ) ;
#64 = CARTESIAN_POINT ( 'NONE',  ( 20.00000000000000000, 2.449293598294706500E-015, 1.500000000000000000 ) ) ;
#65 = APPROVAL_PERSON_ORGANIZATION ( #209, #366, #397 ) ;
#66 = ORIENTED_EDGE ( 'NONE', *, *, #287, .F. ) ;
#67 = DATE_AND_TIME ( #136, #97 ) ;
#68 = ORIENTED_EDGE ( 'NONE', *, *, #207, .F. ) ;
#69 = CARTESIAN_POINT ( 'NONE',  ( 51.50000000000000000, 6.306931015608867200E-015, 0.0000000000000000000 ) ) ;
#70 = AXIS2_PLACEMENT_3D ( 'NONE', #271, #301, #94 ) ;
#71 = DIRECTION ( 'NONE',  ( 0.0000000000000000000, 0.0000000000000000000, -1.000000000000000000 ) ) ;
#72 = ORIENTED_EDGE ( 'NONE', *, *, #338, .T. ) ;
#73 = EDGE_CURVE ( 'NONE', #239, #98, #83, .T. ) ;
#74 = CARTESIAN_POINT ( 'NONE',  ( -11.00000000000000000, -6.928203230275509700, 30.50000000000000000 ) ) ;
#75 = CIRCLE ( 'NONE', #5, 17.00000000000000000 ) ;
#76 = ORIENTED_EDGE ( 'NONE', *, *, #84, .F. ) ;
#77 = DIRECTION ( 'NONE',  ( 0.0000000000000000000, 0.0000000000000000000, -1.000000000000000000 ) ) ;
#78 = DIRECTION ( 'NONE',  ( -0.0000000000000000000, -0.0000000000000000000, -1.000000000000000000 ) ) ;
#79 =( LENGTH_UNIT ( ) NAMED_UNIT ( * ) SI_UNIT ( .MILLI., .METRE. ) );
#80 = CC_DESIGN_PERSON_AND_ORGANIZATION_ASSIGNMENT ( #112, #43, ( #58 ) ) ;
#81 = ORIENTED_EDGE ( 'NONE', *, *, #51, .T. ) ;
#82 = FACE_OUTER_BOUND ( 'NONE', #383, .T. ) ;
#83 = CIRCLE ( 'NONE', #379, 51.50000000000000000 ) ;
#84 = EDGE_CURVE ( 'NONE', #347, #153, #308, .T. ) ;
#85 = ORIENTED_EDGE ( 'NONE', *, *, #315, .F. ) ;
#86 = ORIENTED_EDGE ( 'NONE', *, *, #73, .T. ) ;
#87 = VECTOR ( 'NONE', #361, 1000.000000000000000 ) ;
#88 = CARTESIAN_POINT ( 'NONE',  ( 0.0000000000000000000, 0.0000000000000000000, 30.50000000000000000 ) ) ;
#89 = ADVANCED_FACE ( 'NONE', ( #160 ), #170, .F. ) ;
#90 = CARTESIAN_POINT ( 'NONE',  ( -20.00000000000000000, 0.0000000000000000000, 0.0000000000000000000 ) ) ;
#91 = VECTOR ( 'NONE', #374, 1000.000000000000000 ) ;
#92 = CARTESIAN_POINT ( 'NONE',  ( -14.38461538461538100, -9.059958070360288200, 1.500000000000008200 ) ) ;
#93 = DIRECTION ( 'NONE',  ( -1.000000000000000000, 0.0000000000000000000, 0.0000000000000000000 ) ) ;
#94 = DIRECTION ( 'NONE',  ( -1.000000000000000000, 0.0000000000000000000, -0.0000000000000000000 ) ) ;
#95 = ORIENTED_EDGE ( 'NONE', *, *, #384, .F. ) ;
#96 = CARTESIAN_POINT ( 'NONE',  ( 51.50000000000000000, 6.306931015608867200E-015, 30.50000000000000000 ) ) ;
#97 = LOCAL_TIME ( 8, 29, 0.0000000000000000000, #376 ) ;
#98 = VERTEX_POINT ( 'NONE', #278 ) ;
#99 = CC_DESIGN_DATE_AND_TIME_ASSIGNMENT ( #109, #45, ( #58 ) ) ;
#100 = DIRECTION ( 'NONE',  ( -0.0000000000000000000, -0.0000000000000000000, -1.000000000000000000 ) ) ;
#101 = CARTESIAN_POINT ( 'NONE',  ( 51.50000000000000000, 6.306931015608867200E-015, 30.50000000000000000 ) ) ;
#102 = VECTOR ( 'NONE', #242, 1000.000000000000000 ) ;
#103 = PLANE ( 'NONE',  #152 ) ;
#104 = EDGE_CURVE ( 'NONE', #196, #347, #318, .T. ) ;
#105 = DIRECTION ( 'NONE',  ( 0.0000000000000000000, 0.0000000000000000000, 1.000000000000000000 ) ) ;
#106 = ORIENTED_EDGE ( 'NONE', *, *, #247, .T. ) ;
#107 = APPROVAL_STATUS ( 'not_yet_approved' ) ;
#108 = FACE_BOUND ( 'NONE', #240, .T. ) ;
#109 = DATE_AND_TIME ( #334, #266 ) ;
#110 = ORIENTED_EDGE ( 'NONE', *, *, #217, .F. ) ;
#111 = EDGE_CURVE ( 'NONE', #354, #314, #7, .T. ) ;
#112 = PERSON_AND_ORGANIZATION ( #195, #386 ) ;
#113 = PLANE ( 'NONE',  #140 ) ;
#114 = ORIENTED_EDGE ( 'NONE', *, *, #111, .T. ) ;
#115 = ORIENTED_EDGE ( 'NONE', *, *, #199, .T. ) ;
#116 = AXIS2_PLACEMENT_3D ( 'NONE', #151, #268, #330 ) ;
#117 = APPROVAL ( #224, '未指定' ) ;
#118 = EDGE_CURVE ( 'NONE', #196, #181, #340, .T. ) ;
#119 = AXIS2_PLACEMENT_3D ( 'NONE', #154, #335, #129 ) ;
#120 = CYLINDRICAL_SURFACE ( 'NONE', #368, 20.00000000000000000 ) ;
#121 = ADVANCED_FACE ( 'NONE', ( #223 ), #103, .F. ) ;
#122 = CARTESIAN_POINT ( 'NONE',  ( 0.0000000000000000000, 0.0000000000000000000, 1.500000000000000000 ) ) ;
#123 = CARTESIAN_POINT ( 'NONE',  ( -20.00000000000000000, 0.0000000000000000000, 1.500000000000000000 ) ) ;
#124 = CALENDAR_DATE ( 2025, 10, 3 ) ;
#125 = CARTESIAN_POINT ( 'NONE',  ( -20.00000000000000000, 0.0000000000000000000, 1.500000000000000000 ) ) ;
#126 = CARTESIAN_POINT ( 'NONE',  ( -11.00000000000000000, 6.928203230275515000, 30.50000000000000000 ) ) ;
#127 = ORIENTED_EDGE ( 'NONE', *, *, #104, .T. ) ;
#128 = ORIENTED_EDGE ( 'NONE', *, *, #229, .T. ) ;
#129 = DIRECTION ( 'NONE',  ( 1.000000000000000000, 0.0000000000000000000, 0.0000000000000000000 ) ) ;
#130 = CARTESIAN_POINT ( 'NONE',  ( -14.38461538461538100, 9.059958070360286400, 30.50000000000000000 ) ) ;
#131 = EDGE_CURVE ( 'NONE', #153, #281, #27, .T. ) ;
#132 = DIRECTION ( 'NONE',  ( 0.0000000000000000000, 0.0000000000000000000, -1.000000000000000000 ) ) ;
#133 = VECTOR ( 'NONE', #395, 1000.000000000000000 ) ;
#134 = DIRECTION ( 'NONE',  ( -1.000000000000000000, 0.0000000000000000000, 0.0000000000000000000 ) ) ;
#135 = EDGE_LOOP ( 'NONE', ( #95, #276 ) ) ;
#136 = CALENDAR_DATE ( 2025, 10, 3 ) ;
#137 = APPROVAL_ROLE ( '' ) ;
#138 = ORIENTED_EDGE ( 'NONE', *, *, #229, .F. ) ;
#139 = CC_DESIGN_APPROVAL ( #117, ( #58 ) ) ;
#140 = AXIS2_PLACEMENT_3D ( 'NONE', #355, #352, #144 ) ;
#141 = LINE ( 'NONE', #35, #24 ) ;
#142 = ORIENTED_EDGE ( 'NONE', *, *, #274, .F. ) ;
#143 = PERSON_AND_ORGANIZATION ( #195, #386 ) ;
#144 = DIRECTION ( 'NONE',  ( 1.000000000000000000, 0.0000000000000000000, -0.0000000000000000000 ) ) ;
#145 = ORIENTED_EDGE ( 'NONE', *, *, #293, .F. ) ;
#146 = ADVANCED_FACE ( 'NONE', ( #216 ), #275, .T. ) ;
#147 = COORDINATED_UNIVERSAL_TIME_OFFSET ( 8, 0, .AHEAD. ) ;
#148 = DIRECTION ( 'NONE',  ( 0.0000000000000000000, 0.0000000000000000000, 1.000000000000000000 ) ) ;
#149 = COORDINATED_UNIVERSAL_TIME_OFFSET ( 8, 0, .AHEAD. ) ;
#150 = CIRCLE ( 'NONE', #357, 17.00000000000000000 ) ;
#151 = CARTESIAN_POINT ( 'NONE',  ( -11.00000000000000000, 6.928203230275515000, 30.50000000000000000 ) ) ;
#152 = AXIS2_PLACEMENT_3D ( 'NONE', #42, #221, #6 ) ;
#153 = VERTEX_POINT ( 'NONE', #277 ) ;
#154 = CARTESIAN_POINT ( 'NONE',  ( 0.0000000000000000000, 0.0000000000000000000, 0.0000000000000000000 ) ) ;
#155 = ORIENTED_EDGE ( 'NONE', *, *, #338, .F. ) ;
#156 = CC_DESIGN_SECURITY_CLASSIFICATION ( #58, ( #350 ) ) ;
#157 = APPROVAL_DATE_TIME ( #231, #366 ) ;
#158 = DIRECTION ( 'NONE',  ( -1.000000000000000000, 0.0000000000000000000, 0.0000000000000000000 ) ) ;
#159 = CIRCLE ( 'NONE', #220, 20.00000000000000000 ) ;
#160 = FACE_OUTER_BOUND ( 'NONE', #198, .T. ) ;
#161 = SHAPE_DEFINITION_REPRESENTATION ( #394, #327 ) ;
#162 = EDGE_LOOP ( 'NONE', ( #362, #218, #270, #127 ) ) ;
#163 = CARTESIAN_POINT ( 'NONE',  ( -11.00000000000000000, -6.928203230275509700, 1.500000000000001300 ) ) ;
#164 = PERSON_AND_ORGANIZATION_ROLE ( 'design_owner' ) ;
#165 = DIRECTION ( 'NONE',  ( 0.0000000000000000000, 0.0000000000000000000, -1.000000000000000000 ) ) ;
#166 = EDGE_LOOP ( 'NONE', ( #66, #138 ) ) ;
#167 = ORIENTED_EDGE ( 'NONE', *, *, #274, .T. ) ;
#168 = CYLINDRICAL_SURFACE ( 'NONE', #256, 4.000000000000001800 ) ;
#169 = EDGE_CURVE ( 'NONE', #314, #354, #369, .T. ) ;
#170 = CYLINDRICAL_SURFACE ( 'NONE', #331, 17.00000000000000000 ) ;
#171 = EDGE_LOOP ( 'NONE', ( #246, #290, #167, #183 ) ) ;
#172 = ORIENTED_EDGE ( 'NONE', *, *, #169, .T. ) ;
#173 = VERTEX_POINT ( 'NONE', #219 ) ;
#174 = APPROVAL_DATE_TIME ( #252, #117 ) ;
#175 = PRODUCT_RELATED_PRODUCT_CATEGORY ( 'detail', '', ( #381 ) ) ;
#176 = AXIS2_PLACEMENT_3D ( 'NONE', #382, #105, #13 ) ;
#177 = FACE_OUTER_BOUND ( 'NONE', #292, .T. ) ;
#178 = ADVANCED_FACE ( 'NONE', ( #325 ), #120, .F. ) ;
#179 = EDGE_LOOP ( 'NONE', ( #251, #320, #106, #377 ) ) ;
#180 = DIRECTION ( 'NONE',  ( -0.0000000000000000000, -0.0000000000000000000, -1.000000000000000000 ) ) ;
#181 = VERTEX_POINT ( 'NONE', #303 ) ;
#182 = CARTESIAN_POINT ( 'NONE',  ( -14.99999999999999600, 6.928203230275515900, 1.500000000000008200 ) ) ;
#183 = ORIENTED_EDGE ( 'NONE', *, *, #26, .T. ) ;
#184 = DIRECTION ( 'NONE',  ( 0.0000000000000000000, 0.0000000000000000000, -1.000000000000000000 ) ) ;
#185 = DIRECTION ( 'NONE',  ( -0.0000000000000000000, -0.0000000000000000000, -1.000000000000000000 ) ) ;
#186 = CARTESIAN_POINT ( 'NONE',  ( 20.00000000000000000, 2.449293598294706500E-015, 0.0000000000000000000 ) ) ;
#187 = LINE ( 'NONE', #33, #87 ) ;
#188 = CARTESIAN_POINT ( 'NONE',  ( 0.0000000000000000000, 0.0000000000000000000, 1.500000000000000000 ) ) ;
#189 = ORIENTED_EDGE ( 'NONE', *, *, #263, .F. ) ;
#190 = DIRECTION ( 'NONE',  ( 2.503857664561931400E-016, 1.000000000000000000, 0.0000000000000000000 ) ) ;
#191 = EDGE_CURVE ( 'NONE', #239, #267, #200, .T. ) ;
#192 = DIRECTION ( 'NONE',  ( -1.000000000000000000, 0.0000000000000000000, 0.0000000000000000000 ) ) ;
#193 = AXIS2_PLACEMENT_3D ( 'NONE', #74, #245, #40 ) ;
#194 = APPROVAL_ROLE ( '' ) ;
#195 = PERSON ( '未指定', '未指定', '未指定', ('未指定'), ('未指定'), ('未指定') ) ;
#196 = VERTEX_POINT ( 'NONE', #244 ) ;
#197 = FACE_OUTER_BOUND ( 'NONE', #166, .T. ) ;
#198 = EDGE_LOOP ( 'NONE', ( #81, #55, #34, #202 ) ) ;
#199 = EDGE_CURVE ( 'NONE', #181, #153, #39, .T. ) ;
#200 = LINE ( 'NONE', #101, #102 ) ;
#201 = AXIS2_PLACEMENT_3D ( 'NONE', #272, #71, #241 ) ;
#202 = ORIENTED_EDGE ( 'NONE', *, *, #217, .T. ) ;
#203 = LOCAL_TIME ( 8, 29, 0.0000000000000000000, #149 ) ;
#204 = DIRECTION ( 'NONE',  ( -0.0000000000000000000, -0.0000000000000000000, -1.000000000000000000 ) ) ;
#205 = EDGE_LOOP ( 'NONE', ( #300, #86 ) ) ;
#206 = VERTEX_POINT ( 'NONE', #186 ) ;
#207 = EDGE_CURVE ( 'NONE', #281, #18, #351, .T. ) ;
#208 = CARTESIAN_POINT ( 'NONE',  ( -51.50000000000000000, 0.0000000000000000000, 30.50000000000000000 ) ) ;
#209 = PERSON_AND_ORGANIZATION ( #195, #386 ) ;
#210 = DIRECTION ( 'NONE',  ( 0.0000000000000000000, 0.0000000000000000000, 1.000000000000000000 ) ) ;
#211 = ORIENTED_EDGE ( 'NONE', *, *, #287, .T. ) ;
#212 = AXIS2_PLACEMENT_3D ( 'NONE', #342, #132, #306 ) ;
#213 = CARTESIAN_POINT ( 'NONE',  ( 20.00000000000000000, 2.449293598294706500E-015, 1.500000000000000000 ) ) ;
#214 = EDGE_LOOP ( 'NONE', ( #17, #375, #145, #115 ) ) ;
#215 = DIRECTION ( 'NONE',  ( -0.0000000000000000000, -0.0000000000000000000, -1.000000000000000000 ) ) ;
#216 = FACE_OUTER_BOUND ( 'NONE', #53, .T. ) ;
#217 = EDGE_CURVE ( 'NONE', #173, #18, #285, .T. ) ;
#218 = ORIENTED_EDGE ( 'NONE', *, *, #199, .F. ) ;
#219 = CARTESIAN_POINT ( 'NONE',  ( -14.38461538461538100, 9.059958070360286400, 30.50000000000000000 ) ) ;
#220 = AXIS2_PLACEMENT_3D ( 'NONE', #396, #184, #365 ) ;
#221 = DIRECTION ( 'NONE',  ( -1.000000000000000000, 2.503857664561931400E-016, 0.0000000000000000000 ) ) ;
#222 = LINE ( 'NONE', #125, #286 ) ;
#223 = FACE_OUTER_BOUND ( 'NONE', #214, .T. ) ;
#224 = APPROVAL_STATUS ( 'not_yet_approved' ) ;
#225 = ORIENTED_EDGE ( 'NONE', *, *, #207, .T. ) ;
#226 = APPLICATION_CONTEXT ( 'configuration controlled 3d designs of mechanical parts and assemblies' ) ;
#227 = CC_DESIGN_PERSON_AND_ORGANIZATION_ASSIGNMENT ( #291, #164, ( #381 ) ) ;
#228 = DIRECTION ( 'NONE',  ( -1.000000000000000000, 0.0000000000000000000, 0.0000000000000000000 ) ) ;
#229 = EDGE_CURVE ( 'NONE', #267, #21, #50, .T. ) ;
#230 = FACE_OUTER_BOUND ( 'NONE', #11, .T. ) ;
#231 = DATE_AND_TIME ( #343, #203 ) ;
#232 = DIRECTION ( 'NONE',  ( -1.000000000000000000, 0.0000000000000000000, 0.0000000000000000000 ) ) ;
#233 = AXIS2_PLACEMENT_3D ( 'NONE', #359, #148, #326 ) ;
#234 = ADVANCED_FACE ( 'NONE', ( #1 ), #168, .F. ) ;
#235 = DIRECTION ( 'NONE',  ( 0.0000000000000000000, 0.0000000000000000000, 1.000000000000000000 ) ) ;
#236 = CYLINDRICAL_SURFACE ( 'NONE', #311, 51.50000000000000000 ) ;
#237 = CARTESIAN_POINT ( 'NONE',  ( 0.0000000000000000000, 0.0000000000000000000, 30.50000000000000000 ) ) ;
#238 = PRODUCT_DEFINITION ( '未知', '', #350, #321 ) ;
#239 = VERTEX_POINT ( 'NONE', #96 ) ;
#240 = EDGE_LOOP ( 'NONE', ( #76, #257, #68, #48 ) ) ;
#241 = DIRECTION ( 'NONE',  ( -1.000000000000000000, 0.0000000000000000000, 0.0000000000000000000 ) ) ;
#242 = DIRECTION ( 'NONE',  ( -0.0000000000000000000, -0.0000000000000000000, -1.000000000000000000 ) ) ;
#243 = APPROVAL_PERSON_ORGANIZATION ( #9, #117, #194 ) ;
#244 = CARTESIAN_POINT ( 'NONE',  ( -14.38461538461538100, -9.059958070360288200, 30.50000000000000000 ) ) ;
#245 = DIRECTION ( 'NONE',  ( -0.0000000000000000000, 0.0000000000000000000, -1.000000000000000000 ) ) ;
#246 = ORIENTED_EDGE ( 'NONE', *, *, #118, .T. ) ;
#247 = EDGE_CURVE ( 'NONE', #206, #364, #159, .T. ) ;
#248 = CYLINDRICAL_SURFACE ( 'NONE', #116, 3.999999999999996400 ) ;
#249 = APPROVAL_STATUS ( 'not_yet_approved' ) ;
#250 = CARTESIAN_POINT ( 'NONE',  ( 0.0000000000000000000, 0.0000000000000000000, 1.500000000000001300 ) ) ;
#251 = ORIENTED_EDGE ( 'NONE', *, *, #169, .F. ) ;
#252 = DATE_AND_TIME ( #336, #387 ) ;
#253 = CIRCLE ( 'NONE', #333, 3.999999999999996400 ) ;
#254 = EDGE_CURVE ( 'NONE', #288, #281, #141, .T. ) ;
#255 = AXIS2_PLACEMENT_3D ( 'NONE', #295, #77, #284 ) ;
#256 = AXIS2_PLACEMENT_3D ( 'NONE', #2, #185, #37 ) ;
#257 = ORIENTED_EDGE ( 'NONE', *, *, #51, .F. ) ;
#258 = ORIENTED_EDGE ( 'NONE', *, *, #111, .F. ) ;
#259 = APPROVAL ( #107, '未指定' ) ;
#260 = ADVANCED_FACE ( 'NONE', ( #108, #177 ), #332, .T. ) ;
#261 = VECTOR ( 'NONE', #367, 1000.000000000000000 ) ;
#262 = PERSON_AND_ORGANIZATION ( #195, #386 ) ;
#263 = EDGE_CURVE ( 'NONE', #314, #206, #52, .T. ) ;
#264 = APPROVAL_DATE_TIME ( #41, #259 ) ;
#265 = DIRECTION ( 'NONE',  ( -0.0000000000000000000, -0.0000000000000000000, -1.000000000000000000 ) ) ;
#266 = LOCAL_TIME ( 8, 29, 0.0000000000000000000, #147 ) ;
#267 = VERTEX_POINT ( 'NONE', #69 ) ;
#268 = DIRECTION ( 'NONE',  ( -0.0000000000000000000, -0.0000000000000000000, -1.000000000000000000 ) ) ;
#269 = VECTOR ( 'NONE', #180, 1000.000000000000000 ) ;
#270 = ORIENTED_EDGE ( 'NONE', *, *, #118, .F. ) ;
#271 = CARTESIAN_POINT ( 'NONE',  ( 0.0000000000000000000, 0.0000000000000000000, 1.500000000000000000 ) ) ;
#272 = CARTESIAN_POINT ( 'NONE',  ( -11.00000000000000000, 6.928203230275515000, 1.500000000000001300 ) ) ;
#273 = CARTESIAN_POINT ( 'NONE',  ( -15.00000000000000000, -6.928203230275507900, 30.50000000000000000 ) ) ;
#274 = EDGE_CURVE ( 'NONE', #288, #173, #253, .T. ) ;
#275 = CYLINDRICAL_SURFACE ( 'NONE', #16, 51.50000000000000000 ) ;
#276 = ORIENTED_EDGE ( 'NONE', *, *, #247, .F. ) ;
#277 = CARTESIAN_POINT ( 'NONE',  ( -15.00000000000000000, -6.928203230275507900, 1.500000000000000000 ) ) ;
#278 = CARTESIAN_POINT ( 'NONE',  ( -51.50000000000000000, 0.0000000000000000000, 30.50000000000000000 ) ) ;
#279 = DATE_TIME_ROLE ( 'creation_date' ) ;
#280 = ORIENTED_EDGE ( 'NONE', *, *, #191, .F. ) ;
#281 = VERTEX_POINT ( 'NONE', #182 ) ;
#282 = APPLICATION_PROTOCOL_DEFINITION ( 'international standard', 'config_control_design', 1994, #226 ) ;
#283 = CC_DESIGN_APPROVAL ( #259, ( #238 ) ) ;
#284 = DIRECTION ( 'NONE',  ( -1.000000000000000000, 0.0000000000000000000, 0.0000000000000000000 ) ) ;
#285 = LINE ( 'NONE', #130, #20 ) ;
#286 = VECTOR ( 'NONE', #265, 1000.000000000000000 ) ;
#287 = EDGE_CURVE ( 'NONE', #21, #267, #305, .T. ) ;
#288 = VERTEX_POINT ( 'NONE', #363 ) ;
#289 = PERSON_AND_ORGANIZATION ( #195, #386 ) ;
#290 = ORIENTED_EDGE ( 'NONE', *, *, #293, .T. ) ;
#291 = PERSON_AND_ORGANIZATION ( #195, #386 ) ;
#292 = EDGE_LOOP ( 'NONE', ( #114, #172 ) ) ;
#293 = EDGE_CURVE ( 'NONE', #181, #288, #187, .T. ) ;
#294 = ADVANCED_FACE ( 'NONE', ( #82 ), #248, .F. ) ;
#295 = CARTESIAN_POINT ( 'NONE',  ( 0.0000000000000000000, 0.0000000000000000000, 0.0000000000000000000 ) ) ;
#296 = PLANE ( 'NONE',  #341 ) ;
#297 = DIRECTION ( 'NONE',  ( -1.000000000000000000, 0.0000000000000000000, 0.0000000000000000000 ) ) ;
#298 = FACE_OUTER_BOUND ( 'NONE', #205, .T. ) ;
#299 = DIRECTION ( 'NONE',  ( 0.0000000000000000000, 0.0000000000000000000, -1.000000000000000000 ) ) ;
#300 = ORIENTED_EDGE ( 'NONE', *, *, #315, .T. ) ;
#301 = DIRECTION ( 'NONE',  ( 0.0000000000000000000, 0.0000000000000000000, -1.000000000000000000 ) ) ;
#302 = CC_DESIGN_PERSON_AND_ORGANIZATION_ASSIGNMENT ( #289, #310, ( #238 ) ) ;
#303 = CARTESIAN_POINT ( 'NONE',  ( -15.00000000000000000, -6.928203230275507900, 30.50000000000000000 ) ) ;
#304 = CARTESIAN_POINT ( 'NONE',  ( 0.0000000000000000000, 0.0000000000000000000, 30.50000000000000000 ) ) ;
#305 = CIRCLE ( 'NONE', #22, 51.50000000000000000 ) ;
#306 = DIRECTION ( 'NONE',  ( -1.000000000000000000, 0.0000000000000000000, 0.0000000000000000000 ) ) ;
#307 = EDGE_CURVE ( 'NONE', #354, #364, #222, .T. ) ;
#308 = CIRCLE ( 'NONE', #19, 4.000000000000001800 ) ;
#309 = CARTESIAN_POINT ( 'NONE',  ( -14.38461538461538100, -9.059958070360288200, 30.50000000000000000 ) ) ;
#310 = PERSON_AND_ORGANIZATION_ROLE ( 'creator' ) ;
#311 = AXIS2_PLACEMENT_3D ( 'NONE', #57, #204, #232 ) ;
#312 =( NAMED_UNIT ( * ) PLANE_ANGLE_UNIT ( ) SI_UNIT ( $, .RADIAN. ) );
#313 = APPLICATION_PROTOCOL_DEFINITION ( 'international standard', 'config_control_design', 1994, #378 ) ;
#314 = VERTEX_POINT ( 'NONE', #64 ) ;
#315 = EDGE_CURVE ( 'NONE', #98, #239, #316, .T. ) ;
#316 = CIRCLE ( 'NONE', #233, 51.50000000000000000 ) ;
#317 = SECURITY_CLASSIFICATION_LEVEL ( 'unclassified' ) ;
#318 = LINE ( 'NONE', #309, #91 ) ;
#319 = FACE_BOUND ( 'NONE', #135, .T. ) ;
#320 = ORIENTED_EDGE ( 'NONE', *, *, #263, .T. ) ;
#321 = DESIGN_CONTEXT ( 'detailed design', #378, 'design' ) ;
#322 = CC_DESIGN_DATE_AND_TIME_ASSIGNMENT ( #67, #279, ( #238 ) ) ;
#323 = EDGE_LOOP ( 'NONE', ( #189, #258, #353, #389 ) ) ;
#324 = DIRECTION ( 'NONE',  ( -0.0000000000000000000, -0.0000000000000000000, -1.000000000000000000 ) ) ;
#325 = FACE_OUTER_BOUND ( 'NONE', #323, .T. ) ;
#326 = DIRECTION ( 'NONE',  ( 1.000000000000000000, 0.0000000000000000000, 0.0000000000000000000 ) ) ;
#327 = ADVANCED_BREP_SHAPE_REPRESENTATION ( '法兰', ( #47, #176 ), #49 ) ;
#328 = LINE ( 'NONE', #208, #269 ) ;
#329 = ORIENTED_EDGE ( 'NONE', *, *, #254, .T. ) ;
#330 = DIRECTION ( 'NONE',  ( -1.000000000000000000, 0.0000000000000000000, 0.0000000000000000000 ) ) ;
#331 = AXIS2_PLACEMENT_3D ( 'NONE', #373, #78, #192 ) ;
#332 = PLANE ( 'NONE',  #70 ) ;
#333 = AXIS2_PLACEMENT_3D ( 'NONE', #126, #299, #93 ) ;
#334 = CALENDAR_DATE ( 2025, 10, 3 ) ;
#335 = DIRECTION ( 'NONE',  ( 0.0000000000000000000, 0.0000000000000000000, 1.000000000000000000 ) ) ;
#336 = CALENDAR_DATE ( 2025, 10, 3 ) ;
#337 = DIRECTION ( 'NONE',  ( -0.0000000000000000000, -0.0000000000000000000, -1.000000000000000000 ) ) ;
#338 = EDGE_CURVE ( 'NONE', #98, #21, #328, .T. ) ;
#339 = DIRECTION ( 'NONE',  ( -1.000000000000000000, 0.0000000000000000000, 0.0000000000000000000 ) ) ;
#340 = CIRCLE ( 'NONE', #193, 4.000000000000001800 ) ;
#341 = AXIS2_PLACEMENT_3D ( 'NONE', #62, #235, #30 ) ;
#342 = CARTESIAN_POINT ( 'NONE',  ( 0.0000000000000000000, 0.0000000000000000000, 1.500000000000000000 ) ) ;
#343 = CALENDAR_DATE ( 2025, 10, 3 ) ;
#344 = DIRECTION ( 'NONE',  ( 0.0000000000000000000, 0.0000000000000000000, -1.000000000000000000 ) ) ;
#345 = PERSON_AND_ORGANIZATION_ROLE ( 'design_supplier' ) ;
#346 = MECHANICAL_CONTEXT ( 'NONE', #226, 'mechanical' ) ;
#347 = VERTEX_POINT ( 'NONE', #92 ) ;
#348 =( NAMED_UNIT ( * ) SI_UNIT ( $, .STERADIAN. ) SOLID_ANGLE_UNIT ( ) );
#349 = CIRCLE ( 'NONE', #255, 20.00000000000000000 ) ;
#350 = PRODUCT_DEFINITION_FORMATION_WITH_SPECIFIED_SOURCE ( '任何', '', #381, .NOT_KNOWN. ) ;
#351 = CIRCLE ( 'NONE', #201, 3.999999999999996400 ) ;
#352 = DIRECTION ( 'NONE',  ( 0.0000000000000000000, 0.0000000000000000000, 1.000000000000000000 ) ) ;
#353 = ORIENTED_EDGE ( 'NONE', *, *, #307, .T. ) ;
#354 = VERTEX_POINT ( 'NONE', #123 ) ;
#355 = CARTESIAN_POINT ( 'NONE',  ( 0.0000000000000000000, 0.0000000000000000000, 30.50000000000000000 ) ) ;
#356 = COORDINATED_UNIVERSAL_TIME_OFFSET ( 8, 0, .AHEAD. ) ;
#357 = AXIS2_PLACEMENT_3D ( 'NONE', #250, #165, #228 ) ;
#358 = ADVANCED_FACE ( 'NONE', ( #319, #197 ), #296, .F. ) ;
#359 = CARTESIAN_POINT ( 'NONE',  ( 0.0000000000000000000, 0.0000000000000000000, 30.50000000000000000 ) ) ;
#360 = COORDINATED_UNIVERSAL_TIME_OFFSET ( 8, 0, .AHEAD. ) ;
#361 = DIRECTION ( 'NONE',  ( 2.503857664561931400E-016, 1.000000000000000000, -0.0000000000000000000 ) ) ;
#362 = ORIENTED_EDGE ( 'NONE', *, *, #84, .T. ) ;
#363 = CARTESIAN_POINT ( 'NONE',  ( -14.99999999999999600, 6.928203230275515900, 30.50000000000000000 ) ) ;
#364 = VERTEX_POINT ( 'NONE', #90 ) ;
#365 = DIRECTION ( 'NONE',  ( -1.000000000000000000, 0.0000000000000000000, 0.0000000000000000000 ) ) ;
#366 = APPROVAL ( #249, '未指定' ) ;
#367 = DIRECTION ( 'NONE',  ( -0.0000000000000000000, -0.0000000000000000000, -1.000000000000000000 ) ) ;
#368 = AXIS2_PLACEMENT_3D ( 'NONE', #4, #337, #38 ) ;
#369 = CIRCLE ( 'NONE', #60, 20.00000000000000000 ) ;
#370 = DIRECTION ( 'NONE',  ( 0.0000000000000000000, 0.0000000000000000000, -1.000000000000000000 ) ) ;
#371 = CARTESIAN_POINT ( 'NONE',  ( -14.99999999999999800, 3.755786496842896700E-015, 1.500000000000000000 ) ) ;
#372 = AXIS2_PLACEMENT_3D ( 'NONE', #122, #324, #297 ) ;
#373 = CARTESIAN_POINT ( 'NONE',  ( 0.0000000000000000000, 0.0000000000000000000, 30.50000000000000000 ) ) ;
#374 = DIRECTION ( 'NONE',  ( -0.0000000000000000000, -0.0000000000000000000, -1.000000000000000000 ) ) ;
#375 = ORIENTED_EDGE ( 'NONE', *, *, #254, .F. ) ;
#376 = COORDINATED_UNIVERSAL_TIME_OFFSET ( 8, 0, .AHEAD. ) ;
#377 = ORIENTED_EDGE ( 'NONE', *, *, #307, .F. ) ;
#378 = APPLICATION_CONTEXT ( 'configuration controlled 3d designs of mechanical parts and assemblies' ) ;
#379 = AXIS2_PLACEMENT_3D ( 'NONE', #237, #391, #12 ) ;
#380 = PERSON_AND_ORGANIZATION_ROLE ( 'creator' ) ;
#381 = PRODUCT ( '法兰', '法兰', '', ( #346 ) ) ;
#382 = CARTESIAN_POINT ( 'NONE',  ( 0.0000000000000000000, 0.0000000000000000000, 0.0000000000000000000 ) ) ;
#383 = EDGE_LOOP ( 'NONE', ( #225, #110, #142, #329 ) ) ;
#384 = EDGE_CURVE ( 'NONE', #364, #206, #349, .T. ) ;
#385 = FACE_BOUND ( 'NONE', #171, .T. ) ;
#386 = ORGANIZATION ( '未指定', '未指定', '' ) ;
#387 = LOCAL_TIME ( 8, 29, 0.0000000000000000000, #356 ) ;
#388 = CC_DESIGN_APPROVAL ( #366, ( #350 ) ) ;
#389 = ORIENTED_EDGE ( 'NONE', *, *, #384, .T. ) ;
#390 = ADVANCED_FACE ( 'NONE', ( #10 ), #54, .F. ) ;
#391 = DIRECTION ( 'NONE',  ( 0.0000000000000000000, 0.0000000000000000000, 1.000000000000000000 ) ) ;
#392 = VECTOR ( 'NONE', #190, 1000.000000000000000 ) ;
#393 = DIRECTION ( 'NONE',  ( 1.000000000000000000, 0.0000000000000000000, 0.0000000000000000000 ) ) ;
#394 = PRODUCT_DEFINITION_SHAPE ( 'NONE', 'NONE',  #238 ) ;
#395 = DIRECTION ( 'NONE',  ( -0.0000000000000000000, -0.0000000000000000000, -1.000000000000000000 ) ) ;
#396 = CARTESIAN_POINT ( 'NONE',  ( 0.0000000000000000000, 0.0000000000000000000, 0.0000000000000000000 ) ) ;
#397 = APPROVAL_ROLE ( '' ) ;
ENDSEC;
END-ISO-10303-21;
