ISO-10303-21;
HEADER;
FILE_DESCRIPTION (( 'STEP AP203' ),
    '1' );
FILE_NAME ('端盖.STEP',
    '2025-03-10T00:24:57',
    ( 'Users' ),
    ( 'Microsoft' ),
    'SwSTEP 2.0',
    'SolidWorks 2016',
    '' );
FILE_SCHEMA (( 'CONFIG_CONTROL_DESIGN' ));
ENDSEC;

DATA;
#1 = EDGE_CURVE ( 'NONE', #346, #120, #440, .T. ) ;
#2 = VERTEX_POINT ( 'NONE', #184 ) ;
#3 = APPROVAL_STATUS ( 'not_yet_approved' ) ;
#4 = ORIENTED_EDGE ( 'NONE', *, *, #402, .F. ) ;
#5 = CYLINDRICAL_SURFACE ( 'NONE', #23, 1.000000000000000000 ) ;
#6 = COORDINATED_UNIVERSAL_TIME_OFFSET ( 8, 0, .AHEAD. ) ;
#7 = CARTESIAN_POINT ( 'NONE',  ( 7.983670542847810700E-016, -6.750000000000004400, 20.00000000000000000 ) ) ;
#8 = ORIENTED_EDGE ( 'NONE', *, *, #505, .T. ) ;
#9 = APPROVAL ( #540, '未指定' ) ;
#10 = CARTESIAN_POINT ( 'NONE',  ( 9.999999999999998200, 6.750000000000000000, 1.000000000000000900 ) ) ;
#11 = ADVANCED_FACE ( 'NONE', ( #200 ), #412, .F. ) ;
#12 = EDGE_CURVE ( 'NONE', #195, #383, #83, .T. ) ;
#13 = DIRECTION ( 'NONE',  ( 0.0000000000000000000, 0.0000000000000000000, 1.000000000000000000 ) ) ;
#14 = FACE_OUTER_BOUND ( 'NONE', #64, .T. ) ;
#15 = ORIENTED_EDGE ( 'NONE', *, *, #459, .T. ) ;
#16 = ORIENTED_EDGE ( 'NONE', *, *, #338, .T. ) ;
#17 = CIRCLE ( 'NONE', #455, 1.000000000000000900 ) ;
#18 = LOCAL_TIME ( 8, 24, 57.00000000000000000, #135 ) ;
#19 = EDGE_CURVE ( 'NONE', #575, #275, #559, .T. ) ;
#20 = ORIENTED_EDGE ( 'NONE', *, *, #555, .T. ) ;
#21 = EDGE_LOOP ( 'NONE', ( #4, #372, #162, #109 ) ) ;
#22 = CARTESIAN_POINT ( 'NONE',  ( 3.843989520630425800E-016, -3.250000000000000900, 20.00000000000000000 ) ) ;
#23 = AXIS2_PLACEMENT_3D ( 'NONE', #520, #160, #432 ) ;
#24 = DIRECTION ( 'NONE',  ( -0.0000000000000000000, -1.000000000000000000, 0.0000000000000000000 ) ) ;
#25 = ORIENTED_EDGE ( 'NONE', *, *, #487, .F. ) ;
#26 = DIRECTION ( 'NONE',  ( 0.0000000000000000000, -1.000000000000000000, -0.0000000000000000000 ) ) ;
#27 = EDGE_CURVE ( 'NONE', #275, #420, #422, .T. ) ;
#28 = VERTEX_POINT ( 'NONE', #496 ) ;
#29 = CARTESIAN_POINT ( 'NONE',  ( -11.00000000000000000, 6.749999999999997300, 39.00000000000000000 ) ) ;
#30 = ORIENTED_EDGE ( 'NONE', *, *, #61, .F. ) ;
#31 = LINE ( 'NONE', #34, #144 ) ;
#32 = CALENDAR_DATE ( 2025, 10, 3 ) ;
#33 = EDGE_CURVE ( 'NONE', #383, #469, #186, .T. ) ;
#34 = CARTESIAN_POINT ( 'NONE',  ( 9.000000000000000000, -6.750000000000000900, 40.00000000000000000 ) ) ;
#35 = DIRECTION ( 'NONE',  ( 0.0000000000000000000, 0.0000000000000000000, 1.000000000000000000 ) ) ;
#36 = CC_DESIGN_APPROVAL ( #9, ( #495 ) ) ;
#37 = DIRECTION ( 'NONE',  ( -0.0000000000000000000, 1.000000000000000000, -0.0000000000000000000 ) ) ;
#38 = EDGE_LOOP ( 'NONE', ( #364, #380, #8, #546 ) ) ;
#39 = DIRECTION ( 'NONE',  ( -0.0000000000000000000, -0.0000000000000000000, -1.000000000000000000 ) ) ;
#40 = ORIENTED_EDGE ( 'NONE', *, *, #33, .T. ) ;
#41 = LINE ( 'NONE', #43, #563 ) ;
#42 = CARTESIAN_POINT ( 'NONE',  ( 9.000000000000000000, -3.250000000000000900, 40.00000000000000000 ) ) ;
#43 = CARTESIAN_POINT ( 'NONE',  ( 11.00000000000000000, -6.750000000000000000, 40.00000000000000000 ) ) ;
#44 = EDGE_LOOP ( 'NONE', ( #532, #347, #208, #400 ) ) ;
#45 = VERTEX_POINT ( 'NONE', #97 ) ;
#46 = FACE_OUTER_BOUND ( 'NONE', #488, .T. ) ;
#47 = PERSON_AND_ORGANIZATION ( #466, #328 ) ;
#48 =( NAMED_UNIT ( * ) SI_UNIT ( $, .STERADIAN. ) SOLID_ANGLE_UNIT ( ) );
#49 = DATE_AND_TIME ( #236, #463 ) ;
#50 = ORIENTED_EDGE ( 'NONE', *, *, #514, .F. ) ;
#51 = PERSON_AND_ORGANIZATION_ROLE ( 'creator' ) ;
#52 = EDGE_CURVE ( 'NONE', #377, #2, #547, .T. ) ;
#53 = DIRECTION ( 'NONE',  ( -1.182766006347823100E-016, 1.000000000000000000, -0.0000000000000000000 ) ) ;
#54 = ADVANCED_FACE ( 'NONE', ( #170 ), #401, .F. ) ;
#55 = CARTESIAN_POINT ( 'NONE',  ( 9.000000000000000000, -3.250000000000000900, 40.00000000000000000 ) ) ;
#56 = LINE ( 'NONE', #137, #152 ) ;
#57 = AXIS2_PLACEMENT_3D ( 'NONE', #472, #75, #122 ) ;
#58 = CARTESIAN_POINT ( 'NONE',  ( -9.999999999999998200, -6.750000000000002700, 39.00000000000000000 ) ) ;
#59 = LINE ( 'NONE', #155, #516 ) ;
#60 = LINE ( 'NONE', #349, #504 ) ;
#61 = EDGE_CURVE ( 'NONE', #346, #403, #509, .T. ) ;
#62 = AXIS2_PLACEMENT_3D ( 'NONE', #300, #348, #81 ) ;
#63 = CC_DESIGN_SECURITY_CLASSIFICATION ( #495, ( #345 ) ) ;
#64 = EDGE_LOOP ( 'NONE', ( #361, #246, #554, #215, #282, #500 ) ) ;
#65 = VECTOR ( 'NONE', #100, 1000.000000000000000 ) ;
#66 = DIRECTION ( 'NONE',  ( -1.000000000000000000, -1.355252715606880500E-016, 0.0000000000000000000 ) ) ;
#67 = ORIENTED_EDGE ( 'NONE', *, *, #419, .T. ) ;
#68 = VECTOR ( 'NONE', #435, 1000.000000000000000 ) ;
#69 = DATE_AND_TIME ( #191, #309 ) ;
#70 = CARTESIAN_POINT ( 'NONE',  ( 11.00000000000000000, -6.750000000000000000, 40.00000000000000000 ) ) ;
#71 = DIRECTION ( 'NONE',  ( -0.0000000000000000000, -0.0000000000000000000, -1.000000000000000000 ) ) ;
#72 = LINE ( 'NONE', #128, #535 ) ;
#73 = CARTESIAN_POINT ( 'NONE',  ( -11.00000000000000000, -6.750000000000002700, 40.00000000000000000 ) ) ;
#74 = DIRECTION ( 'NONE',  ( 0.0000000000000000000, -0.0000000000000000000, 1.000000000000000000 ) ) ;
#75 = DIRECTION ( 'NONE',  ( 4.336808689942017700E-016, -1.000000000000000000, -0.0000000000000000000 ) ) ;
#76 = VERTEX_POINT ( 'NONE', #450 ) ;
#77 = CARTESIAN_POINT ( 'NONE',  ( -9.000000000000000000, -6.750000000000002700, 0.0000000000000000000 ) ) ;
#78 = PLANE ( 'NONE',  #423 ) ;
#79 = EDGE_CURVE ( 'NONE', #76, #108, #530, .T. ) ;
#80 = ORIENTED_EDGE ( 'NONE', *, *, #428, .F. ) ;
#81 = DIRECTION ( 'NONE',  ( 0.0000000000000000000, 0.0000000000000000000, 1.000000000000000000 ) ) ;
#82 = EDGE_LOOP ( 'NONE', ( #321, #101, #118, #239, #421, #382, #557, #25 ) ) ;
#83 = CIRCLE ( 'NONE', #96, 1.000000000000000900 ) ;
#84 = CARTESIAN_POINT ( 'NONE',  ( 9.000000000000000000, -6.750000000000000900, 40.00000000000000000 ) ) ;
#85 = AXIS2_PLACEMENT_3D ( 'NONE', #293, #341, #381 ) ;
#86 = DIRECTION ( 'NONE',  ( -0.0000000000000000000, -1.000000000000000000, -0.0000000000000000000 ) ) ;
#87 = FACE_OUTER_BOUND ( 'NONE', #231, .T. ) ;
#88 = PERSON_AND_ORGANIZATION ( #466, #328 ) ;
#89 = VECTOR ( 'NONE', #352, 1000.000000000000000 ) ;
#90 = VECTOR ( 'NONE', #37, 1000.000000000000000 ) ;
#91 = CARTESIAN_POINT ( 'NONE',  ( 11.00000000000000000, 6.750000000000000000, 40.00000000000000000 ) ) ;
#92 = APPLICATION_PROTOCOL_DEFINITION ( 'international standard', 'config_control_design', 1994, #132 ) ;
#93 = EDGE_CURVE ( 'NONE', #140, #413, #56, .T. ) ;
#94 = APPROVAL_STATUS ( 'not_yet_approved' ) ;
#95 = VERTEX_POINT ( 'NONE', #325 ) ;
#96 = AXIS2_PLACEMENT_3D ( 'NONE', #10, #270, #543 ) ;
#97 = CARTESIAN_POINT ( 'NONE',  ( -9.999999999999998200, -6.750000000000002700, 0.0000000000000000000 ) ) ;
#98 = ADVANCED_FACE ( 'NONE', ( #210 ), #371, .F. ) ;
#99 = MANIFOLD_SOLID_BREP ( '切除-拉伸1', #189 ) ;
#100 = DIRECTION ( 'NONE',  ( -0.0000000000000000000, -1.000000000000000000, -0.0000000000000000000 ) ) ;
#101 = ORIENTED_EDGE ( 'NONE', *, *, #514, .T. ) ;
#102 = ADVANCED_FACE ( 'NONE', ( #414 ), #329, .F. ) ;
#103 = CARTESIAN_POINT ( 'NONE',  ( 6.400000000000001200, -6.750000000000003600, 20.00000000000000000 ) ) ;
#104 = CARTESIAN_POINT ( 'NONE',  ( 6.399999999999999500, 6.750000000000000000, 20.00000000000000000 ) ) ;
#105 = PERSON_AND_ORGANIZATION ( #466, #328 ) ;
#106 = VECTOR ( 'NONE', #299, 1000.000000000000000 ) ;
#107 = CARTESIAN_POINT ( 'NONE',  ( 0.0000000000000000000, 0.0000000000000000000, 0.0000000000000000000 ) ) ;
#108 = VERTEX_POINT ( 'NONE', #415 ) ;
#109 = ORIENTED_EDGE ( 'NONE', *, *, #139, .F. ) ;
#110 = EDGE_CURVE ( 'NONE', #420, #287, #326, .T. ) ;
#111 = ORIENTED_EDGE ( 'NONE', *, *, #187, .F. ) ;
#112 = CARTESIAN_POINT ( 'NONE',  ( -9.999999999999998200, 6.749999999999997300, 1.000000000000000900 ) ) ;
#113 = VECTOR ( 'NONE', #525, 1000.000000000000000 ) ;
#114 = DIRECTION ( 'NONE',  ( -0.0000000000000000000, -0.0000000000000000000, -1.000000000000000000 ) ) ;
#115 = CARTESIAN_POINT ( 'NONE',  ( 11.00000000000000000, 6.750000000000000000, 1.000000000000000900 ) ) ;
#116 = DIRECTION ( 'NONE',  ( -0.0000000000000000000, -0.0000000000000000000, -1.000000000000000000 ) ) ;
#117 = PLANE ( 'NONE',  #479 ) ;
#118 = ORIENTED_EDGE ( 'NONE', *, *, #33, .F. ) ;
#119 = EDGE_CURVE ( 'NONE', #403, #346, #561, .T. ) ;
#120 = VERTEX_POINT ( 'NONE', #104 ) ;
#121 = CIRCLE ( 'NONE', #579, 6.400000000000000400 ) ;
#122 = DIRECTION ( 'NONE',  ( -1.000000000000000000, 0.0000000000000000000, 0.0000000000000000000 ) ) ;
#123 = APPROVAL_PERSON_ORGANIZATION ( #237, #376, #408 ) ;
#124 = AXIS2_PLACEMENT_3D ( 'NONE', #84, #399, #129 ) ;
#125 = AXIS2_PLACEMENT_3D ( 'NONE', #232, #454, #141 ) ;
#126 = ORIENTED_EDGE ( 'NONE', *, *, #244, .F. ) ;
#127 = PLANE ( 'NONE',  #124 ) ;
#128 = CARTESIAN_POINT ( 'NONE',  ( 11.00000000000000000, -6.750000000000000000, 1.000000000000000900 ) ) ;
#129 = DIRECTION ( 'NONE',  ( 0.0000000000000000000, 0.0000000000000000000, -1.000000000000000000 ) ) ;
#130 = CIRCLE ( 'NONE', #57, 1.000000000000000900 ) ;
#131 = ORIENTED_EDGE ( 'NONE', *, *, #166, .T. ) ;
#132 = APPLICATION_CONTEXT ( 'configuration controlled 3d designs of mechanical parts and assemblies' ) ;
#133 = ORIENTED_EDGE ( 'NONE', *, *, #529, .T. ) ;
#134 = LINE ( 'NONE', #73, #355 ) ;
#135 = COORDINATED_UNIVERSAL_TIME_OFFSET ( 8, 0, .AHEAD. ) ;
#136 = PERSON_AND_ORGANIZATION_ROLE ( 'creator' ) ;
#137 = CARTESIAN_POINT ( 'NONE',  ( 11.00000000000000000, -6.750000000000000000, 40.00000000000000000 ) ) ;
#138 = VERTEX_POINT ( 'NONE', #150 ) ;
#139 = EDGE_CURVE ( 'NONE', #506, #138, #426, .T. ) ;
#140 = VERTEX_POINT ( 'NONE', #521 ) ;
#141 = DIRECTION ( 'NONE',  ( 0.0000000000000000000, 0.0000000000000000000, 1.000000000000000000 ) ) ;
#142 = ADVANCED_FACE ( 'NONE', ( #551 ), #117, .T. ) ;
#143 = ORIENTED_EDGE ( 'NONE', *, *, #449, .T. ) ;
#144 = VECTOR ( 'NONE', #566, 1000.000000000000000 ) ;
#145 = LOCAL_TIME ( 8, 24, 57.00000000000000000, #264 ) ;
#146 =( GEOMETRIC_REPRESENTATION_CONTEXT ( 3 ) GLOBAL_UNCERTAINTY_ASSIGNED_CONTEXT ( ( #147 ) ) GLOBAL_UNIT_ASSIGNED_CONTEXT ( ( #583, #314, #48 ) ) REPRESENTATION_CONTEXT ( 'NONE', 'WORKASPACE' ) );
#147 = UNCERTAINTY_MEASURE_WITH_UNIT (LENGTH_MEASURE( 1.000000000000000100E-005 ), #583, 'distance_accuracy_value', 'NONE');
#148 = AXIS2_PLACEMENT_3D ( 'NONE', #226, #494, #179 ) ;
#149 = PRODUCT ( '端盖', '端盖', '', ( #492 ) ) ;
#150 = CARTESIAN_POINT ( 'NONE',  ( 9.999999999999998200, 6.750000000000000000, 40.00000000000000000 ) ) ;
#151 = ORIENTED_EDGE ( 'NONE', *, *, #19, .F. ) ;
#152 = VECTOR ( 'NONE', #177, 1000.000000000000000 ) ;
#153 = DIRECTION ( 'NONE',  ( 1.000000000000000000, -0.0000000000000000000, -0.0000000000000000000 ) ) ;
#154 = DIRECTION ( 'NONE',  ( -1.182766006347823100E-016, 1.000000000000000000, 0.0000000000000000000 ) ) ;
#155 = CARTESIAN_POINT ( 'NONE',  ( 9.000000000000000000, -3.250000000000000900, 0.0000000000000000000 ) ) ;
#156 = ORIENTED_EDGE ( 'NONE', *, *, #93, .T. ) ;
#157 = LINE ( 'NONE', #297, #68 ) ;
#158 = LINE ( 'NONE', #305, #418 ) ;
#159 = ADVANCED_BREP_SHAPE_REPRESENTATION ( '端盖', ( #99, #298 ), #146 ) ;
#160 = DIRECTION ( 'NONE',  ( 0.0000000000000000000, -1.000000000000000000, -0.0000000000000000000 ) ) ;
#161 = DIRECTION ( 'NONE',  ( 0.0000000000000000000, 1.000000000000000000, 0.0000000000000000000 ) ) ;
#162 = ORIENTED_EDGE ( 'NONE', *, *, #439, .F. ) ;
#163 = CARTESIAN_POINT ( 'NONE',  ( -9.000000000000000000, -6.750000000000002700, 40.00000000000000000 ) ) ;
#164 = CARTESIAN_POINT ( 'NONE',  ( 11.00000000000000000, -6.750000000000000000, 1.000000000000000900 ) ) ;
#165 = DIRECTION ( 'NONE',  ( -4.956352788505160300E-016, -1.000000000000000000, 0.0000000000000000000 ) ) ;
#166 = EDGE_CURVE ( 'NONE', #120, #223, #441, .T. ) ;
#167 = CARTESIAN_POINT ( 'NONE',  ( -9.000000000000000000, -6.750000000000002700, 40.00000000000000000 ) ) ;
#168 = CARTESIAN_POINT ( 'NONE',  ( -9.999999999999998200, 6.749999999999997300, 0.0000000000000000000 ) ) ;
#169 = PRODUCT_RELATED_PRODUCT_CATEGORY ( 'detail', '', ( #149 ) ) ;
#170 = FACE_OUTER_BOUND ( 'NONE', #229, .T. ) ;
#171 = CARTESIAN_POINT ( 'NONE',  ( -6.399999999999999500, -6.750000000000005300, 20.00000000000000000 ) ) ;
#172 = CIRCLE ( 'NONE', #271, 1.000000000000000900 ) ;
#173 = VECTOR ( 'NONE', #39, 1000.000000000000000 ) ;
#174 = ORIENTED_EDGE ( 'NONE', *, *, #79, .T. ) ;
#175 = ORIENTED_EDGE ( 'NONE', *, *, #541, .F. ) ;
#176 = DIRECTION ( 'NONE',  ( 1.000000000000000000, 0.0000000000000000000, 0.0000000000000000000 ) ) ;
#177 = DIRECTION ( 'NONE',  ( -0.0000000000000000000, -0.0000000000000000000, -1.000000000000000000 ) ) ;
#178 = SECURITY_CLASSIFICATION_LEVEL ( 'unclassified' ) ;
#179 = DIRECTION ( 'NONE',  ( 1.000000000000000000, 0.0000000000000000000, 0.0000000000000000000 ) ) ;
#180 = AXIS2_PLACEMENT_3D ( 'NONE', #220, #260, #581 ) ;
#181 = AXIS2_PLACEMENT_3D ( 'NONE', #58, #274, #13 ) ;
#182 = CARTESIAN_POINT ( 'NONE',  ( 11.00000000000000000, 6.750000000000000000, 0.0000000000000000000 ) ) ;
#183 = ADVANCED_FACE ( 'NONE', ( #87 ), #291, .T. ) ;
#184 = CARTESIAN_POINT ( 'NONE',  ( -9.999999999999998200, 6.749999999999997300, 40.00000000000000000 ) ) ;
#185 = EDGE_LOOP ( 'NONE', ( #156, #227, #235, #133 ) ) ;
#186 = LINE ( 'NONE', #182, #288 ) ;
#187 = EDGE_CURVE ( 'NONE', #508, #95, #190, .T. ) ;
#188 = DIRECTION ( 'NONE',  ( 0.0000000000000000000, 0.0000000000000000000, -1.000000000000000000 ) ) ;
#189 = CLOSED_SHELL ( 'NONE', ( #54, #102, #544, #269, #451, #497, #410, #11, #320, #142, #98, #323, #183, #272, #365, #230 ) ) ;
#190 = LINE ( 'NONE', #339, #533 ) ;
#191 = CALENDAR_DATE ( 2025, 10, 3 ) ;
#192 = SHAPE_DEFINITION_REPRESENTATION ( #545, #159 ) ;
#193 = DIRECTION ( 'NONE',  ( 1.000000000000000000, 0.0000000000000000000, -0.0000000000000000000 ) ) ;
#194 = LINE ( 'NONE', #77, #330 ) ;
#195 = VERTEX_POINT ( 'NONE', #115 ) ;
#196 = ORIENTED_EDGE ( 'NONE', *, *, #187, .T. ) ;
#197 = EDGE_CURVE ( 'NONE', #285, #275, #59, .T. ) ;
#198 = EDGE_LOOP ( 'NONE', ( #416, #50, #273, #565 ) ) ;
#199 = EDGE_CURVE ( 'NONE', #287, #413, #172, .T. ) ;
#200 = FACE_OUTER_BOUND ( 'NONE', #185, .T. ) ;
#201 = VECTOR ( 'NONE', #457, 1000.000000000000000 ) ;
#202 = DATE_AND_TIME ( #327, #442 ) ;
#203 = CARTESIAN_POINT ( 'NONE',  ( -6.400000000000001200, 6.749999999999998200, 20.00000000000000000 ) ) ;
#204 = LINE ( 'NONE', #91, #89 ) ;
#205 = VECTOR ( 'NONE', #478, 1000.000000000000000 ) ;
#206 = DIRECTION ( 'NONE',  ( -1.182766006347823100E-016, 1.000000000000000000, 0.0000000000000000000 ) ) ;
#207 = CARTESIAN_POINT ( 'NONE',  ( 9.999999999999998200, 6.750000000000000000, 40.00000000000000000 ) ) ;
#208 = ORIENTED_EDGE ( 'NONE', *, *, #284, .F. ) ;
#209 = PLANE ( 'NONE',  #548 ) ;
#210 = FACE_OUTER_BOUND ( 'NONE', #82, .T. ) ;
#211 = CARTESIAN_POINT ( 'NONE',  ( 11.00000000000000000, 6.750000000000000000, 40.00000000000000000 ) ) ;
#212 = AXIS2_PLACEMENT_3D ( 'NONE', #316, #266, #539 ) ;
#213 = DIRECTION ( 'NONE',  ( -0.0000000000000000000, 1.000000000000000000, 0.0000000000000000000 ) ) ;
#214 = CARTESIAN_POINT ( 'NONE',  ( 9.999999999999998200, 6.750000000000000000, 39.00000000000000000 ) ) ;
#215 = ORIENTED_EDGE ( 'NONE', *, *, #402, .T. ) ;
#216 = CARTESIAN_POINT ( 'NONE',  ( 9.999999999999998200, -6.750000000000000900, 40.00000000000000000 ) ) ;
#217 = PERSON_AND_ORGANIZATION ( #466, #328 ) ;
#218 = EDGE_CURVE ( 'NONE', #249, #45, #417, .T. ) ;
#219 = FACE_OUTER_BOUND ( 'NONE', #461, .T. ) ;
#220 = CARTESIAN_POINT ( 'NONE',  ( -9.000000000000000000, -6.750000000000002700, 40.00000000000000000 ) ) ;
#221 = PERSON_AND_ORGANIZATION_ROLE ( 'design_owner' ) ;
#222 = ORIENTED_EDGE ( 'NONE', *, *, #338, .F. ) ;
#223 = VERTEX_POINT ( 'NONE', #203 ) ;
#224 = DATE_TIME_ROLE ( 'classification_date' ) ;
#225 = APPROVAL ( #3, '未指定' ) ;
#226 = CARTESIAN_POINT ( 'NONE',  ( -9.999999999999998200, 6.749999999999997300, 39.00000000000000000 ) ) ;
#227 = ORIENTED_EDGE ( 'NONE', *, *, #474, .T. ) ;
#228 = CARTESIAN_POINT ( 'NONE',  ( 9.000000000000000000, -6.750000000000000900, 0.0000000000000000000 ) ) ;
#229 = EDGE_LOOP ( 'NONE', ( #30, #242, #131, #536 ) ) ;
#230 = ADVANCED_FACE ( 'NONE', ( #280 ), #502, .F. ) ;
#231 = EDGE_LOOP ( 'NONE', ( #370, #126, #302, #436 ) ) ;
#232 = CARTESIAN_POINT ( 'NONE',  ( 11.00000000000000000, -6.750000000000000000, 40.00000000000000000 ) ) ;
#233 = VECTOR ( 'NONE', #289, 1000.000000000000000 ) ;
#234 = DIRECTION ( 'NONE',  ( 0.0000000000000000000, -0.0000000000000000000, 1.000000000000000000 ) ) ;
#235 = ORIENTED_EDGE ( 'NONE', *, *, #411, .F. ) ;
#236 = CALENDAR_DATE ( 2025, 10, 3 ) ;
#237 = PERSON_AND_ORGANIZATION ( #466, #328 ) ;
#238 = AXIS2_PLACEMENT_3D ( 'NONE', #7, #53, #319 ) ;
#239 = ORIENTED_EDGE ( 'NONE', *, *, #244, .T. ) ;
#240 = AXIS2_PLACEMENT_3D ( 'NONE', #243, #24, #336 ) ;
#241 = VECTOR ( 'NONE', #114, 1000.000000000000000 ) ;
#242 = ORIENTED_EDGE ( 'NONE', *, *, #1, .T. ) ;
#243 = CARTESIAN_POINT ( 'NONE',  ( -9.999999999999998200, -6.750000000000002700, 1.000000000000000900 ) ) ;
#244 = EDGE_CURVE ( 'NONE', #383, #287, #157, .T. ) ;
#245 = CARTESIAN_POINT ( 'NONE',  ( -9.000000000000000000, -6.750000000000002700, 40.00000000000000000 ) ) ;
#246 = ORIENTED_EDGE ( 'NONE', *, *, #199, .T. ) ;
#247 = CARTESIAN_POINT ( 'NONE',  ( -8.999999999999998200, -3.250000000000000900, 40.00000000000000000 ) ) ;
#248 = DIRECTION ( 'NONE',  ( 0.0000000000000000000, 0.0000000000000000000, 1.000000000000000000 ) ) ;
#249 = VERTEX_POINT ( 'NONE', #343 ) ;
#250 = FACE_BOUND ( 'NONE', #550, .T. ) ;
#251 = DIRECTION ( 'NONE',  ( 1.000000000000000000, 1.182766006347823100E-016, 0.0000000000000000000 ) ) ;
#252 = DIRECTION ( 'NONE',  ( 0.0000000000000000000, 1.000000000000000000, -0.0000000000000000000 ) ) ;
#253 = PERSON_AND_ORGANIZATION ( #466, #328 ) ;
#254 = PLANE ( 'NONE',  #556 ) ;
#255 = CC_DESIGN_APPROVAL ( #225, ( #360 ) ) ;
#256 = CARTESIAN_POINT ( 'NONE',  ( -9.999999999999998200, -6.750000000000002700, 40.00000000000000000 ) ) ;
#257 = DIRECTION ( 'NONE',  ( 1.000000000000000000, 0.0000000000000000000, 0.0000000000000000000 ) ) ;
#258 = ORIENTED_EDGE ( 'NONE', *, *, #52, .T. ) ;
#259 = DIRECTION ( 'NONE',  ( 1.000000000000000000, -0.0000000000000000000, -0.0000000000000000000 ) ) ;
#260 = DIRECTION ( 'NONE',  ( 0.0000000000000000000, 1.000000000000000000, -0.0000000000000000000 ) ) ;
#261 = CARTESIAN_POINT ( 'NONE',  ( 0.0000000000000000000, 0.0000000000000000000, 0.0000000000000000000 ) ) ;
#262 = EDGE_LOOP ( 'NONE', ( #354, #513, #507, #196 ) ) ;
#263 = LINE ( 'NONE', #560, #374 ) ;
#264 = COORDINATED_UNIVERSAL_TIME_OFFSET ( 8, 0, .AHEAD. ) ;
#265 = APPLICATION_PROTOCOL_DEFINITION ( 'international standard', 'config_control_design', 1994, #538 ) ;
#266 = DIRECTION ( 'NONE',  ( 0.0000000000000000000, 1.000000000000000000, -0.0000000000000000000 ) ) ;
#267 = APPROVAL_ROLE ( '' ) ;
#268 = EDGE_LOOP ( 'NONE', ( #570, #484 ) ) ;
#269 = ADVANCED_FACE ( 'NONE', ( #384 ), #78, .F. ) ;
#270 = DIRECTION ( 'NONE',  ( -1.182766006347823100E-016, 1.000000000000000000, -0.0000000000000000000 ) ) ;
#271 = AXIS2_PLACEMENT_3D ( 'NONE', #510, #286, #379 ) ;
#272 = ADVANCED_FACE ( 'NONE', ( #405 ), #490, .T. ) ;
#273 = ORIENTED_EDGE ( 'NONE', *, *, #218, .F. ) ;
#274 = DIRECTION ( 'NONE',  ( -0.0000000000000000000, -1.000000000000000000, 0.0000000000000000000 ) ) ;
#275 = VERTEX_POINT ( 'NONE', #473 ) ;
#276 = FACE_OUTER_BOUND ( 'NONE', #21, .T. ) ;
#277 = EDGE_CURVE ( 'NONE', #501, #249, #263, .T. ) ;
#278 = ORIENTED_EDGE ( 'NONE', *, *, #411, .T. ) ;
#279 = ORIENTED_EDGE ( 'NONE', *, *, #390, .T. ) ;
#280 = FACE_OUTER_BOUND ( 'NONE', #38, .T. ) ;
#281 = VECTOR ( 'NONE', #531, 1000.000000000000000 ) ;
#282 = ORIENTED_EDGE ( 'NONE', *, *, #555, .F. ) ;
#283 = CC_DESIGN_PERSON_AND_ORGANIZATION_ASSIGNMENT ( #253, #51, ( #360 ) ) ;
#284 = EDGE_CURVE ( 'NONE', #575, #395, #31, .T. ) ;
#285 = VERTEX_POINT ( 'NONE', #295 ) ;
#286 = DIRECTION ( 'NONE',  ( 4.336808689942017700E-016, -1.000000000000000000, -0.0000000000000000000 ) ) ;
#287 = VERTEX_POINT ( 'NONE', #389 ) ;
#288 = VECTOR ( 'NONE', #359, 1000.000000000000000 ) ;
#289 = DIRECTION ( 'NONE',  ( 1.000000000000000000, -0.0000000000000000000, -0.0000000000000000000 ) ) ;
#290 = EDGE_LOOP ( 'NONE', ( #344, #353, #279, #143, #446, #498, #20, #367 ) ) ;
#291 = CYLINDRICAL_SURFACE ( 'NONE', #301, 1.000000000000000000 ) ;
#292 = LINE ( 'NONE', #171, #281 ) ;
#293 = CARTESIAN_POINT ( 'NONE',  ( 9.999999999999998200, 0.0000000000000000000, 39.00000000000000000 ) ) ;
#294 = DIRECTION ( 'NONE',  ( 0.0000000000000000000, 1.000000000000000000, 0.0000000000000000000 ) ) ;
#295 = CARTESIAN_POINT ( 'NONE',  ( -8.999999999999998200, -3.250000000000000900, 0.0000000000000000000 ) ) ;
#296 = DIRECTION ( 'NONE',  ( -1.000000000000000000, -4.336808689942017700E-016, 0.0000000000000000000 ) ) ;
#297 = CARTESIAN_POINT ( 'NONE',  ( 9.999999999999998200, 0.0000000000000000000, 0.0000000000000000000 ) ) ;
#298 = AXIS2_PLACEMENT_3D ( 'NONE', #261, #445, #176 ) ;
#299 = DIRECTION ( 'NONE',  ( -0.0000000000000000000, -0.0000000000000000000, -1.000000000000000000 ) ) ;
#300 = CARTESIAN_POINT ( 'NONE',  ( 9.000000000000000000, -3.250000000000000900, 40.00000000000000000 ) ) ;
#301 = AXIS2_PLACEMENT_3D ( 'NONE', #433, #294, #248 ) ;
#302 = ORIENTED_EDGE ( 'NONE', *, *, #12, .F. ) ;
#303 = VECTOR ( 'NONE', #363, 1000.000000000000000 ) ;
#304 = CARTESIAN_POINT ( 'NONE',  ( -9.000000000000000000, -6.750000000000002700, 40.00000000000000000 ) ) ;
#305 = CARTESIAN_POINT ( 'NONE',  ( -9.999999999999998200, -0.0000000000000000000, 0.0000000000000000000 ) ) ;
#306 = EDGE_CURVE ( 'NONE', #469, #501, #17, .T. ) ;
#307 = VERTEX_POINT ( 'NONE', #524 ) ;
#308 = VECTOR ( 'NONE', #161, 1000.000000000000000 ) ;
#309 = LOCAL_TIME ( 8, 24, 57.00000000000000000, #427 ) ;
#310 = VECTOR ( 'NONE', #537, 1000.000000000000000 ) ;
#311 = DIRECTION ( 'NONE',  ( 1.000000000000000000, 4.336808689942017700E-016, -0.0000000000000000000 ) ) ;
#312 = LINE ( 'NONE', #578, #173 ) ;
#313 = EDGE_LOOP ( 'NONE', ( #67, #480, #222, #15 ) ) ;
#314 =( NAMED_UNIT ( * ) PLANE_ANGLE_UNIT ( ) SI_UNIT ( $, .RADIAN. ) );
#315 = APPROVAL_ROLE ( '' ) ;
#316 = CARTESIAN_POINT ( 'NONE',  ( 3.843989520630425800E-016, -3.250000000000000900, 20.00000000000000000 ) ) ;
#317 = ORIENTED_EDGE ( 'NONE', *, *, #369, .T. ) ;
#318 = CC_DESIGN_DATE_AND_TIME_ASSIGNMENT ( #356, #357, ( #360 ) ) ;
#319 = DIRECTION ( 'NONE',  ( -1.000000000000000000, -1.355252715606880500E-016, 0.0000000000000000000 ) ) ;
#320 = ADVANCED_FACE ( 'NONE', ( #250, #46 ), #209, .F. ) ;
#321 = ORIENTED_EDGE ( 'NONE', *, *, #582, .F. ) ;
#322 = VECTOR ( 'NONE', #324, 1000.000000000000000 ) ;
#323 = ADVANCED_FACE ( 'NONE', ( #470 ), #5, .T. ) ;
#324 = DIRECTION ( 'NONE',  ( -1.182766006347823100E-016, 1.000000000000000000, -0.0000000000000000000 ) ) ;
#325 = CARTESIAN_POINT ( 'NONE',  ( -9.000000000000000000, -6.750000000000002700, 0.0000000000000000000 ) ) ;
#326 = LINE ( 'NONE', #549, #201 ) ;
#327 = CALENDAR_DATE ( 2025, 10, 3 ) ;
#328 = ORGANIZATION ( '未指定', '未指定', '' ) ;
#329 = PLANE ( 'NONE',  #394 ) ;
#330 = VECTOR ( 'NONE', #342, 1000.000000000000000 ) ;
#331 = ORIENTED_EDGE ( 'NONE', *, *, #166, .F. ) ;
#332 = CC_DESIGN_PERSON_AND_ORGANIZATION_ASSIGNMENT ( #47, #221, ( #149 ) ) ;
#333 = AXIS2_PLACEMENT_3D ( 'NONE', #107, #234, #193 ) ;
#334 = ORIENTED_EDGE ( 'NONE', *, *, #572, .F. ) ;
#335 = PERSON_AND_ORGANIZATION ( #466, #328 ) ;
#336 = DIRECTION ( 'NONE',  ( 0.0000000000000000000, 0.0000000000000000000, 1.000000000000000000 ) ) ;
#337 = LINE ( 'NONE', #256, #443 ) ;
#338 = EDGE_CURVE ( 'NONE', #108, #249, #134, .T. ) ;
#339 = CARTESIAN_POINT ( 'NONE',  ( -9.000000000000000000, -6.750000000000002700, 40.00000000000000000 ) ) ;
#340 = EDGE_LOOP ( 'NONE', ( #16, #373, #573, #111, #453, #174 ) ) ;
#341 = DIRECTION ( 'NONE',  ( 0.0000000000000000000, -1.000000000000000000, 0.0000000000000000000 ) ) ;
#342 = DIRECTION ( 'NONE',  ( 4.956352788505160300E-016, 1.000000000000000000, 0.0000000000000000000 ) ) ;
#343 = CARTESIAN_POINT ( 'NONE',  ( -11.00000000000000000, -6.750000000000002700, 1.000000000000000900 ) ) ;
#344 = ORIENTED_EDGE ( 'NONE', *, *, #572, .T. ) ;
#345 = PRODUCT_DEFINITION_FORMATION_WITH_SPECIFIED_SOURCE ( '任何', '', #149, .NOT_KNOWN. ) ;
#346 = VERTEX_POINT ( 'NONE', #391 ) ;
#347 = ORIENTED_EDGE ( 'NONE', *, *, #489, .F. ) ;
#348 = DIRECTION ( 'NONE',  ( 0.0000000000000000000, 1.000000000000000000, -0.0000000000000000000 ) ) ;
#349 = CARTESIAN_POINT ( 'NONE',  ( 11.00000000000000000, -6.750000000000000000, 39.00000000000000000 ) ) ;
#350 = LINE ( 'NONE', #245, #233 ) ;
#351 = DIRECTION ( 'NONE',  ( -0.0000000000000000000, 1.000000000000000000, 0.0000000000000000000 ) ) ;
#352 = DIRECTION ( 'NONE',  ( -1.000000000000000000, -1.182766006347823100E-016, 0.0000000000000000000 ) ) ;
#353 = ORIENTED_EDGE ( 'NONE', *, *, #428, .T. ) ;
#354 = ORIENTED_EDGE ( 'NONE', *, *, #487, .T. ) ;
#355 = VECTOR ( 'NONE', #116, 1000.000000000000000 ) ;
#356 = DATE_AND_TIME ( #471, #18 ) ;
#357 = DATE_TIME_ROLE ( 'creation_date' ) ;
#358 = EDGE_CURVE ( 'NONE', #223, #120, #121, .T. ) ;
#359 = DIRECTION ( 'NONE',  ( -1.000000000000000000, -1.182766006347823100E-016, 0.0000000000000000000 ) ) ;
#360 = PRODUCT_DEFINITION ( '未知', '', #345, #574 ) ;
#361 = ORIENTED_EDGE ( 'NONE', *, *, #110, .T. ) ;
#362 = AXIS2_PLACEMENT_3D ( 'NONE', #22, #252, #569 ) ;
#363 = DIRECTION ( 'NONE',  ( -0.0000000000000000000, -0.0000000000000000000, -1.000000000000000000 ) ) ;
#364 = ORIENTED_EDGE ( 'NONE', *, *, #1, .F. ) ;
#365 = ADVANCED_FACE ( 'NONE', ( #276 ), #366, .T. ) ;
#366 = CYLINDRICAL_SURFACE ( 'NONE', #85, 1.000000000000000900 ) ;
#367 = ORIENTED_EDGE ( 'NONE', *, *, #139, .T. ) ;
#368 = CARTESIAN_POINT ( 'NONE',  ( -11.00000000000000000, -6.750000000000002700, 40.00000000000000000 ) ) ;
#369 = EDGE_CURVE ( 'NONE', #28, #285, #483, .T. ) ;
#370 = ORIENTED_EDGE ( 'NONE', *, *, #199, .F. ) ;
#371 = PLANE ( 'NONE',  #333 ) ;
#372 = ORIENTED_EDGE ( 'NONE', *, *, #529, .F. ) ;
#373 = ORIENTED_EDGE ( 'NONE', *, *, #218, .T. ) ;
#374 = VECTOR ( 'NONE', #26, 1000.000000000000000 ) ;
#375 = APPROVAL_DATE_TIME ( #491, #225 ) ;
#376 = APPROVAL ( #94, '未指定' ) ;
#377 = VERTEX_POINT ( 'NONE', #29 ) ;
#378 = CARTESIAN_POINT ( 'NONE',  ( 11.00000000000000000, 6.750000000000000000, 40.00000000000000000 ) ) ;
#379 = DIRECTION ( 'NONE',  ( -1.000000000000000000, 0.0000000000000000000, 0.0000000000000000000 ) ) ;
#380 = ORIENTED_EDGE ( 'NONE', *, *, #119, .F. ) ;
#381 = DIRECTION ( 'NONE',  ( 0.0000000000000000000, 0.0000000000000000000, -1.000000000000000000 ) ) ;
#382 = ORIENTED_EDGE ( 'NONE', *, *, #27, .F. ) ;
#383 = VERTEX_POINT ( 'NONE', #388 ) ;
#384 = FACE_OUTER_BOUND ( 'NONE', #262, .T. ) ;
#385 = DIRECTION ( 'NONE',  ( 1.000000000000000000, 0.0000000000000000000, -0.0000000000000000000 ) ) ;
#386 = APPROVAL_PERSON_ORGANIZATION ( #503, #225, #315 ) ;
#387 = FACE_OUTER_BOUND ( 'NONE', #340, .T. ) ;
#388 = CARTESIAN_POINT ( 'NONE',  ( 9.999999999999998200, 6.750000000000000000, 0.0000000000000000000 ) ) ;
#389 = CARTESIAN_POINT ( 'NONE',  ( 9.999999999999998200, -6.750000000000000900, 0.0000000000000000000 ) ) ;
#390 = EDGE_CURVE ( 'NONE', #76, #508, #350, .T. ) ;
#391 = CARTESIAN_POINT ( 'NONE',  ( 6.400000000000001200, -3.250000000000000900, 20.00000000000000000 ) ) ;
#392 = DIRECTION ( 'NONE',  ( -1.000000000000000000, 4.956352788505160300E-016, 0.0000000000000000000 ) ) ;
#393 = DIRECTION ( 'NONE',  ( 0.0000000000000000000, -1.000000000000000000, -0.0000000000000000000 ) ) ;
#394 = AXIS2_PLACEMENT_3D ( 'NONE', #368, #499, #188 ) ;
#395 = VERTEX_POINT ( 'NONE', #434 ) ;
#396 = CARTESIAN_POINT ( 'NONE',  ( -11.00000000000000000, 6.749999999999997300, 39.00000000000000000 ) ) ;
#397 = AXIS2_PLACEMENT_3D ( 'NONE', #425, #512, #66 ) ;
#398 = ORIENTED_EDGE ( 'NONE', *, *, #52, .F. ) ;
#399 = DIRECTION ( 'NONE',  ( 1.000000000000000000, 0.0000000000000000000, 0.0000000000000000000 ) ) ;
#400 = ORIENTED_EDGE ( 'NONE', *, *, #19, .T. ) ;
#401 = CYLINDRICAL_SURFACE ( 'NONE', #238, 6.400000000000000400 ) ;
#402 = EDGE_CURVE ( 'NONE', #140, #506, #130, .T. ) ;
#403 = VERTEX_POINT ( 'NONE', #523 ) ;
#404 = CARTESIAN_POINT ( 'NONE',  ( -9.000000000000000000, -6.750000000000002700, 0.0000000000000000000 ) ) ;
#405 = FACE_OUTER_BOUND ( 'NONE', #465, .T. ) ;
#406 = LINE ( 'NONE', #42, #462 ) ;
#407 = ORIENTED_EDGE ( 'NONE', *, *, #439, .T. ) ;
#408 = APPROVAL_ROLE ( '' ) ;
#409 = CC_DESIGN_APPROVAL ( #376, ( #345 ) ) ;
#410 = ADVANCED_FACE ( 'NONE', ( #14 ), #254, .F. ) ;
#411 = EDGE_CURVE ( 'NONE', #307, #195, #458, .T. ) ;
#412 = PLANE ( 'NONE',  #125 ) ;
#413 = VERTEX_POINT ( 'NONE', #164 ) ;
#414 = FACE_OUTER_BOUND ( 'NONE', #313, .T. ) ;
#415 = CARTESIAN_POINT ( 'NONE',  ( -11.00000000000000000, -6.750000000000002700, 39.00000000000000000 ) ) ;
#416 = ORIENTED_EDGE ( 'NONE', *, *, #306, .F. ) ;
#417 = CIRCLE ( 'NONE', #240, 1.000000000000000000 ) ;
#418 = VECTOR ( 'NONE', #351, 1000.000000000000000 ) ;
#419 = EDGE_CURVE ( 'NONE', #377, #501, #467, .T. ) ;
#420 = VERTEX_POINT ( 'NONE', #475 ) ;
#421 = ORIENTED_EDGE ( 'NONE', *, *, #110, .F. ) ;
#422 = LINE ( 'NONE', #228, #65 ) ;
#423 = AXIS2_PLACEMENT_3D ( 'NONE', #163, #392, #165 ) ;
#424 = DIRECTION ( 'NONE',  ( -1.182766006347823100E-016, 1.000000000000000000, -0.0000000000000000000 ) ) ;
#425 = CARTESIAN_POINT ( 'NONE',  ( 7.983670542847810700E-016, -6.750000000000004400, 20.00000000000000000 ) ) ;
#426 = LINE ( 'NONE', #207, #308 ) ;
#427 = COORDINATED_UNIVERSAL_TIME_OFFSET ( 8, 0, .AHEAD. ) ;
#428 = EDGE_CURVE ( 'NONE', #2, #76, #337, .T. ) ;
#429 = LINE ( 'NONE', #404, #310 ) ;
#430 = LINE ( 'NONE', #396, #90 ) ;
#431 = CARTESIAN_POINT ( 'NONE',  ( -7.983670542847804800E-016, 6.749999999999999100, 20.00000000000000000 ) ) ;
#432 = DIRECTION ( 'NONE',  ( 0.0000000000000000000, 0.0000000000000000000, -1.000000000000000000 ) ) ;
#433 = CARTESIAN_POINT ( 'NONE',  ( 9.999999999999998200, -6.750000000000000000, 1.000000000000000900 ) ) ;
#434 = CARTESIAN_POINT ( 'NONE',  ( 9.000000000000000000, -6.750000000000000900, 40.00000000000000000 ) ) ;
#435 = DIRECTION ( 'NONE',  ( -0.0000000000000000000, -1.000000000000000000, -0.0000000000000000000 ) ) ;
#436 = ORIENTED_EDGE ( 'NONE', *, *, #474, .F. ) ;
#437 = CARTESIAN_POINT ( 'NONE',  ( -11.00000000000000000, 6.749999999999997300, 40.00000000000000000 ) ) ;
#438 = CC_DESIGN_PERSON_AND_ORGANIZATION_ASSIGNMENT ( #335, #136, ( #345 ) ) ;
#439 = EDGE_CURVE ( 'NONE', #138, #307, #564, .T. ) ;
#440 = LINE ( 'NONE', #103, #322 ) ;
#441 = CIRCLE ( 'NONE', #452, 6.400000000000000400 ) ;
#442 = LOCAL_TIME ( 8, 24, 57.00000000000000000, #562 ) ;
#443 = VECTOR ( 'NONE', #393, 1000.000000000000000 ) ;
#444 = CARTESIAN_POINT ( 'NONE',  ( 9.000000000000000000, -3.250000000000000900, 40.00000000000000000 ) ) ;
#445 = DIRECTION ( 'NONE',  ( 0.0000000000000000000, 0.0000000000000000000, 1.000000000000000000 ) ) ;
#446 = ORIENTED_EDGE ( 'NONE', *, *, #541, .T. ) ;
#447 = PERSON_AND_ORGANIZATION_ROLE ( 'design_supplier' ) ;
#448 = ORIENTED_EDGE ( 'NONE', *, *, #459, .F. ) ;
#449 = EDGE_CURVE ( 'NONE', #508, #28, #580, .T. ) ;
#450 = CARTESIAN_POINT ( 'NONE',  ( -9.999999999999998200, -6.750000000000002700, 40.00000000000000000 ) ) ;
#451 = ADVANCED_FACE ( 'NONE', ( #553, #219 ), #577, .F. ) ;
#452 = AXIS2_PLACEMENT_3D ( 'NONE', #567, #206, #518 ) ;
#453 = ORIENTED_EDGE ( 'NONE', *, *, #390, .F. ) ;
#454 = DIRECTION ( 'NONE',  ( -1.000000000000000000, 0.0000000000000000000, 0.0000000000000000000 ) ) ;
#455 = AXIS2_PLACEMENT_3D ( 'NONE', #112, #424, #468 ) ;
#456 = APPROVAL_DATE_TIME ( #49, #376 ) ;
#457 = DIRECTION ( 'NONE',  ( 1.000000000000000000, 4.336808689942017700E-016, -0.0000000000000000000 ) ) ;
#458 = LINE ( 'NONE', #211, #113 ) ;
#459 = EDGE_CURVE ( 'NONE', #108, #377, #430, .T. ) ;
#460 = ORIENTED_EDGE ( 'NONE', *, *, #79, .F. ) ;
#461 = EDGE_LOOP ( 'NONE', ( #511, #151, #175, #317 ) ) ;
#462 = VECTOR ( 'NONE', #259, 1000.000000000000000 ) ;
#463 = LOCAL_TIME ( 8, 24, 57.00000000000000000, #6 ) ;
#464 = CC_DESIGN_PERSON_AND_ORGANIZATION_ASSIGNMENT ( #217, #447, ( #345 ) ) ;
#465 = EDGE_LOOP ( 'NONE', ( #398, #448, #460, #80 ) ) ;
#466 = PERSON ( '未指定', '未指定', '未指定', ('未指定'), ('未指定'), ('未指定') ) ;
#467 = LINE ( 'NONE', #437, #106 ) ;
#468 = DIRECTION ( 'NONE',  ( 1.000000000000000000, 0.0000000000000000000, 0.0000000000000000000 ) ) ;
#469 = VERTEX_POINT ( 'NONE', #168 ) ;
#470 = FACE_OUTER_BOUND ( 'NONE', #198, .T. ) ;
#471 = CALENDAR_DATE ( 2025, 10, 3 ) ;
#472 = CARTESIAN_POINT ( 'NONE',  ( 9.999999999999998200, -6.750000000000000900, 39.00000000000000000 ) ) ;
#473 = CARTESIAN_POINT ( 'NONE',  ( 9.000000000000000000, -3.250000000000000900, 0.0000000000000000000 ) ) ;
#474 = EDGE_CURVE ( 'NONE', #413, #195, #72, .T. ) ;
#475 = CARTESIAN_POINT ( 'NONE',  ( 9.000000000000000000, -6.750000000000000900, 0.0000000000000000000 ) ) ;
#476 = CARTESIAN_POINT ( 'NONE',  ( -9.999999999999998200, 0.0000000000000000000, 39.00000000000000000 ) ) ;
#477 = ORIENTED_EDGE ( 'NONE', *, *, #306, .T. ) ;
#478 = DIRECTION ( 'NONE',  ( 4.956352788505160300E-016, 1.000000000000000000, 0.0000000000000000000 ) ) ;
#479 = AXIS2_PLACEMENT_3D ( 'NONE', #526, #74, #385 ) ;
#480 = ORIENTED_EDGE ( 'NONE', *, *, #277, .T. ) ;
#481 = DIRECTION ( 'NONE',  ( 0.0000000000000000000, 1.000000000000000000, 0.0000000000000000000 ) ) ;
#482 = AXIS2_PLACEMENT_3D ( 'NONE', #476, #213, #35 ) ;
#483 = LINE ( 'NONE', #247, #241 ) ;
#484 = ORIENTED_EDGE ( 'NONE', *, *, #61, .T. ) ;
#485 = CARTESIAN_POINT ( 'NONE',  ( -11.00000000000000000, 6.749999999999997300, 1.000000000000000900 ) ) ;
#486 = PLANE ( 'NONE',  #180 ) ;
#487 = EDGE_CURVE ( 'NONE', #95, #285, #194, .T. ) ;
#488 = EDGE_LOOP ( 'NONE', ( #40, #477, #542, #258, #334, #407, #278, #515 ) ) ;
#489 = EDGE_CURVE ( 'NONE', #395, #420, #312, .T. ) ;
#490 = CYLINDRICAL_SURFACE ( 'NONE', #482, 1.000000000000000900 ) ;
#491 = DATE_AND_TIME ( #32, #145 ) ;
#492 = MECHANICAL_CONTEXT ( 'NONE', #132, 'mechanical' ) ;
#493 = PERSON_AND_ORGANIZATION_ROLE ( 'classification_officer' ) ;
#494 = DIRECTION ( 'NONE',  ( -1.182766006347823100E-016, 1.000000000000000000, -0.0000000000000000000 ) ) ;
#495 = SECURITY_CLASSIFICATION ( '', '', #178 ) ;
#496 = CARTESIAN_POINT ( 'NONE',  ( -8.999999999999998200, -3.250000000000000900, 40.00000000000000000 ) ) ;
#497 = ADVANCED_FACE ( 'NONE', ( #519 ), #127, .F. ) ;
#498 = ORIENTED_EDGE ( 'NONE', *, *, #284, .T. ) ;
#499 = DIRECTION ( 'NONE',  ( 1.000000000000000000, 0.0000000000000000000, 0.0000000000000000000 ) ) ;
#500 = ORIENTED_EDGE ( 'NONE', *, *, #489, .T. ) ;
#501 = VERTEX_POINT ( 'NONE', #485 ) ;
#502 = CYLINDRICAL_SURFACE ( 'NONE', #397, 6.400000000000000400 ) ;
#503 = PERSON_AND_ORGANIZATION ( #466, #328 ) ;
#504 = VECTOR ( 'NONE', #86, 1000.000000000000000 ) ;
#505 = EDGE_CURVE ( 'NONE', #403, #223, #292, .T. ) ;
#506 = VERTEX_POINT ( 'NONE', #216 ) ;
#507 = ORIENTED_EDGE ( 'NONE', *, *, #449, .F. ) ;
#508 = VERTEX_POINT ( 'NONE', #304 ) ;
#509 = CIRCLE ( 'NONE', #212, 6.399999999999999500 ) ;
#510 = CARTESIAN_POINT ( 'NONE',  ( 9.999999999999998200, -6.750000000000000900, 1.000000000000000900 ) ) ;
#511 = ORIENTED_EDGE ( 'NONE', *, *, #197, .T. ) ;
#512 = DIRECTION ( 'NONE',  ( -1.182766006347823100E-016, 1.000000000000000000, -0.0000000000000000000 ) ) ;
#513 = ORIENTED_EDGE ( 'NONE', *, *, #369, .F. ) ;
#514 = EDGE_CURVE ( 'NONE', #45, #469, #158, .T. ) ;
#515 = ORIENTED_EDGE ( 'NONE', *, *, #12, .T. ) ;
#516 = VECTOR ( 'NONE', #153, 1000.000000000000000 ) ;
#517 = DIRECTION ( 'NONE',  ( -1.000000000000000000, -1.355252715606880500E-016, 0.0000000000000000000 ) ) ;
#518 = DIRECTION ( 'NONE',  ( -1.000000000000000000, -1.355252715606880500E-016, 0.0000000000000000000 ) ) ;
#519 = FACE_OUTER_BOUND ( 'NONE', #44, .T. ) ;
#520 = CARTESIAN_POINT ( 'NONE',  ( -9.999999999999998200, -6.750000000000002700, 1.000000000000000900 ) ) ;
#521 = CARTESIAN_POINT ( 'NONE',  ( 11.00000000000000000, -6.750000000000000000, 39.00000000000000000 ) ) ;
#522 = AXIS2_PLACEMENT_3D ( 'NONE', #214, #528, #257 ) ;
#523 = CARTESIAN_POINT ( 'NONE',  ( -6.400000000000000400, -3.250000000000000900, 20.00000000000000000 ) ) ;
#524 = CARTESIAN_POINT ( 'NONE',  ( 11.00000000000000000, 6.750000000000000000, 39.00000000000000000 ) ) ;
#525 = DIRECTION ( 'NONE',  ( -0.0000000000000000000, -0.0000000000000000000, -1.000000000000000000 ) ) ;
#526 = CARTESIAN_POINT ( 'NONE',  ( 0.0000000000000000000, 0.0000000000000000000, 40.00000000000000000 ) ) ;
#527 = CC_DESIGN_PERSON_AND_ORGANIZATION_ASSIGNMENT ( #105, #493, ( #495 ) ) ;
#528 = DIRECTION ( 'NONE',  ( -1.182766006347823100E-016, 1.000000000000000000, -0.0000000000000000000 ) ) ;
#529 = EDGE_CURVE ( 'NONE', #307, #140, #60, .T. ) ;
#530 = CIRCLE ( 'NONE', #181, 1.000000000000000900 ) ;
#531 = DIRECTION ( 'NONE',  ( -1.182766006347823100E-016, 1.000000000000000000, -0.0000000000000000000 ) ) ;
#532 = ORIENTED_EDGE ( 'NONE', *, *, #27, .T. ) ;
#533 = VECTOR ( 'NONE', #71, 1000.000000000000000 ) ;
#534 = APPROVAL_DATE_TIME ( #69, #9 ) ;
#535 = VECTOR ( 'NONE', #481, 1000.000000000000000 ) ;
#536 = ORIENTED_EDGE ( 'NONE', *, *, #505, .F. ) ;
#537 = DIRECTION ( 'NONE',  ( 1.000000000000000000, -0.0000000000000000000, -0.0000000000000000000 ) ) ;
#538 = APPLICATION_CONTEXT ( 'configuration controlled 3d designs of mechanical parts and assemblies' ) ;
#539 = DIRECTION ( 'NONE',  ( 0.0000000000000000000, 0.0000000000000000000, 1.000000000000000000 ) ) ;
#540 = APPROVAL_STATUS ( 'not_yet_approved' ) ;
#541 = EDGE_CURVE ( 'NONE', #28, #575, #406, .T. ) ;
#542 = ORIENTED_EDGE ( 'NONE', *, *, #419, .F. ) ;
#543 = DIRECTION ( 'NONE',  ( 1.000000000000000000, 0.0000000000000000000, 0.0000000000000000000 ) ) ;
#544 = ADVANCED_FACE ( 'NONE', ( #387 ), #486, .F. ) ;
#545 = PRODUCT_DEFINITION_SHAPE ( 'NONE', 'NONE',  #360 ) ;
#546 = ORIENTED_EDGE ( 'NONE', *, *, #358, .T. ) ;
#547 = CIRCLE ( 'NONE', #148, 1.000000000000000900 ) ;
#548 = AXIS2_PLACEMENT_3D ( 'NONE', #378, #568, #251 ) ;
#549 = CARTESIAN_POINT ( 'NONE',  ( 11.00000000000000000, -6.750000000000000000, 0.0000000000000000000 ) ) ;
#550 = EDGE_LOOP ( 'NONE', ( #576, #331 ) ) ;
#551 = FACE_OUTER_BOUND ( 'NONE', #290, .T. ) ;
#552 = APPROVAL_PERSON_ORGANIZATION ( #88, #9, #267 ) ;
#553 = FACE_BOUND ( 'NONE', #268, .T. ) ;
#554 = ORIENTED_EDGE ( 'NONE', *, *, #93, .F. ) ;
#555 = EDGE_CURVE ( 'NONE', #395, #506, #41, .T. ) ;
#556 = AXIS2_PLACEMENT_3D ( 'NONE', #70, #571, #296 ) ;
#557 = ORIENTED_EDGE ( 'NONE', *, *, #197, .F. ) ;
#558 = CC_DESIGN_DATE_AND_TIME_ASSIGNMENT ( #202, #224, ( #495 ) ) ;
#559 = LINE ( 'NONE', #55, #303 ) ;
#560 = CARTESIAN_POINT ( 'NONE',  ( -11.00000000000000000, -6.750000000000002700, 1.000000000000000900 ) ) ;
#561 = CIRCLE ( 'NONE', #362, 6.399999999999999500 ) ;
#562 = COORDINATED_UNIVERSAL_TIME_OFFSET ( 8, 0, .AHEAD. ) ;
#563 = VECTOR ( 'NONE', #311, 1000.000000000000000 ) ;
#564 = CIRCLE ( 'NONE', #522, 1.000000000000000900 ) ;
#565 = ORIENTED_EDGE ( 'NONE', *, *, #277, .F. ) ;
#566 = DIRECTION ( 'NONE',  ( -0.0000000000000000000, -1.000000000000000000, -0.0000000000000000000 ) ) ;
#567 = CARTESIAN_POINT ( 'NONE',  ( -7.983670542847804800E-016, 6.749999999999999100, 20.00000000000000000 ) ) ;
#568 = DIRECTION ( 'NONE',  ( 1.182766006347823100E-016, -1.000000000000000000, 0.0000000000000000000 ) ) ;
#569 = DIRECTION ( 'NONE',  ( 0.0000000000000000000, 0.0000000000000000000, 1.000000000000000000 ) ) ;
#570 = ORIENTED_EDGE ( 'NONE', *, *, #119, .T. ) ;
#571 = DIRECTION ( 'NONE',  ( -4.336808689942017700E-016, 1.000000000000000000, 0.0000000000000000000 ) ) ;
#572 = EDGE_CURVE ( 'NONE', #138, #2, #204, .T. ) ;
#573 = ORIENTED_EDGE ( 'NONE', *, *, #582, .T. ) ;
#574 = DESIGN_CONTEXT ( 'detailed design', #538, 'design' ) ;
#575 = VERTEX_POINT ( 'NONE', #444 ) ;
#576 = ORIENTED_EDGE ( 'NONE', *, *, #358, .F. ) ;
#577 = PLANE ( 'NONE',  #62 ) ;
#578 = CARTESIAN_POINT ( 'NONE',  ( 9.000000000000000000, -6.750000000000000900, 40.00000000000000000 ) ) ;
#579 = AXIS2_PLACEMENT_3D ( 'NONE', #431, #154, #517 ) ;
#580 = LINE ( 'NONE', #167, #205 ) ;
#581 = DIRECTION ( 'NONE',  ( 0.0000000000000000000, 0.0000000000000000000, 1.000000000000000000 ) ) ;
#582 = EDGE_CURVE ( 'NONE', #45, #95, #429, .T. ) ;
#583 =( LENGTH_UNIT ( ) NAMED_UNIT ( * ) SI_UNIT ( .MILLI., .METRE. ) );
ENDSEC;
END-ISO-10303-21;
