ISO-10303-21;
HEADER;
FILE_DESCRIPTION (( 'STEP AP203' ),
    '1' );
FILE_NAME ('锥杆.STEP',
    '2025-03-10T00:47:36',
    ( 'Users' ),
    ( 'Microsoft' ),
    'SwSTEP 2.0',
    'SolidWorks 2016',
    '' );
FILE_SCHEMA (( 'CONFIG_CONTROL_DESIGN' ));
ENDSEC;

DATA;
#1 = CARTESIAN_POINT ( 'NONE',  ( 490.5551362713291000, 0.0000000000000000000, 0.0000000000000000000 ) ) ;
#2 = LOCAL_TIME ( 8, 47, 36.00000000000000000, #150 ) ;
#3 = ORIENTED_EDGE ( 'NONE', *, *, #84, .T. ) ;
#4 = AXIS2_PLACEMENT_3D ( 'NONE', #105, #475, #43 ) ;
#5 = DIRECTION ( 'NONE',  ( 0.0000000000000000000, 0.0000000000000000000, 1.000000000000000000 ) ) ;
#6 = DIRECTION ( 'NONE',  ( 0.0000000000000000000, 0.0000000000000000000, 1.000000000000000000 ) ) ;
#7 = CARTESIAN_POINT ( 'NONE',  ( 330.0303448853969700, 0.0000000000000000000, 0.0000000000000000000 ) ) ;
#8 = VECTOR ( 'NONE', #47, 1000.000000000000000 ) ;
#9 = ORIENTED_EDGE ( 'NONE', *, *, #460, .T. ) ;
#10 = AXIS2_PLACEMENT_3D ( 'NONE', #303, #668, #240 ) ;
#11 = ORIENTED_EDGE ( 'NONE', *, *, #15, .T. ) ;
#12 = CIRCLE ( 'NONE', #511, 2.999999999999975100 ) ;
#13 = DIRECTION ( 'NONE',  ( 0.0000000000000000000, 0.0000000000000000000, 1.000000000000000000 ) ) ;
#14 = CARTESIAN_POINT ( 'NONE',  ( 577.0000000000000000, 0.0000000000000000000, 35.99999999999999300 ) ) ;
#15 = EDGE_CURVE ( 'NONE', #350, #751, #400, .T. ) ;
#16 = CARTESIAN_POINT ( 'NONE',  ( 0.0000000000000000000, 0.0000000000000000000, 2.500000000000000000 ) ) ;
#17 = APPROVAL ( #278, '未指定' ) ;
#18 = ORIENTED_EDGE ( 'NONE', *, *, #252, .F. ) ;
#19 = ORIENTED_EDGE ( 'NONE', *, *, #547, .T. ) ;
#20 = EDGE_LOOP ( 'NONE', ( #404, #467, #609, #78 ) ) ;
#21 = AXIS2_PLACEMENT_3D ( 'NONE', #381, #577, #694 ) ;
#22 = PLANE ( 'NONE',  #695 ) ;
#23 = CIRCLE ( 'NONE', #45, 48.00000000000000700 ) ;
#24 = VERTEX_POINT ( 'NONE', #362 ) ;
#25 = VECTOR ( 'NONE', #156, 1000.000000000000000 ) ;
#26 = CARTESIAN_POINT ( 'NONE',  ( 0.0000000000000000000, 0.0000000000000000000, 0.0000000000000000000 ) ) ;
#27 = APPROVAL_STATUS ( 'not_yet_approved' ) ;
#28 = DIRECTION ( 'NONE',  ( 0.0000000000000000000, 0.0000000000000000000, 1.000000000000000000 ) ) ;
#29 = DIRECTION ( 'NONE',  ( -1.000000000000000000, -0.0000000000000000000, -0.0000000000000000000 ) ) ;
#30 = ORIENTED_EDGE ( 'NONE', *, *, #583, .F. ) ;
#31 = CARTESIAN_POINT ( 'NONE',  ( 519.9999999999998900, 0.0000000000000000000, 0.0000000000000000000 ) ) ;
#32 = ORIENTED_EDGE ( 'NONE', *, *, #360, .T. ) ;
#33 = CARTESIAN_POINT ( 'NONE',  ( 570.6236452769750300, 5.878304635907295800E-015, -48.00000000000000000 ) ) ;
#34 = AXIS2_PLACEMENT_3D ( 'NONE', #715, #282, #653 ) ;
#35 = EDGE_CURVE ( 'NONE', #130, #24, #314, .T. ) ;
#36 = ORIENTED_EDGE ( 'NONE', *, *, #84, .F. ) ;
#37 = DIRECTION ( 'NONE',  ( -1.000000000000000000, -0.0000000000000000000, -0.0000000000000000000 ) ) ;
#38 = APPROVAL_DATE_TIME ( #193, #17 ) ;
#39 = VECTOR ( 'NONE', #437, 1000.000000000000100 ) ;
#40 = ORIENTED_EDGE ( 'NONE', *, *, #220, .T. ) ;
#41 = CARTESIAN_POINT ( 'NONE',  ( 14.00000000000000000, -1.214306433183765000E-014, 0.0000000000000000000 ) ) ;
#42 = ORIENTED_EDGE ( 'NONE', *, *, #424, .F. ) ;
#43 = DIRECTION ( 'NONE',  ( 0.0000000000000000000, 0.0000000000000000000, 1.000000000000000000 ) ) ;
#44 = ADVANCED_FACE ( 'NONE', ( #423 ), #762, .T. ) ;
#45 = AXIS2_PLACEMENT_3D ( 'NONE', #226, #720, #539 ) ;
#46 = CARTESIAN_POINT ( 'NONE',  ( 201.9999999999999400, 0.0000000000000000000, 0.0000000000000000000 ) ) ;
#47 = DIRECTION ( 'NONE',  ( -0.8660254037844380400, 0.0000000000000000000, 0.5000000000000010000 ) ) ;
#48 = EDGE_CURVE ( 'NONE', #293, #231, #271, .T. ) ;
#49 = DIRECTION ( 'NONE',  ( -1.000000000000000000, -0.0000000000000000000, -0.0000000000000000000 ) ) ;
#50 = SHAPE_DEFINITION_REPRESENTATION ( #322, #203 ) ;
#51 = CARTESIAN_POINT ( 'NONE',  ( 490.5551362713291000, 0.0000000000000000000, -19.00000000000000000 ) ) ;
#52 = VERTEX_POINT ( 'NONE', #109 ) ;
#53 = CC_DESIGN_APPROVAL ( #17, ( #679 ) ) ;
#54 = LINE ( 'NONE', #272, #309 ) ;
#55 = DIRECTION ( 'NONE',  ( 1.000000000000000000, 0.0000000000000000000, 0.0000000000000000000 ) ) ;
#56 = ADVANCED_FACE ( 'NONE', ( #456 ), #468, .T. ) ;
#57 = ORIENTED_EDGE ( 'NONE', *, *, #335, .T. ) ;
#58 = DIRECTION ( 'NONE',  ( -1.000000000000000000, -0.0000000000000000000, -0.0000000000000000000 ) ) ;
#59 = APPROVAL_PERSON_ORGANIZATION ( #214, #17, #529 ) ;
#60 = AXIS2_PLACEMENT_3D ( 'NONE', #31, #462, #767 ) ;
#61 = LINE ( 'NONE', #739, #367 ) ;
#62 = CARTESIAN_POINT ( 'NONE',  ( 0.0000000000000000000, 5.878304635907295800E-015, -48.00000000000000000 ) ) ;
#63 = ORIENTED_EDGE ( 'NONE', *, *, #341, .F. ) ;
#64 = DIRECTION ( 'NONE',  ( -1.000000000000000000, -0.0000000000000000000, -0.0000000000000000000 ) ) ;
#65 = CARTESIAN_POINT ( 'NONE',  ( 0.0000000000000000000, 4.408728476930470100E-015, -35.99999999999999300 ) ) ;
#66 = MANIFOLD_SOLID_BREP ( '旋转1', #321 ) ;
#67 = CARTESIAN_POINT ( 'NONE',  ( 0.0000000000000000000, 0.0000000000000000000, 0.0000000000000000000 ) ) ;
#68 = CARTESIAN_POINT ( 'NONE',  ( 340.9999999999999400, 0.0000000000000000000, 0.0000000000000000000 ) ) ;
#69 = DIRECTION ( 'NONE',  ( -1.000000000000000000, -0.0000000000000000000, -0.0000000000000000000 ) ) ;
#70 = CONICAL_SURFACE ( 'NONE', #472, 19.00000000000000000, 0.5235987755983005900 ) ;
#71 = ORIENTED_EDGE ( 'NONE', *, *, #495, .F. ) ;
#72 = ORIENTED_EDGE ( 'NONE', *, *, #204, .F. ) ;
#73 = DIRECTION ( 'NONE',  ( 0.5000000000000046600, 1.060575238724903600E-016, 0.8660254037844359300 ) ) ;
#74 = AXIS2_PLACEMENT_3D ( 'NONE', #648, #217, #588 ) ;
#75 = COORDINATED_UNIVERSAL_TIME_OFFSET ( 8, 0, .AHEAD. ) ;
#76 = ORIENTED_EDGE ( 'NONE', *, *, #582, .F. ) ;
#77 = CYLINDRICAL_SURFACE ( 'NONE', #684, 2.500000000000000000 ) ;
#78 = ORIENTED_EDGE ( 'NONE', *, *, #182, .F. ) ;
#79 = DIRECTION ( 'NONE',  ( -1.000000000000000000, -0.0000000000000000000, -0.0000000000000000000 ) ) ;
#80 =( NAMED_UNIT ( * ) SI_UNIT ( $, .STERADIAN. ) SOLID_ANGLE_UNIT ( ) );
#81 = PERSON_AND_ORGANIZATION_ROLE ( 'creator' ) ;
#82 = LINE ( 'NONE', #592, #742 ) ;
#83 = ORIENTED_EDGE ( 'NONE', *, *, #252, .T. ) ;
#84 = EDGE_CURVE ( 'NONE', #190, #372, #222, .T. ) ;
#85 = VERTEX_POINT ( 'NONE', #287 ) ;
#86 = CARTESIAN_POINT ( 'NONE',  ( 201.9999999999999400, 2.816687638038912400E-015, -23.00000000000000000 ) ) ;
#87 = CIRCLE ( 'NONE', #142, 2.500000000000000000 ) ;
#88 = EDGE_LOOP ( 'NONE', ( #389, #276 ) ) ;
#89 = CC_DESIGN_SECURITY_CLASSIFICATION ( #679, ( #482 ) ) ;
#90 = DIRECTION ( 'NONE',  ( -1.000000000000000000, -0.0000000000000000000, -0.0000000000000000000 ) ) ;
#91 = CARTESIAN_POINT ( 'NONE',  ( 519.9999999999998900, 0.0000000000000000000, 35.99999999999999300 ) ) ;
#92 = CARTESIAN_POINT ( 'NONE',  ( 490.5551362713291000, 3.367778697655220900E-015, 19.00000000000000000 ) ) ;
#93 = DATE_AND_TIME ( #254, #430 ) ;
#94 = DIRECTION ( 'NONE',  ( 0.0000000000000000000, 0.0000000000000000000, 1.000000000000000000 ) ) ;
#95 = DIRECTION ( 'NONE',  ( -1.000000000000000000, -0.0000000000000000000, -0.0000000000000000000 ) ) ;
#96 = ORIENTED_EDGE ( 'NONE', *, *, #220, .F. ) ;
#97 = CIRCLE ( 'NONE', #21, 2.500000000000000000 ) ;
#98 = CARTESIAN_POINT ( 'NONE',  ( 0.0000000000000000000, 0.0000000000000000000, 0.0000000000000000000 ) ) ;
#99 = AXIS2_PLACEMENT_3D ( 'NONE', #141, #754, #212 ) ;
#100 = DIRECTION ( 'NONE',  ( 0.8660254037844379300, 6.123233995736784500E-017, 0.5000000000000014400 ) ) ;
#101 = EDGE_CURVE ( 'NONE', #231, #293, #747, .T. ) ;
#102 = CARTESIAN_POINT ( 'NONE',  ( 576.0000000000000000, 0.0000000000000000000, 39.00000000000002100 ) ) ;
#103 = CARTESIAN_POINT ( 'NONE',  ( 573.1809221376422600, 5.017860394288577400E-015, -40.97393957002302000 ) ) ;
#104 = ADVANCED_FACE ( 'NONE', ( #580 ), #599, .F. ) ;
#105 = CARTESIAN_POINT ( 'NONE',  ( 570.6236452769750300, 0.0000000000000000000, 0.0000000000000000000 ) ) ;
#106 = CARTESIAN_POINT ( 'NONE',  ( 3.897114317029963400, 4.439344646909155000E-016, -2.500000000000000000 ) ) ;
#107 = VECTOR ( 'NONE', #162, 1000.000000000000000 ) ;
#108 = EDGE_LOOP ( 'NONE', ( #687, #338, #713, #734 ) ) ;
#109 = CARTESIAN_POINT ( 'NONE',  ( 0.0000000000000000000, 0.0000000000000000000, 4.750000000000000000 ) ) ;
#110 = DIRECTION ( 'NONE',  ( -1.000000000000000000, -0.0000000000000000000, -0.0000000000000000000 ) ) ;
#111 = CYLINDRICAL_SURFACE ( 'NONE', #388, 48.00000000000000000 ) ;
#112 = CIRCLE ( 'NONE', #60, 35.99999999999999300 ) ;
#113 = FACE_OUTER_BOUND ( 'NONE', #108, .T. ) ;
#114 = VECTOR ( 'NONE', #49, 1000.000000000000000 ) ;
#115 = DIRECTION ( 'NONE',  ( 0.0000000000000000000, 0.0000000000000000000, 1.000000000000000000 ) ) ;
#116 = DIRECTION ( 'NONE',  ( 0.0000000000000000000, 0.0000000000000000000, 1.000000000000000000 ) ) ;
#117 = AXIS2_PLACEMENT_3D ( 'NONE', #408, #776, #345 ) ;
#118 = PERSON_AND_ORGANIZATION ( #428, #205 ) ;
#119 = CARTESIAN_POINT ( 'NONE',  ( 340.9999999999999400, 0.0000000000000000000, 18.99999999999998200 ) ) ;
#120 = ORIENTED_EDGE ( 'NONE', *, *, #760, .T. ) ;
#121 = ORIENTED_EDGE ( 'NONE', *, *, #760, .F. ) ;
#122 = DIRECTION ( 'NONE',  ( -1.000000000000000000, -0.0000000000000000000, -0.0000000000000000000 ) ) ;
#123 = CARTESIAN_POINT ( 'NONE',  ( 12.55662432702592000, 0.0000000000000000000, 2.500000000000000000 ) ) ;
#124 = CARTESIAN_POINT ( 'NONE',  ( 201.9999999999999400, 0.0000000000000000000, 23.00000000000000000 ) ) ;
#125 = AXIS2_PLACEMENT_3D ( 'NONE', #489, #58, #5 ) ;
#126 = FACE_OUTER_BOUND ( 'NONE', #534, .T. ) ;
#127 = ORIENTED_EDGE ( 'NONE', *, *, #598, .F. ) ;
#128 = ORIENTED_EDGE ( 'NONE', *, *, #515, .F. ) ;
#129 = FACE_OUTER_BOUND ( 'NONE', #210, .T. ) ;
#130 = VERTEX_POINT ( 'NONE', #221 ) ;
#131 = DIRECTION ( 'NONE',  ( -1.000000000000000000, -0.0000000000000000000, -0.0000000000000000000 ) ) ;
#132 = DIRECTION ( 'NONE',  ( -1.000000000000000000, -0.0000000000000000000, -0.0000000000000000000 ) ) ;
#133 = PRODUCT_RELATED_PRODUCT_CATEGORY ( 'detail', '', ( #492 ) ) ;
#134 = PERSON_AND_ORGANIZATION ( #428, #205 ) ;
#135 = EDGE_CURVE ( 'NONE', #85, #130, #566, .T. ) ;
#136 = ORIENTED_EDGE ( 'NONE', *, *, #719, .F. ) ;
#137 = CYLINDRICAL_SURFACE ( 'NONE', #629, 48.00000000000000000 ) ;
#138 = ORIENTED_EDGE ( 'NONE', *, *, #469, .F. ) ;
#139 = CIRCLE ( 'NONE', #261, 48.00000000000000700 ) ;
#140 = CARTESIAN_POINT ( 'NONE',  ( 0.0000000000000000000, 0.0000000000000000000, 23.00000000000000000 ) ) ;
#141 = CARTESIAN_POINT ( 'NONE',  ( 573.1809221376422600, 0.0000000000000000000, 0.0000000000000000000 ) ) ;
#142 = AXIS2_PLACEMENT_3D ( 'NONE', #324, #194, #260 ) ;
#143 = DIRECTION ( 'NONE',  ( -1.000000000000000000, -0.0000000000000000000, -0.0000000000000000000 ) ) ;
#144 = EDGE_CURVE ( 'NONE', #608, #642, #328, .T. ) ;
#145 = FACE_OUTER_BOUND ( 'NONE', #618, .T. ) ;
#146 = VERTEX_POINT ( 'NONE', #590 ) ;
#147 = APPLICATION_PROTOCOL_DEFINITION ( 'international standard', 'config_control_design', 1994, #574 ) ;
#148 = DATE_TIME_ROLE ( 'creation_date' ) ;
#149 = DIRECTION ( 'NONE',  ( 0.0000000000000000000, 0.0000000000000000000, 1.000000000000000000 ) ) ;
#150 = COORDINATED_UNIVERSAL_TIME_OFFSET ( 8, 0, .AHEAD. ) ;
#151 = VERTEX_POINT ( 'NONE', #102 ) ;
#152 = ORIENTED_EDGE ( 'NONE', *, *, #35, .F. ) ;
#153 = DIRECTION ( 'NONE',  ( -1.000000000000000000, -0.0000000000000000000, -0.0000000000000000000 ) ) ;
#154 = AXIS2_PLACEMENT_3D ( 'NONE', #351, #228, #594 ) ;
#155 = CARTESIAN_POINT ( 'NONE',  ( 577.0000000000000000, 0.0000000000000000000, 0.0000000000000000000 ) ) ;
#156 = DIRECTION ( 'NONE',  ( -0.3420201433256671600, 1.150791560227851000E-016, -0.9396926207859089800 ) ) ;
#157 = ADVANCED_FACE ( 'NONE', ( #250 ), #554, .T. ) ;
#158 = CIRCLE ( 'NONE', #125, 48.00000000000000000 ) ;
#159 = DIRECTION ( 'NONE',  ( -1.000000000000000000, -0.0000000000000000000, -0.0000000000000000000 ) ) ;
#160 = ORIENTED_EDGE ( 'NONE', *, *, #379, .F. ) ;
#161 = AXIS2_PLACEMENT_3D ( 'NONE', #667, #659, #483 ) ;
#162 = DIRECTION ( 'NONE',  ( -1.000000000000000000, -0.0000000000000000000, -0.0000000000000000000 ) ) ;
#163 = ADVANCED_FACE ( 'NONE', ( #418 ), #369, .F. ) ;
#164 = EDGE_CURVE ( 'NONE', #642, #608, #257, .T. ) ;
#165 = CARTESIAN_POINT ( 'NONE',  ( 576.0000000000000000, 0.0000000000000000000, 0.0000000000000000000 ) ) ;
#166 = ADVANCED_FACE ( 'NONE', ( #753 ), #710, .F. ) ;
#167 = EDGE_CURVE ( 'NONE', #751, #600, #268, .T. ) ;
#168 = ORIENTED_EDGE ( 'NONE', *, *, #354, .T. ) ;
#169 = EDGE_LOOP ( 'NONE', ( #513, #329, #758, #470 ) ) ;
#170 = CARTESIAN_POINT ( 'NONE',  ( 0.0000000000000000000, 0.0000000000000000000, 0.0000000000000000000 ) ) ;
#171 = ORIENTED_EDGE ( 'NONE', *, *, #391, .F. ) ;
#172 = CARTESIAN_POINT ( 'NONE',  ( 0.0000000000000000000, 0.0000000000000000000, 0.0000000000000000000 ) ) ;
#173 = PLANE ( 'NONE',  #161 ) ;
#174 = AXIS2_PLACEMENT_3D ( 'NONE', #337, #273, #397 ) ;
#175 = CARTESIAN_POINT ( 'NONE',  ( 0.0000000000000000000, 5.817072295949927400E-016, -4.750000000000000000 ) ) ;
#176 = VECTOR ( 'NONE', #551, 1000.000000000000000 ) ;
#177 = EDGE_LOOP ( 'NONE', ( #505, #496, #619, #623 ) ) ;
#178 = EDGE_CURVE ( 'NONE', #130, #85, #420, .T. ) ;
#179 = ORIENTED_EDGE ( 'NONE', *, *, #546, .T. ) ;
#180 = CARTESIAN_POINT ( 'NONE',  ( 576.0000000000000000, 0.0000000000000000000, 0.0000000000000000000 ) ) ;
#181 = CONICAL_SURFACE ( 'NONE', #735, 2.500000000000000000, 1.047197551196591200 ) ;
#182 = EDGE_CURVE ( 'NONE', #231, #579, #310, .T. ) ;
#183 = EDGE_LOOP ( 'NONE', ( #188, #419, #689, #136 ) ) ;
#184 = CARTESIAN_POINT ( 'NONE',  ( 495.9999999999999400, 5.878304635907296600E-015, 48.00000000000000700 ) ) ;
#185 = AXIS2_PLACEMENT_3D ( 'NONE', #26, #635, #200 ) ;
#186 = CIRCLE ( 'NONE', #591, 18.99999999999998200 ) ;
#187 = DIRECTION ( 'NONE',  ( 0.0000000000000000000, 0.0000000000000000000, -1.000000000000000000 ) ) ;
#188 = ORIENTED_EDGE ( 'NONE', *, *, #308, .F. ) ;
#189 = DIRECTION ( 'NONE',  ( -1.000000000000000000, -0.0000000000000000000, -0.0000000000000000000 ) ) ;
#190 = VERTEX_POINT ( 'NONE', #33 ) ;
#191 = ORIENTED_EDGE ( 'NONE', *, *, #182, .T. ) ;
#192 = AXIS2_PLACEMENT_3D ( 'NONE', #155, #527, #94 ) ;
#193 = DATE_AND_TIME ( #366, #531 ) ;
#194 = DIRECTION ( 'NONE',  ( -1.000000000000000000, -0.0000000000000000000, -0.0000000000000000000 ) ) ;
#195 = FACE_OUTER_BOUND ( 'NONE', #564, .T. ) ;
#196 = EDGE_CURVE ( 'NONE', #455, #510, #198, .T. ) ;
#197 = VERTEX_POINT ( 'NONE', #91 ) ;
#198 = CIRCLE ( 'NONE', #402, 35.99999999999999300 ) ;
#199 = DIRECTION ( 'NONE',  ( 0.0000000000000000000, 0.0000000000000000000, 1.000000000000000000 ) ) ;
#200 = DIRECTION ( 'NONE',  ( 1.000000000000000000, 0.0000000000000000000, 0.0000000000000000000 ) ) ;
#201 = AXIS2_PLACEMENT_3D ( 'NONE', #165, #544, #115 ) ;
#202 = CARTESIAN_POINT ( 'NONE',  ( 573.1809221376422600, 0.0000000000000000000, 40.97393957002302000 ) ) ;
#203 = ADVANCED_BREP_SHAPE_REPRESENTATION ( '锥杆', ( #66, #185 ), #578 ) ;
#204 = EDGE_CURVE ( 'NONE', #197, #361, #487, .T. ) ;
#205 = ORGANIZATION ( '未指定', '未指定', '' ) ;
#206 = DIRECTION ( 'NONE',  ( -1.000000000000000000, -0.0000000000000000000, -0.0000000000000000000 ) ) ;
#207 = EDGE_LOOP ( 'NONE', ( #701, #371, #597, #265 ) ) ;
#208 = ORIENTED_EDGE ( 'NONE', *, *, #504, .F. ) ;
#209 = DIRECTION ( 'NONE',  ( -1.000000000000000000, -0.0000000000000000000, -0.0000000000000000000 ) ) ;
#210 = EDGE_LOOP ( 'NONE', ( #499, #722, #168, #291 ) ) ;
#211 = DIRECTION ( 'NONE',  ( 0.9964040974513356200, 0.0000000000000000000, -0.08472823957919524400 ) ) ;
#212 = DIRECTION ( 'NONE',  ( 0.0000000000000000000, 0.0000000000000000000, 1.000000000000000000 ) ) ;
#213 = DIRECTION ( 'NONE',  ( 1.000000000000000000, 0.0000000000000000000, 0.0000000000000000000 ) ) ;
#214 = PERSON_AND_ORGANIZATION ( #428, #205 ) ;
#215 = LINE ( 'NONE', #65, #686 ) ;
#216 = ORIENTED_EDGE ( 'NONE', *, *, #678, .F. ) ;
#217 = DIRECTION ( 'NONE',  ( -1.000000000000000000, -0.0000000000000000000, -0.0000000000000000000 ) ) ;
#218 = AXIS2_PLACEMENT_3D ( 'NONE', #68, #69, #677 ) ;
#219 = ADVANCED_FACE ( 'NONE', ( #744 ), #386, .F. ) ;
#220 = EDGE_CURVE ( 'NONE', #603, #751, #773, .T. ) ;
#221 = CARTESIAN_POINT ( 'NONE',  ( 573.1809221376422600, 5.448082515097935800E-015, -40.97393957002302000 ) ) ;
#222 = CIRCLE ( 'NONE', #4, 48.00000000000000000 ) ;
#223 = DIRECTION ( 'NONE',  ( 0.8660254037844379300, 0.0000000000000000000, -0.5000000000000014400 ) ) ;
#224 = EDGE_CURVE ( 'NONE', #231, #247, #54, .T. ) ;
#225 = ADVANCED_FACE ( 'NONE', ( #498 ), #256, .F. ) ;
#226 = CARTESIAN_POINT ( 'NONE',  ( 495.9999999999999400, 0.0000000000000000000, 0.0000000000000000000 ) ) ;
#227 = CC_DESIGN_PERSON_AND_ORGANIZATION_ASSIGNMENT ( #640, #263, ( #492 ) ) ;
#228 = DIRECTION ( 'NONE',  ( -1.000000000000000000, -0.0000000000000000000, -0.0000000000000000000 ) ) ;
#229 = CYLINDRICAL_SURFACE ( 'NONE', #658, 23.00000000000000000 ) ;
#230 = CARTESIAN_POINT ( 'NONE',  ( 12.55662432702592000, 0.0000000000000000000, 0.0000000000000000000 ) ) ;
#231 = VERTEX_POINT ( 'NONE', #86 ) ;
#232 = ADVANCED_FACE ( 'NONE', ( #289 ), #77, .F. ) ;
#233 = CARTESIAN_POINT ( 'NONE',  ( 495.9999999999999400, 0.0000000000000000000, 0.0000000000000000000 ) ) ;
#234 = DIRECTION ( 'NONE',  ( 0.0000000000000000000, 0.0000000000000000000, 1.000000000000000000 ) ) ;
#235 = DIRECTION ( 'NONE',  ( 0.0000000000000000000, 0.0000000000000000000, -1.000000000000000000 ) ) ;
#236 = AXIS2_PLACEMENT_3D ( 'NONE', #587, #213, #343 ) ;
#237 = DIRECTION ( 'NONE',  ( -1.000000000000000000, -0.0000000000000000000, -0.0000000000000000000 ) ) ;
#238 = PERSON_AND_ORGANIZATION ( #428, #205 ) ;
#239 = ORIENTED_EDGE ( 'NONE', *, *, #336, .T. ) ;
#240 = DIRECTION ( 'NONE',  ( 0.0000000000000000000, 0.0000000000000000000, 1.000000000000000000 ) ) ;
#241 = LINE ( 'NONE', #202, #633 ) ;
#242 = EDGE_CURVE ( 'NONE', #708, #398, #752, .T. ) ;
#243 = ORIENTED_EDGE ( 'NONE', *, *, #295, .F. ) ;
#244 = AXIS2_PLACEMENT_3D ( 'NONE', #1, #55, #235 ) ;
#245 = DIRECTION ( 'NONE',  ( 0.9964040974513356200, 1.037621673980515400E-017, 0.08472823957919524400 ) ) ;
#246 = CIRCLE ( 'NONE', #503, 23.00000000000000000 ) ;
#247 = VERTEX_POINT ( 'NONE', #636 ) ;
#248 = ORIENTED_EDGE ( 'NONE', *, *, #391, .T. ) ;
#249 = EDGE_CURVE ( 'NONE', #600, #52, #625, .T. ) ;
#250 = FACE_OUTER_BOUND ( 'NONE', #320, .T. ) ;
#251 = CARTESIAN_POINT ( 'NONE',  ( 576.0000000000000000, 0.0000000000000000000, 41.99999999999999300 ) ) ;
#252 = EDGE_CURVE ( 'NONE', #85, #372, #241, .T. ) ;
#253 = CARTESIAN_POINT ( 'NONE',  ( 490.5551362713291000, 0.0000000000000000000, 0.0000000000000000000 ) ) ;
#254 = CALENDAR_DATE ( 2025, 10, 3 ) ;
#255 = ORIENTED_EDGE ( 'NONE', *, *, #560, .T. ) ;
#256 = TOROIDAL_SURFACE ( 'NONE', #611, 41.99999999999999300, 2.999999999999978200 ) ;
#257 = CIRCLE ( 'NONE', #192, 39.00000000000000000 ) ;
#258 = VECTOR ( 'NONE', #535, 1000.000000000000000 ) ;
#259 = ORIENTED_EDGE ( 'NONE', *, *, #761, .T. ) ;
#260 = DIRECTION ( 'NONE',  ( 0.0000000000000000000, 0.0000000000000000000, 1.000000000000000000 ) ) ;
#261 = AXIS2_PLACEMENT_3D ( 'NONE', #501, #438, #13 ) ;
#262 = EDGE_CURVE ( 'NONE', #398, #651, #512, .T. ) ;
#263 = PERSON_AND_ORGANIZATION_ROLE ( 'design_owner' ) ;
#264 = VECTOR ( 'NONE', #223, 999.9999999999998900 ) ;
#265 = ORIENTED_EDGE ( 'NONE', *, *, #476, .F. ) ;
#266 = ORIENTED_EDGE ( 'NONE', *, *, #249, .F. ) ;
#267 = PRODUCT_DEFINITION ( '未知', '', #482, #463 ) ;
#268 = LINE ( 'NONE', #340, #507 ) ;
#269 = CYLINDRICAL_SURFACE ( 'NONE', #174, 39.00000000000000700 ) ;
#270 = CARTESIAN_POINT ( 'NONE',  ( 519.9999999999998900, 4.408728476930470100E-015, -35.99999999999999300 ) ) ;
#271 = CIRCLE ( 'NONE', #703, 23.00000000000000000 ) ;
#272 = CARTESIAN_POINT ( 'NONE',  ( 0.0000000000000000000, 2.816687638038912400E-015, -23.00000000000000000 ) ) ;
#273 = DIRECTION ( 'NONE',  ( -1.000000000000000000, -0.0000000000000000000, -0.0000000000000000000 ) ) ;
#274 = DIRECTION ( 'NONE',  ( -1.000000000000000000, -0.0000000000000000000, -0.0000000000000000000 ) ) ;
#275 = DATE_AND_TIME ( #445, #607 ) ;
#276 = ORIENTED_EDGE ( 'NONE', *, *, #427, .T. ) ;
#277 = AXIS2_PLACEMENT_3D ( 'NONE', #712, #410, #532 ) ;
#278 = APPROVAL_STATUS ( 'not_yet_approved' ) ;
#279 = EDGE_LOOP ( 'NONE', ( #631, #696, #697, #368 ) ) ;
#280 = VECTOR ( 'NONE', #73, 1000.000000000000000 ) ;
#281 = DIRECTION ( 'NONE',  ( 0.0000000000000000000, 0.0000000000000000000, 1.000000000000000000 ) ) ;
#282 = DIRECTION ( 'NONE',  ( -1.000000000000000000, -0.0000000000000000000, -0.0000000000000000000 ) ) ;
#283 = DIRECTION ( 'NONE',  ( 0.0000000000000000000, 0.0000000000000000000, 1.000000000000000000 ) ) ;
#284 = ADVANCED_FACE ( 'NONE', ( #421 ), #181, .F. ) ;
#285 = LINE ( 'NONE', #481, #8 ) ;
#286 = ORIENTED_EDGE ( 'NONE', *, *, #135, .F. ) ;
#287 = CARTESIAN_POINT ( 'NONE',  ( 573.1809221376422600, 0.0000000000000000000, 40.97393957002302000 ) ) ;
#288 = AXIS2_PLACEMENT_3D ( 'NONE', #170, #606, #116 ) ;
#289 = FACE_OUTER_BOUND ( 'NONE', #485, .T. ) ;
#290 = LINE ( 'NONE', #520, #545 ) ;
#291 = ORIENTED_EDGE ( 'NONE', *, *, #439, .F. ) ;
#292 = DIRECTION ( 'NONE',  ( -0.0000000000000000000, 1.000000000000000000, 1.224646799147353200E-016 ) ) ;
#293 = VERTEX_POINT ( 'NONE', #124 ) ;
#294 = CARTESIAN_POINT ( 'NONE',  ( 0.0000000000000000000, 0.0000000000000000000, 0.0000000000000000000 ) ) ;
#295 = EDGE_CURVE ( 'NONE', #190, #579, #311, .T. ) ;
#296 = CIRCLE ( 'NONE', #218, 18.99999999999998200 ) ;
#297 = APPROVAL_DATE_TIME ( #464, #315 ) ;
#298 = CARTESIAN_POINT ( 'NONE',  ( 577.0000000000000000, 0.0000000000000000000, 39.00000000000000000 ) ) ;
#299 = ORIENTED_EDGE ( 'NONE', *, *, #335, .F. ) ;
#300 = ORIENTED_EDGE ( 'NONE', *, *, #530, .F. ) ;
#301 = DIRECTION ( 'NONE',  ( -0.3420201433256671600, 0.0000000000000000000, 0.9396926207859089800 ) ) ;
#302 = DIRECTION ( 'NONE',  ( -1.000000000000000000, -0.0000000000000000000, -0.0000000000000000000 ) ) ;
#303 = CARTESIAN_POINT ( 'NONE',  ( 577.0000000000000000, 0.0000000000000000000, 0.0000000000000000000 ) ) ;
#304 = AXIS2_PLACEMENT_3D ( 'NONE', #453, #95, #764 ) ;
#305 = CYLINDRICAL_SURFACE ( 'NONE', #288, 23.00000000000000000 ) ;
#306 = ORIENTED_EDGE ( 'NONE', *, *, #495, .T. ) ;
#307 = DIRECTION ( 'NONE',  ( -1.000000000000000000, -0.0000000000000000000, -0.0000000000000000000 ) ) ;
#308 = EDGE_CURVE ( 'NONE', #751, #603, #711, .T. ) ;
#309 = VECTOR ( 'NONE', #399, 1000.000000000000000 ) ;
#310 = LINE ( 'NONE', #644, #405 ) ;
#311 = LINE ( 'NONE', #62, #258 ) ;
#312 = EDGE_LOOP ( 'NONE', ( #502, #586, #83, #36 ) ) ;
#313 = DIRECTION ( 'NONE',  ( 0.0000000000000000000, 0.0000000000000000000, 1.000000000000000000 ) ) ;
#314 = CIRCLE ( 'NONE', #621, 2.999999999999975100 ) ;
#315 = APPROVAL ( #27, '未指定' ) ;
#316 = EDGE_CURVE ( 'NONE', #130, #190, #737, .T. ) ;
#317 = CARTESIAN_POINT ( 'NONE',  ( 0.0000000000000000000, 0.0000000000000000000, 0.0000000000000000000 ) ) ;
#318 = DIRECTION ( 'NONE',  ( -1.000000000000000000, -0.0000000000000000000, -0.0000000000000000000 ) ) ;
#319 = APPROVAL_PERSON_ORGANIZATION ( #484, #315, #392 ) ;
#320 = EDGE_LOOP ( 'NONE', ( #160, #446, #32, #216 ) ) ;
#321 = CLOSED_SHELL ( 'NONE', ( #232, #725, #166, #219, #471, #413, #376, #225, #409, #426, #44, #781, #718, #777, #785, #656, #56, #478, #728, #540, #157, #593, #104, #661, #536, #714, #284, #163 ) ) ;
#322 = PRODUCT_DEFINITION_SHAPE ( 'NONE', 'NONE',  #267 ) ;
#323 = AXIS2_PLACEMENT_3D ( 'NONE', #98, #37, #281 ) ;
#324 = CARTESIAN_POINT ( 'NONE',  ( 12.55662432702592000, 0.0000000000000000000, 0.0000000000000000000 ) ) ;
#325 = LINE ( 'NONE', #16, #676 ) ;
#326 = FACE_OUTER_BOUND ( 'NONE', #177, .T. ) ;
#327 = VERTEX_POINT ( 'NONE', #41 ) ;
#328 = CIRCLE ( 'NONE', #74, 39.00000000000000000 ) ;
#329 = ORIENTED_EDGE ( 'NONE', *, *, #560, .F. ) ;
#330 = CONICAL_SURFACE ( 'NONE', #99, 40.97393957002302000, 1.221730476396032400 ) ;
#331 = ORIENTED_EDGE ( 'NONE', *, *, #582, .T. ) ;
#332 = APPLICATION_PROTOCOL_DEFINITION ( 'international standard', 'config_control_design', 1994, #759 ) ;
#333 = AXIS2_PLACEMENT_3D ( 'NONE', #429, #660, #605 ) ;
#334 = CARTESIAN_POINT ( 'NONE',  ( 490.5551362713291000, 2.326828918379971000E-015, 19.00000000000000000 ) ) ;
#335 = EDGE_CURVE ( 'NONE', #350, #680, #97, .T. ) ;
#336 = EDGE_CURVE ( 'NONE', #398, #197, #477, .T. ) ;
#337 = CARTESIAN_POINT ( 'NONE',  ( 0.0000000000000000000, 0.0000000000000000000, 0.0000000000000000000 ) ) ;
#338 = ORIENTED_EDGE ( 'NONE', *, *, #460, .F. ) ;
#339 = CARTESIAN_POINT ( 'NONE',  ( 0.0000000000000000000, 0.0000000000000000000, 0.0000000000000000000 ) ) ;
#340 = CARTESIAN_POINT ( 'NONE',  ( 0.0000000000000000000, 5.817072295949927400E-016, -4.750000000000000000 ) ) ;
#341 = EDGE_CURVE ( 'NONE', #293, #465, #617, .T. ) ;
#342 = CIRCLE ( 'NONE', #436, 19.00000000000000000 ) ;
#343 = DIRECTION ( 'NONE',  ( 0.0000000000000000000, 0.0000000000000000000, -1.000000000000000000 ) ) ;
#344 = PERSON_AND_ORGANIZATION_ROLE ( 'creator' ) ;
#345 = DIRECTION ( 'NONE',  ( 0.0000000000000000000, 0.0000000000000000000, 1.000000000000000000 ) ) ;
#346 = AXIS2_PLACEMENT_3D ( 'NONE', #548, #79, #199 ) ;
#347 = LINE ( 'NONE', #7, #176 ) ;
#348 = CARTESIAN_POINT ( 'NONE',  ( 3.897114317029963400, 0.0000000000000000000, 0.0000000000000000000 ) ) ;
#349 = EDGE_LOOP ( 'NONE', ( #441, #331, #248 ) ) ;
#350 = VERTEX_POINT ( 'NONE', #637 ) ;
#351 = CARTESIAN_POINT ( 'NONE',  ( 0.0000000000000000000, 0.0000000000000000000, 0.0000000000000000000 ) ) ;
#352 = CARTESIAN_POINT ( 'NONE',  ( 0.0000000000000000000, 0.0000000000000000000, 0.0000000000000000000 ) ) ;
#353 = ORIENTED_EDGE ( 'NONE', *, *, #135, .T. ) ;
#354 = EDGE_CURVE ( 'NONE', #361, #197, #112, .T. ) ;
#355 = DIRECTION ( 'NONE',  ( 1.000000000000000000, 0.0000000000000000000, 0.0000000000000000000 ) ) ;
#356 = DIRECTION ( 'NONE',  ( -1.000000000000000000, -0.0000000000000000000, -0.0000000000000000000 ) ) ;
#357 = CC_DESIGN_APPROVAL ( #315, ( #267 ) ) ;
#358 = DIRECTION ( 'NONE',  ( 1.000000000000000000, 0.0000000000000000000, 0.0000000000000000000 ) ) ;
#359 = DIRECTION ( 'NONE',  ( -1.000000000000000000, -0.0000000000000000000, -0.0000000000000000000 ) ) ;
#360 = EDGE_CURVE ( 'NONE', #608, #151, #290, .T. ) ;
#361 = VERTEX_POINT ( 'NONE', #270 ) ;
#362 = CARTESIAN_POINT ( 'NONE',  ( 576.0000000000000000, 4.896991455481628400E-015, -39.00000000000002100 ) ) ;
#363 = FACE_OUTER_BOUND ( 'NONE', #279, .T. ) ;
#364 = DIRECTION ( 'NONE',  ( -1.000000000000000000, -0.0000000000000000000, -0.0000000000000000000 ) ) ;
#365 = AXIS2_PLACEMENT_3D ( 'NONE', #584, #153, #526 ) ;
#366 = CALENDAR_DATE ( 2025, 10, 3 ) ;
#367 = VECTOR ( 'NONE', #671, 1000.000000000000100 ) ;
#368 = ORIENTED_EDGE ( 'NONE', *, *, #360, .F. ) ;
#369 = CYLINDRICAL_SURFACE ( 'NONE', #323, 2.500000000000000000 ) ;
#370 = VECTOR ( 'NONE', #302, 1000.000000000000000 ) ;
#371 = ORIENTED_EDGE ( 'NONE', *, *, #35, .T. ) ;
#372 = VERTEX_POINT ( 'NONE', #700 ) ;
#373 = CARTESIAN_POINT ( 'NONE',  ( 0.0000000000000000000, 0.0000000000000000000, 0.0000000000000000000 ) ) ;
#374 = AXIS2_PLACEMENT_3D ( 'NONE', #294, #359, #234 ) ;
#375 = DIRECTION ( 'NONE',  ( 0.0000000000000000000, 0.0000000000000000000, 1.000000000000000000 ) ) ;
#376 = ADVANCED_FACE ( 'NONE', ( #363 ), #269, .T. ) ;
#377 = CONICAL_SURFACE ( 'NONE', #538, 4.750000000000000000, 0.5235987755983000400 ) ;
#378 = EDGE_LOOP ( 'NONE', ( #243, #3, #259, #30 ) ) ;
#379 = EDGE_CURVE ( 'NONE', #642, #24, #601, .T. ) ;
#380 = EDGE_LOOP ( 'NONE', ( #521, #239, #417, #121 ) ) ;
#381 = CARTESIAN_POINT ( 'NONE',  ( 12.55662432702592000, 0.0000000000000000000, 0.0000000000000000000 ) ) ;
#382 = DATE_AND_TIME ( #550, #707 ) ;
#383 = DIRECTION ( 'NONE',  ( -1.000000000000000000, -0.0000000000000000000, -0.0000000000000000000 ) ) ;
#384 = CYLINDRICAL_SURFACE ( 'NONE', #756, 18.99999999999998900 ) ;
#385 = ORIENTED_EDGE ( 'NONE', *, *, #719, .T. ) ;
#386 = CYLINDRICAL_SURFACE ( 'NONE', #570, 18.99999999999998900 ) ;
#387 = DIRECTION ( 'NONE',  ( 0.0000000000000000000, 0.0000000000000000000, -1.000000000000000000 ) ) ;
#388 = AXIS2_PLACEMENT_3D ( 'NONE', #778, #458, #375 ) ;
#389 = ORIENTED_EDGE ( 'NONE', *, *, #740, .T. ) ;
#390 =( NAMED_UNIT ( * ) PLANE_ANGLE_UNIT ( ) SI_UNIT ( $, .RADIAN. ) );
#391 = EDGE_CURVE ( 'NONE', #680, #350, #87, .T. ) ;
#392 = APPROVAL_ROLE ( '' ) ;
#393 = CC_DESIGN_PERSON_AND_ORGANIZATION_ASSIGNMENT ( #134, #81, ( #267 ) ) ;
#394 = LINE ( 'NONE', #675, #488 ) ;
#395 = FACE_BOUND ( 'NONE', #486, .T. ) ;
#396 = ORIENTED_EDGE ( 'NONE', *, *, #167, .F. ) ;
#397 = DIRECTION ( 'NONE',  ( 0.0000000000000000000, 0.0000000000000000000, 1.000000000000000000 ) ) ;
#398 = VERTEX_POINT ( 'NONE', #92 ) ;
#399 = DIRECTION ( 'NONE',  ( -1.000000000000000000, -0.0000000000000000000, -0.0000000000000000000 ) ) ;
#400 = LINE ( 'NONE', #422, #114 ) ;
#401 = DIRECTION ( 'NONE',  ( 0.0000000000000000000, 0.0000000000000000000, 1.000000000000000000 ) ) ;
#402 = AXIS2_PLACEMENT_3D ( 'NONE', #702, #274, #641 ) ;
#403 = PERSON_AND_ORGANIZATION ( #428, #205 ) ;
#404 = ORIENTED_EDGE ( 'NONE', *, *, #48, .F. ) ;
#405 = VECTOR ( 'NONE', #211, 999.9999999999998900 ) ;
#406 = CARTESIAN_POINT ( 'NONE',  ( 0.0000000000000000000, 0.0000000000000000000, 23.00000000000000000 ) ) ;
#407 = ORIENTED_EDGE ( 'NONE', *, *, #459, .T. ) ;
#408 = CARTESIAN_POINT ( 'NONE',  ( 573.1809221376422600, 0.0000000000000000000, 0.0000000000000000000 ) ) ;
#409 = ADVANCED_FACE ( 'NONE', ( #682 ), #330, .T. ) ;
#410 = DIRECTION ( 'NONE',  ( -1.000000000000000000, -0.0000000000000000000, -0.0000000000000000000 ) ) ;
#411 = CARTESIAN_POINT ( 'NONE',  ( 490.5551362713291000, 0.0000000000000000000, -19.00000000000000000 ) ) ;
#412 = DIRECTION ( 'NONE',  ( -1.000000000000000000, -0.0000000000000000000, -0.0000000000000000000 ) ) ;
#413 = ADVANCED_FACE ( 'NONE', ( #129 ), #709, .F. ) ;
#414 = AXIS2_PLACEMENT_3D ( 'NONE', #230, #110, #724 ) ;
#415 = FACE_OUTER_BOUND ( 'NONE', #780, .T. ) ;
#416 = CARTESIAN_POINT ( 'NONE',  ( 573.1809221376422600, 0.0000000000000000000, 0.0000000000000000000 ) ) ;
#417 = ORIENTED_EDGE ( 'NONE', *, *, #354, .F. ) ;
#418 = FACE_OUTER_BOUND ( 'NONE', #765, .T. ) ;
#419 = ORIENTED_EDGE ( 'NONE', *, *, #167, .T. ) ;
#420 = CIRCLE ( 'NONE', #365, 40.97393957002302000 ) ;
#421 = FACE_OUTER_BOUND ( 'NONE', #349, .T. ) ;
#422 = CARTESIAN_POINT ( 'NONE',  ( 0.0000000000000000000, 3.061616997868383100E-016, -2.500000000000000000 ) ) ;
#423 = FACE_OUTER_BOUND ( 'NONE', #20, .T. ) ;
#424 = EDGE_CURVE ( 'NONE', #525, #579, #139, .T. ) ;
#425 = ORIENTED_EDGE ( 'NONE', *, *, #581, .T. ) ;
#426 = ADVANCED_FACE ( 'NONE', ( #500 ), #111, .T. ) ;
#427 = EDGE_CURVE ( 'NONE', #247, #465, #772, .T. ) ;
#428 = PERSON ( '未指定', '未指定', '未指定', ('未指定'), ('未指定'), ('未指定') ) ;
#429 = CARTESIAN_POINT ( 'NONE',  ( 1330.030344885397000, 0.0000000000000000000, 0.0000000000000000000 ) ) ;
#430 = LOCAL_TIME ( 8, 47, 36.00000000000000000, #585 ) ;
#431 = ORIENTED_EDGE ( 'NONE', *, *, #459, .F. ) ;
#432 = FACE_OUTER_BOUND ( 'NONE', #452, .T. ) ;
#433 = CARTESIAN_POINT ( 'NONE',  ( 12.55662432702592000, 0.0000000000000000000, 0.0000000000000000000 ) ) ;
#434 = ORIENTED_EDGE ( 'NONE', *, *, #164, .F. ) ;
#435 = DIRECTION ( 'NONE',  ( 0.0000000000000000000, 0.0000000000000000000, 1.000000000000000000 ) ) ;
#436 = AXIS2_PLACEMENT_3D ( 'NONE', #748, #318, #681 ) ;
#437 = DIRECTION ( 'NONE',  ( -0.5000000000000056600, 0.0000000000000000000, 0.8660254037844352700 ) ) ;
#438 = DIRECTION ( 'NONE',  ( -1.000000000000000000, -0.0000000000000000000, -0.0000000000000000000 ) ) ;
#439 = EDGE_CURVE ( 'NONE', #510, #197, #664, .T. ) ;
#440 = CONICAL_SURFACE ( 'NONE', #374, 4.750000000000000000, 0.5235987755983000400 ) ;
#441 = ORIENTED_EDGE ( 'NONE', *, *, #546, .F. ) ;
#442 = ORIENTED_EDGE ( 'NONE', *, *, #469, .T. ) ;
#443 = CC_DESIGN_DATE_AND_TIME_ASSIGNMENT ( #275, #148, ( #267 ) ) ;
#444 = DIRECTION ( 'NONE',  ( 0.0000000000000000000, 0.0000000000000000000, 1.000000000000000000 ) ) ;
#445 = CALENDAR_DATE ( 2025, 10, 3 ) ;
#446 = ORIENTED_EDGE ( 'NONE', *, *, #164, .T. ) ;
#447 = EDGE_LOOP ( 'NONE', ( #128, #643, #191, #691 ) ) ;
#448 = FACE_OUTER_BOUND ( 'NONE', #378, .T. ) ;
#449 = AXIS2_PLACEMENT_3D ( 'NONE', #523, #90, #461 ) ;
#450 = CONICAL_SURFACE ( 'NONE', #244, 19.00000000000000000, 0.5235987755983005900 ) ;
#451 = VERTEX_POINT ( 'NONE', #628 ) ;
#452 = EDGE_LOOP ( 'NONE', ( #152, #286, #514, #19 ) ) ;
#453 = CARTESIAN_POINT ( 'NONE',  ( 0.0000000000000000000, 0.0000000000000000000, 0.0000000000000000000 ) ) ;
#454 = AXIS2_PLACEMENT_3D ( 'NONE', #416, #356, #537 ) ;
#455 = VERTEX_POINT ( 'NONE', #741 ) ;
#456 = FACE_OUTER_BOUND ( 'NONE', #447, .T. ) ;
#457 = DIRECTION ( 'NONE',  ( -1.000000000000000000, -0.0000000000000000000, -0.0000000000000000000 ) ) ;
#458 = DIRECTION ( 'NONE',  ( -1.000000000000000000, -0.0000000000000000000, -0.0000000000000000000 ) ) ;
#459 = EDGE_CURVE ( 'NONE', #451, #651, #296, .T. ) ;
#460 = EDGE_CURVE ( 'NONE', #398, #708, #342, .T. ) ;
#461 = DIRECTION ( 'NONE',  ( 0.0000000000000000000, 0.0000000000000000000, 1.000000000000000000 ) ) ;
#462 = DIRECTION ( 'NONE',  ( -1.000000000000000000, -0.0000000000000000000, -0.0000000000000000000 ) ) ;
#463 = DESIGN_CONTEXT ( 'detailed design', #759, 'design' ) ;
#464 = DATE_AND_TIME ( #622, #2 ) ;
#465 = VERTEX_POINT ( 'NONE', #140 ) ;
#466 = CARTESIAN_POINT ( 'NONE',  ( 0.0000000000000000000, 4.776122516674678700E-015, -39.00000000000000700 ) ) ;
#467 = ORIENTED_EDGE ( 'NONE', *, *, #515, .T. ) ;
#468 = CONICAL_SURFACE ( 'NONE', #749, 48.00000000000000700, 0.08482994404619567700 ) ;
#469 = EDGE_CURVE ( 'NONE', #680, #603, #325, .T. ) ;
#470 = ORIENTED_EDGE ( 'NONE', *, *, #204, .T. ) ;
#471 = ADVANCED_FACE ( 'NONE', ( #706 ), #70, .F. ) ;
#472 = AXIS2_PLACEMENT_3D ( 'NONE', #253, #573, #567 ) ;
#473 = LINE ( 'NONE', #596, #107 ) ;
#474 = ORIENTED_EDGE ( 'NONE', *, *, #15, .F. ) ;
#475 = DIRECTION ( 'NONE',  ( -1.000000000000000000, -0.0000000000000000000, -0.0000000000000000000 ) ) ;
#476 = EDGE_CURVE ( 'NONE', #85, #151, #12, .T. ) ;
#477 = LINE ( 'NONE', #334, #699 ) ;
#478 = ADVANCED_FACE ( 'NONE', ( #448 ), #137, .T. ) ;
#479 = ORIENTED_EDGE ( 'NONE', *, *, #598, .T. ) ;
#480 = CARTESIAN_POINT ( 'NONE',  ( 495.9999999999999400, 0.0000000000000000000, 0.0000000000000000000 ) ) ;
#481 = CARTESIAN_POINT ( 'NONE',  ( 0.0000000000000000000, 0.0000000000000000000, 4.750000000000000000 ) ) ;
#482 = PRODUCT_DEFINITION_FORMATION_WITH_SPECIFIED_SOURCE ( '任何', '', #492, .NOT_KNOWN. ) ;
#483 = DIRECTION ( 'NONE',  ( -0.0000000000000000000, 0.0000000000000000000, 1.000000000000000000 ) ) ;
#484 = PERSON_AND_ORGANIZATION ( #428, #205 ) ;
#485 = EDGE_LOOP ( 'NONE', ( #299, #11, #552, #138 ) ) ;
#486 = EDGE_LOOP ( 'NONE', ( #300, #266 ) ) ;
#487 = CIRCLE ( 'NONE', #449, 35.99999999999999300 ) ;
#488 = VECTOR ( 'NONE', #245, 999.9999999999998900 ) ;
#489 = CARTESIAN_POINT ( 'NONE',  ( 570.6236452769750300, 0.0000000000000000000, 0.0000000000000000000 ) ) ;
#490 = AXIS2_PLACEMENT_3D ( 'NONE', #172, #553, #491 ) ;
#491 = DIRECTION ( 'NONE',  ( 0.0000000000000000000, 0.0000000000000000000, 1.000000000000000000 ) ) ;
#492 = PRODUCT ( '锥杆', '锥杆', '', ( #692 ) ) ;
#493 = CARTESIAN_POINT ( 'NONE',  ( 576.0000000000000000, 0.0000000000000000000, 0.0000000000000000000 ) ) ;
#494 = FACE_OUTER_BOUND ( 'NONE', #183, .T. ) ;
#495 = EDGE_CURVE ( 'NONE', #146, #651, #626, .T. ) ;
#496 = ORIENTED_EDGE ( 'NONE', *, *, #101, .T. ) ;
#497 = DIRECTION ( 'NONE',  ( 0.0000000000000000000, 0.0000000000000000000, 1.000000000000000000 ) ) ;
#498 = FACE_OUTER_BOUND ( 'NONE', #207, .T. ) ;
#499 = ORIENTED_EDGE ( 'NONE', *, *, #196, .F. ) ;
#500 = FACE_OUTER_BOUND ( 'NONE', #743, .T. ) ;
#501 = CARTESIAN_POINT ( 'NONE',  ( 495.9999999999999400, 0.0000000000000000000, 0.0000000000000000000 ) ) ;
#502 = ORIENTED_EDGE ( 'NONE', *, *, #316, .F. ) ;
#503 = AXIS2_PLACEMENT_3D ( 'NONE', #352, #717, #283 ) ;
#504 = EDGE_CURVE ( 'NONE', #651, #451, #186, .T. ) ;
#505 = ORIENTED_EDGE ( 'NONE', *, *, #224, .F. ) ;
#506 = TOROIDAL_SURFACE ( 'NONE', #672, 41.99999999999999300, 2.999999999999978200 ) ;
#507 = VECTOR ( 'NONE', #704, 1000.000000000000000 ) ;
#508 = DIRECTION ( 'NONE',  ( -1.000000000000000000, -0.0000000000000000000, -0.0000000000000000000 ) ) ;
#509 = LINE ( 'NONE', #123, #39 ) ;
#510 = VERTEX_POINT ( 'NONE', #14 ) ;
#511 = AXIS2_PLACEMENT_3D ( 'NONE', #251, #620, #187 ) ;
#512 = LINE ( 'NONE', #516, #370 ) ;
#513 = ORIENTED_EDGE ( 'NONE', *, *, #543, .F. ) ;
#514 = ORIENTED_EDGE ( 'NONE', *, *, #476, .T. ) ;
#515 = EDGE_CURVE ( 'NONE', #293, #525, #394, .T. ) ;
#516 = CARTESIAN_POINT ( 'NONE',  ( 0.0000000000000000000, 0.0000000000000000000, 18.99999999999998900 ) ) ;
#517 = APPROVAL_STATUS ( 'not_yet_approved' ) ;
#518 = APPROVAL ( #517, '未指定' ) ;
#519 = CARTESIAN_POINT ( 'NONE',  ( 0.0000000000000000000, 0.0000000000000000000, 0.0000000000000000000 ) ) ;
#520 = CARTESIAN_POINT ( 'NONE',  ( 0.0000000000000000000, 0.0000000000000000000, 39.00000000000000700 ) ) ;
#521 = ORIENTED_EDGE ( 'NONE', *, *, #242, .T. ) ;
#522 = ORIENTED_EDGE ( 'NONE', *, *, #740, .F. ) ;
#523 = CARTESIAN_POINT ( 'NONE',  ( 519.9999999999998900, 0.0000000000000000000, 0.0000000000000000000 ) ) ;
#524 = PERSON_AND_ORGANIZATION_ROLE ( 'design_supplier' ) ;
#525 = VERTEX_POINT ( 'NONE', #184 ) ;
#526 = DIRECTION ( 'NONE',  ( 0.0000000000000000000, 0.0000000000000000000, 1.000000000000000000 ) ) ;
#527 = DIRECTION ( 'NONE',  ( -1.000000000000000000, -0.0000000000000000000, -0.0000000000000000000 ) ) ;
#528 = AXIS2_PLACEMENT_3D ( 'NONE', #639, #206, #149 ) ;
#529 = APPROVAL_ROLE ( '' ) ;
#530 = EDGE_CURVE ( 'NONE', #52, #600, #663, .T. ) ;
#531 = LOCAL_TIME ( 8, 47, 36.00000000000000000, #685 ) ;
#532 = DIRECTION ( 'NONE',  ( 0.0000000000000000000, 0.0000000000000000000, 1.000000000000000000 ) ) ;
#533 = CIRCLE ( 'NONE', #716, 39.00000000000002100 ) ;
#534 = EDGE_LOOP ( 'NONE', ( #76, #179, #57 ) ) ;
#535 = DIRECTION ( 'NONE',  ( -1.000000000000000000, -0.0000000000000000000, -0.0000000000000000000 ) ) ;
#536 = ADVANCED_FACE ( 'NONE', ( #113 ), #384, .F. ) ;
#537 = DIRECTION ( 'NONE',  ( 0.0000000000000000000, 0.0000000000000000000, 1.000000000000000000 ) ) ;
#538 = AXIS2_PLACEMENT_3D ( 'NONE', #654, #159, #572 ) ;
#539 = DIRECTION ( 'NONE',  ( 0.0000000000000000000, 0.0000000000000000000, 1.000000000000000000 ) ) ;
#540 = ADVANCED_FACE ( 'NONE', ( #432 ), #506, .F. ) ;
#541 = FACE_OUTER_BOUND ( 'NONE', #88, .T. ) ;
#542 = ORIENTED_EDGE ( 'NONE', *, *, #295, .T. ) ;
#543 = EDGE_CURVE ( 'NONE', #455, #361, #215, .T. ) ;
#544 = DIRECTION ( 'NONE',  ( -1.000000000000000000, -0.0000000000000000000, -0.0000000000000000000 ) ) ;
#545 = VECTOR ( 'NONE', #383, 1000.000000000000000 ) ;
#546 = EDGE_CURVE ( 'NONE', #327, #350, #61, .T. ) ;
#547 = EDGE_CURVE ( 'NONE', #151, #24, #533, .T. ) ;
#548 = CARTESIAN_POINT ( 'NONE',  ( 0.0000000000000000000, 0.0000000000000000000, 0.0000000000000000000 ) ) ;
#549 = CARTESIAN_POINT ( 'NONE',  ( 3.897114317029963400, 0.0000000000000000000, 2.500000000000000000 ) ) ;
#550 = CALENDAR_DATE ( 2025, 10, 3 ) ;
#551 = DIRECTION ( 'NONE',  ( 0.5000000000000046600, 0.0000000000000000000, -0.8660254037844359300 ) ) ;
#552 = ORIENTED_EDGE ( 'NONE', *, *, #308, .T. ) ;
#553 = DIRECTION ( 'NONE',  ( -1.000000000000000000, -0.0000000000000000000, -0.0000000000000000000 ) ) ;
#554 = CYLINDRICAL_SURFACE ( 'NONE', #277, 39.00000000000000700 ) ;
#555 = DIRECTION ( 'NONE',  ( -1.000000000000000000, -0.0000000000000000000, -0.0000000000000000000 ) ) ;
#556 = EDGE_LOOP ( 'NONE', ( #255, #562 ) ) ;
#557 = AXIS2_PLACEMENT_3D ( 'NONE', #373, #307, #673 ) ;
#558 = DIRECTION ( 'NONE',  ( -1.000000000000000000, -0.0000000000000000000, -0.0000000000000000000 ) ) ;
#559 = DIRECTION ( 'NONE',  ( 0.0000000000000000000, 0.0000000000000000000, 1.000000000000000000 ) ) ;
#560 = EDGE_CURVE ( 'NONE', #510, #455, #669, .T. ) ;
#561 = FACE_OUTER_BOUND ( 'NONE', #616, .T. ) ;
#562 = ORIENTED_EDGE ( 'NONE', *, *, #196, .T. ) ;
#563 = CARTESIAN_POINT ( 'NONE',  ( 330.0303448853969700, 0.0000000000000000000, 0.0000000000000000000 ) ) ;
#564 = EDGE_LOOP ( 'NONE', ( #662, #434 ) ) ;
#565 = CC_DESIGN_APPROVAL ( #518, ( #482 ) ) ;
#566 = CIRCLE ( 'NONE', #117, 40.97393957002302000 ) ;
#567 = DIRECTION ( 'NONE',  ( 0.0000000000000000000, 0.0000000000000000000, -1.000000000000000000 ) ) ;
#568 = CARTESIAN_POINT ( 'NONE',  ( 0.0000000000000000000, 4.750000000000000000, 0.0000000000000000000 ) ) ;
#569 = PERSON_AND_ORGANIZATION ( #428, #205 ) ;
#570 = AXIS2_PLACEMENT_3D ( 'NONE', #339, #209, #401 ) ;
#571 = ORIENTED_EDGE ( 'NONE', *, *, #316, .T. ) ;
#572 = DIRECTION ( 'NONE',  ( 0.0000000000000000000, 0.0000000000000000000, 1.000000000000000000 ) ) ;
#573 = DIRECTION ( 'NONE',  ( 1.000000000000000000, 0.0000000000000000000, 0.0000000000000000000 ) ) ;
#574 = APPLICATION_CONTEXT ( 'configuration controlled 3d designs of mechanical parts and assemblies' ) ;
#575 = CONICAL_SURFACE ( 'NONE', #414, 2.500000000000000000, 1.047197551196591200 ) ;
#576 = EDGE_LOOP ( 'NONE', ( #783, #655, #407, #615 ) ) ;
#577 = DIRECTION ( 'NONE',  ( -1.000000000000000000, -0.0000000000000000000, -0.0000000000000000000 ) ) ;
#578 =( GEOMETRIC_REPRESENTATION_CONTEXT ( 3 ) GLOBAL_UNCERTAINTY_ASSIGNED_CONTEXT ( ( #652 ) ) GLOBAL_UNIT_ASSIGNED_CONTEXT ( ( #690, #390, #80 ) ) REPRESENTATION_CONTEXT ( 'NONE', 'WORKASPACE' ) );
#579 = VERTEX_POINT ( 'NONE', #613 ) ;
#580 = FACE_OUTER_BOUND ( 'NONE', #169, .T. ) ;
#581 = EDGE_CURVE ( 'NONE', #146, #451, #347, .T. ) ;
#582 = EDGE_CURVE ( 'NONE', #327, #680, #509, .T. ) ;
#583 = EDGE_CURVE ( 'NONE', #579, #525, #23, .T. ) ;
#584 = CARTESIAN_POINT ( 'NONE',  ( 573.1809221376422600, 0.0000000000000000000, 0.0000000000000000000 ) ) ;
#585 = COORDINATED_UNIVERSAL_TIME_OFFSET ( 8, 0, .AHEAD. ) ;
#586 = ORIENTED_EDGE ( 'NONE', *, *, #178, .T. ) ;
#587 = CARTESIAN_POINT ( 'NONE',  ( 1330.030344885397000, 0.0000000000000000000, 0.0000000000000000000 ) ) ;
#588 = DIRECTION ( 'NONE',  ( 0.0000000000000000000, 0.0000000000000000000, 1.000000000000000000 ) ) ;
#589 = DIRECTION ( 'NONE',  ( 0.0000000000000000000, 0.0000000000000000000, 1.000000000000000000 ) ) ;
#590 = CARTESIAN_POINT ( 'NONE',  ( 330.0303448853969700, 0.0000000000000000000, 0.0000000000000000000 ) ) ;
#591 = AXIS2_PLACEMENT_3D ( 'NONE', #736, #555, #313 ) ;
#592 = CARTESIAN_POINT ( 'NONE',  ( 0.0000000000000000000, 0.0000000000000000000, 48.00000000000000000 ) ) ;
#593 = ADVANCED_FACE ( 'NONE', ( #195, #650 ), #173, .F. ) ;
#594 = DIRECTION ( 'NONE',  ( 0.0000000000000000000, 0.0000000000000000000, 1.000000000000000000 ) ) ;
#595 = FACE_OUTER_BOUND ( 'NONE', #312, .T. ) ;
#596 = CARTESIAN_POINT ( 'NONE',  ( 0.0000000000000000000, 2.326828918379969800E-015, -18.99999999999998900 ) ) ;
#597 = ORIENTED_EDGE ( 'NONE', *, *, #678, .T. ) ;
#598 = EDGE_CURVE ( 'NONE', #372, #190, #158, .T. ) ;
#599 = CYLINDRICAL_SURFACE ( 'NONE', #154, 35.99999999999999300 ) ;
#600 = VERTEX_POINT ( 'NONE', #175 ) ;
#601 = LINE ( 'NONE', #466, #634 ) ;
#602 = DIRECTION ( 'NONE',  ( 0.0000000000000000000, 0.0000000000000000000, -1.000000000000000000 ) ) ;
#603 = VERTEX_POINT ( 'NONE', #549 ) ;
#604 = CC_DESIGN_PERSON_AND_ORGANIZATION_ASSIGNMENT ( #569, #344, ( #482 ) ) ;
#605 = DIRECTION ( 'NONE',  ( 0.0000000000000000000, 0.0000000000000000000, -1.000000000000000000 ) ) ;
#606 = DIRECTION ( 'NONE',  ( -1.000000000000000000, -0.0000000000000000000, -0.0000000000000000000 ) ) ;
#607 = LOCAL_TIME ( 8, 47, 36.00000000000000000, #768 ) ;
#608 = VERTEX_POINT ( 'NONE', #298 ) ;
#609 = ORIENTED_EDGE ( 'NONE', *, *, #424, .T. ) ;
#610 = CARTESIAN_POINT ( 'NONE',  ( 577.0000000000000000, 4.776122516674677900E-015, -39.00000000000000000 ) ) ;
#611 = AXIS2_PLACEMENT_3D ( 'NONE', #698, #457, #28 ) ;
#612 = DIRECTION ( 'NONE',  ( -1.000000000000000000, -0.0000000000000000000, -0.0000000000000000000 ) ) ;
#613 = CARTESIAN_POINT ( 'NONE',  ( 495.9999999999999400, 0.0000000000000000000, -48.00000000000000700 ) ) ;
#614 = LINE ( 'NONE', #411, #264 ) ;
#615 = ORIENTED_EDGE ( 'NONE', *, *, #262, .F. ) ;
#616 = EDGE_LOOP ( 'NONE', ( #670, #674, #522, #63 ) ) ;
#617 = LINE ( 'NONE', #406, #746 ) ;
#618 = EDGE_LOOP ( 'NONE', ( #71, #425, #208 ) ) ;
#619 = ORIENTED_EDGE ( 'NONE', *, *, #341, .T. ) ;
#620 = DIRECTION ( 'NONE',  ( 0.0000000000000000000, -1.000000000000000000, 0.0000000000000000000 ) ) ;
#621 = AXIS2_PLACEMENT_3D ( 'NONE', #723, #292, #657 ) ;
#622 = CALENDAR_DATE ( 2025, 10, 3 ) ;
#623 = ORIENTED_EDGE ( 'NONE', *, *, #427, .F. ) ;
#624 = EDGE_LOOP ( 'NONE', ( #353, #571, #127, #18 ) ) ;
#625 = CIRCLE ( 'NONE', #490, 4.750000000000000000 ) ;
#626 = LINE ( 'NONE', #563, #280 ) ;
#627 = DIRECTION ( 'NONE',  ( 0.0000000000000000000, 0.0000000000000000000, 1.000000000000000000 ) ) ;
#628 = CARTESIAN_POINT ( 'NONE',  ( 340.9999999999999400, 2.326828918379969400E-015, -18.99999999999998200 ) ) ;
#629 = AXIS2_PLACEMENT_3D ( 'NONE', #317, #132, #444 ) ;
#630 = FACE_OUTER_BOUND ( 'NONE', #729, .T. ) ;
#631 = ORIENTED_EDGE ( 'NONE', *, *, #144, .T. ) ;
#632 = ORIENTED_EDGE ( 'NONE', *, *, #336, .F. ) ;
#633 = VECTOR ( 'NONE', #301, 1000.000000000000000 ) ;
#634 = VECTOR ( 'NONE', #29, 1000.000000000000000 ) ;
#635 = DIRECTION ( 'NONE',  ( 0.0000000000000000000, 0.0000000000000000000, 1.000000000000000000 ) ) ;
#636 = CARTESIAN_POINT ( 'NONE',  ( 0.0000000000000000000, 2.816687638038912400E-015, -23.00000000000000000 ) ) ;
#637 = CARTESIAN_POINT ( 'NONE',  ( 12.55662432702592000, 3.061616997868383100E-016, -2.500000000000000000 ) ) ;
#638 = CC_DESIGN_PERSON_AND_ORGANIZATION_ASSIGNMENT ( #403, #524, ( #482 ) ) ;
#639 = CARTESIAN_POINT ( 'NONE',  ( 3.897114317029963400, 0.0000000000000000000, 0.0000000000000000000 ) ) ;
#640 = PERSON_AND_ORGANIZATION ( #428, #205 ) ;
#641 = DIRECTION ( 'NONE',  ( 0.0000000000000000000, 0.0000000000000000000, 1.000000000000000000 ) ) ;
#642 = VERTEX_POINT ( 'NONE', #610 ) ;
#643 = ORIENTED_EDGE ( 'NONE', *, *, #101, .F. ) ;
#644 = CARTESIAN_POINT ( 'NONE',  ( 495.9999999999999400, 0.0000000000000000000, -48.00000000000000700 ) ) ;
#645 = DATE_TIME_ROLE ( 'classification_date' ) ;
#646 = AXIS2_PLACEMENT_3D ( 'NONE', #732, #237, #666 ) ;
#647 = VECTOR ( 'NONE', #364, 1000.000000000000000 ) ;
#648 = CARTESIAN_POINT ( 'NONE',  ( 577.0000000000000000, 0.0000000000000000000, 0.0000000000000000000 ) ) ;
#649 = DIRECTION ( 'NONE',  ( -1.000000000000000000, -0.0000000000000000000, -0.0000000000000000000 ) ) ;
#650 = FACE_BOUND ( 'NONE', #556, .T. ) ;
#651 = VERTEX_POINT ( 'NONE', #119 ) ;
#652 = UNCERTAINTY_MEASURE_WITH_UNIT (LENGTH_MEASURE( 1.000000000000000100E-005 ), #690, 'distance_accuracy_value', 'NONE');
#653 = DIRECTION ( 'NONE',  ( 0.0000000000000000000, 0.0000000000000000000, 1.000000000000000000 ) ) ;
#654 = CARTESIAN_POINT ( 'NONE',  ( 0.0000000000000000000, 0.0000000000000000000, 0.0000000000000000000 ) ) ;
#655 = ORIENTED_EDGE ( 'NONE', *, *, #726, .T. ) ;
#656 = ADVANCED_FACE ( 'NONE', ( #326 ), #305, .T. ) ;
#657 = DIRECTION ( 'NONE',  ( 0.0000000000000000000, -1.224646799147355700E-016, 1.000000000000000000 ) ) ;
#658 = AXIS2_PLACEMENT_3D ( 'NONE', #688, #508, #627 ) ;
#659 = DIRECTION ( 'NONE',  ( -1.000000000000000000, 0.0000000000000000000, -0.0000000000000000000 ) ) ;
#660 = DIRECTION ( 'NONE',  ( 1.000000000000000000, 0.0000000000000000000, 0.0000000000000000000 ) ) ;
#661 = ADVANCED_FACE ( 'NONE', ( #630 ), #450, .F. ) ;
#662 = ORIENTED_EDGE ( 'NONE', *, *, #144, .F. ) ;
#663 = CIRCLE ( 'NONE', #557, 4.750000000000000000 ) ;
#664 = LINE ( 'NONE', #731, #647 ) ;
#665 = AXIS2_PLACEMENT_3D ( 'NONE', #233, #358, #784 ) ;
#666 = DIRECTION ( 'NONE',  ( 0.0000000000000000000, 0.0000000000000000000, 1.000000000000000000 ) ) ;
#667 = CARTESIAN_POINT ( 'NONE',  ( 577.0000000000000000, 39.00000000000000000, 0.0000000000000000000 ) ) ;
#668 = DIRECTION ( 'NONE',  ( -1.000000000000000000, -0.0000000000000000000, -0.0000000000000000000 ) ) ;
#669 = CIRCLE ( 'NONE', #10, 35.99999999999999300 ) ;
#670 = ORIENTED_EDGE ( 'NONE', *, *, #48, .T. ) ;
#671 = DIRECTION ( 'NONE',  ( -0.5000000000000056600, 1.060575238724902700E-016, -0.8660254037844352700 ) ) ;
#672 = AXIS2_PLACEMENT_3D ( 'NONE', #180, #612, #497 ) ;
#673 = DIRECTION ( 'NONE',  ( 0.0000000000000000000, 0.0000000000000000000, 1.000000000000000000 ) ) ;
#674 = ORIENTED_EDGE ( 'NONE', *, *, #224, .T. ) ;
#675 = CARTESIAN_POINT ( 'NONE',  ( 495.9999999999999400, 5.878304635907296600E-015, 48.00000000000000700 ) ) ;
#676 = VECTOR ( 'NONE', #189, 1000.000000000000000 ) ;
#677 = DIRECTION ( 'NONE',  ( 0.0000000000000000000, 0.0000000000000000000, 1.000000000000000000 ) ) ;
#678 = EDGE_CURVE ( 'NONE', #24, #151, #779, .T. ) ;
#679 = SECURITY_CLASSIFICATION ( '', '', #771 ) ;
#680 = VERTEX_POINT ( 'NONE', #730 ) ;
#681 = DIRECTION ( 'NONE',  ( 0.0000000000000000000, 0.0000000000000000000, 1.000000000000000000 ) ) ;
#682 = FACE_OUTER_BOUND ( 'NONE', #624, .T. ) ;
#683 = DIRECTION ( 'NONE',  ( -1.000000000000000000, -0.0000000000000000000, -0.0000000000000000000 ) ) ;
#684 = AXIS2_PLACEMENT_3D ( 'NONE', #519, #763, #693 ) ;
#685 = COORDINATED_UNIVERSAL_TIME_OFFSET ( 8, 0, .AHEAD. ) ;
#686 = VECTOR ( 'NONE', #558, 1000.000000000000000 ) ;
#687 = ORIENTED_EDGE ( 'NONE', *, *, #726, .F. ) ;
#688 = CARTESIAN_POINT ( 'NONE',  ( 0.0000000000000000000, 0.0000000000000000000, 0.0000000000000000000 ) ) ;
#689 = ORIENTED_EDGE ( 'NONE', *, *, #249, .T. ) ;
#690 =( LENGTH_UNIT ( ) NAMED_UNIT ( * ) SI_UNIT ( .MILLI., .METRE. ) );
#691 = ORIENTED_EDGE ( 'NONE', *, *, #583, .T. ) ;
#692 = MECHANICAL_CONTEXT ( 'NONE', #574, 'mechanical' ) ;
#693 = DIRECTION ( 'NONE',  ( 0.0000000000000000000, 0.0000000000000000000, 1.000000000000000000 ) ) ;
#694 = DIRECTION ( 'NONE',  ( 0.0000000000000000000, 0.0000000000000000000, 1.000000000000000000 ) ) ;
#695 = AXIS2_PLACEMENT_3D ( 'NONE', #568, #755, #387 ) ;
#696 = ORIENTED_EDGE ( 'NONE', *, *, #379, .T. ) ;
#697 = ORIENTED_EDGE ( 'NONE', *, *, #547, .F. ) ;
#698 = CARTESIAN_POINT ( 'NONE',  ( 576.0000000000000000, 0.0000000000000000000, 0.0000000000000000000 ) ) ;
#699 = VECTOR ( 'NONE', #100, 999.9999999999998900 ) ;
#700 = CARTESIAN_POINT ( 'NONE',  ( 570.6236452769750300, 0.0000000000000000000, 48.00000000000000000 ) ) ;
#701 = ORIENTED_EDGE ( 'NONE', *, *, #178, .F. ) ;
#702 = CARTESIAN_POINT ( 'NONE',  ( 577.0000000000000000, 0.0000000000000000000, 0.0000000000000000000 ) ) ;
#703 = AXIS2_PLACEMENT_3D ( 'NONE', #46, #412, #782 ) ;
#704 = DIRECTION ( 'NONE',  ( -0.8660254037844380400, 6.123233995736778400E-017, -0.5000000000000010000 ) ) ;
#705 = PERSON_AND_ORGANIZATION_ROLE ( 'classification_officer' ) ;
#706 = FACE_OUTER_BOUND ( 'NONE', #380, .T. ) ;
#707 = LOCAL_TIME ( 8, 47, 36.00000000000000000, #75 ) ;
#708 = VERTEX_POINT ( 'NONE', #51 ) ;
#709 = CYLINDRICAL_SURFACE ( 'NONE', #304, 35.99999999999999300 ) ;
#710 = CONICAL_SURFACE ( 'NONE', #236, 1732.050807568855600, 1.047197551196592300 ) ;
#711 = CIRCLE ( 'NONE', #774, 2.500000000000000000 ) ;
#712 = CARTESIAN_POINT ( 'NONE',  ( 0.0000000000000000000, 0.0000000000000000000, 0.0000000000000000000 ) ) ;
#713 = ORIENTED_EDGE ( 'NONE', *, *, #262, .T. ) ;
#714 = ADVANCED_FACE ( 'NONE', ( #145 ), #757, .F. ) ;
#715 = CARTESIAN_POINT ( 'NONE',  ( 201.9999999999999400, 0.0000000000000000000, 0.0000000000000000000 ) ) ;
#716 = AXIS2_PLACEMENT_3D ( 'NONE', #493, #64, #435 ) ;
#717 = DIRECTION ( 'NONE',  ( -1.000000000000000000, -0.0000000000000000000, -0.0000000000000000000 ) ) ;
#718 = ADVANCED_FACE ( 'NONE', ( #494 ), #440, .F. ) ;
#719 = EDGE_CURVE ( 'NONE', #603, #52, #285, .T. ) ;
#720 = DIRECTION ( 'NONE',  ( -1.000000000000000000, -0.0000000000000000000, -0.0000000000000000000 ) ) ;
#721 = CONICAL_SURFACE ( 'NONE', #454, 40.97393957002302000, 1.221730476396032400 ) ;
#722 = ORIENTED_EDGE ( 'NONE', *, *, #543, .T. ) ;
#723 = CARTESIAN_POINT ( 'NONE',  ( 576.0000000000000000, 5.143516556418882500E-015, -41.99999999999999300 ) ) ;
#724 = DIRECTION ( 'NONE',  ( 0.0000000000000000000, 0.0000000000000000000, 1.000000000000000000 ) ) ;
#725 = ADVANCED_FACE ( 'NONE', ( #126 ), #575, .F. ) ;
#726 = EDGE_CURVE ( 'NONE', #708, #451, #473, .T. ) ;
#727 = CC_DESIGN_PERSON_AND_ORGANIZATION_ASSIGNMENT ( #238, #705, ( #679 ) ) ;
#728 = ADVANCED_FACE ( 'NONE', ( #595 ), #721, .T. ) ;
#729 = EDGE_LOOP ( 'NONE', ( #632, #9, #120, #72 ) ) ;
#730 = CARTESIAN_POINT ( 'NONE',  ( 12.55662432702592000, 0.0000000000000000000, 2.500000000000000000 ) ) ;
#731 = CARTESIAN_POINT ( 'NONE',  ( 0.0000000000000000000, 0.0000000000000000000, 35.99999999999999300 ) ) ;
#732 = CARTESIAN_POINT ( 'NONE',  ( 490.5551362713291000, 0.0000000000000000000, 0.0000000000000000000 ) ) ;
#733 = APPROVAL_DATE_TIME ( #93, #518 ) ;
#734 = ORIENTED_EDGE ( 'NONE', *, *, #504, .T. ) ;
#735 = AXIS2_PLACEMENT_3D ( 'NONE', #433, #122, #6 ) ;
#736 = CARTESIAN_POINT ( 'NONE',  ( 340.9999999999999400, 0.0000000000000000000, 0.0000000000000000000 ) ) ;
#737 = LINE ( 'NONE', #103, #25 ) ;
#738 = ORIENTED_EDGE ( 'NONE', *, *, #530, .T. ) ;
#739 = CARTESIAN_POINT ( 'NONE',  ( 12.55662432702592000, 3.061616997868383100E-016, -2.500000000000000000 ) ) ;
#740 = EDGE_CURVE ( 'NONE', #465, #247, #246, .T. ) ;
#741 = CARTESIAN_POINT ( 'NONE',  ( 577.0000000000000000, 4.408728476930470100E-015, -35.99999999999999300 ) ) ;
#742 = VECTOR ( 'NONE', #683, 1000.000000000000000 ) ;
#743 = EDGE_LOOP ( 'NONE', ( #479, #542, #42, #745 ) ) ;
#744 = FACE_OUTER_BOUND ( 'NONE', #576, .T. ) ;
#745 = ORIENTED_EDGE ( 'NONE', *, *, #761, .F. ) ;
#746 = VECTOR ( 'NONE', #143, 1000.000000000000000 ) ;
#747 = CIRCLE ( 'NONE', #34, 23.00000000000000000 ) ;
#748 = CARTESIAN_POINT ( 'NONE',  ( 490.5551362713291000, 0.0000000000000000000, 0.0000000000000000000 ) ) ;
#749 = AXIS2_PLACEMENT_3D ( 'NONE', #480, #355, #602 ) ;
#750 = APPROVAL_PERSON_ORGANIZATION ( #118, #518, #775 ) ;
#751 = VERTEX_POINT ( 'NONE', #106 ) ;
#752 = CIRCLE ( 'NONE', #646, 19.00000000000000000 ) ;
#753 = FACE_OUTER_BOUND ( 'NONE', #769, .T. ) ;
#754 = DIRECTION ( 'NONE',  ( -1.000000000000000000, -0.0000000000000000000, -0.0000000000000000000 ) ) ;
#755 = DIRECTION ( 'NONE',  ( 1.000000000000000000, 0.0000000000000000000, 0.0000000000000000000 ) ) ;
#756 = AXIS2_PLACEMENT_3D ( 'NONE', #67, #131, #559 ) ;
#757 = CONICAL_SURFACE ( 'NONE', #333, 1732.050807568855600, 1.047197551196592300 ) ;
#758 = ORIENTED_EDGE ( 'NONE', *, *, #439, .T. ) ;
#759 = APPLICATION_CONTEXT ( 'configuration controlled 3d designs of mechanical parts and assemblies' ) ;
#760 = EDGE_CURVE ( 'NONE', #708, #361, #614, .T. ) ;
#761 = EDGE_CURVE ( 'NONE', #372, #525, #82, .T. ) ;
#762 = CONICAL_SURFACE ( 'NONE', #665, 48.00000000000000700, 0.08482994404619567700 ) ;
#763 = DIRECTION ( 'NONE',  ( -1.000000000000000000, -0.0000000000000000000, -0.0000000000000000000 ) ) ;
#764 = DIRECTION ( 'NONE',  ( 0.0000000000000000000, 0.0000000000000000000, 1.000000000000000000 ) ) ;
#765 = EDGE_LOOP ( 'NONE', ( #474, #171, #442, #40 ) ) ;
#766 = CC_DESIGN_DATE_AND_TIME_ASSIGNMENT ( #382, #645, ( #679 ) ) ;
#767 = DIRECTION ( 'NONE',  ( 0.0000000000000000000, 0.0000000000000000000, 1.000000000000000000 ) ) ;
#768 = COORDINATED_UNIVERSAL_TIME_OFFSET ( 8, 0, .AHEAD. ) ;
#769 = EDGE_LOOP ( 'NONE', ( #770, #306, #431 ) ) ;
#770 = ORIENTED_EDGE ( 'NONE', *, *, #581, .F. ) ;
#771 = SECURITY_CLASSIFICATION_LEVEL ( 'unclassified' ) ;
#772 = CIRCLE ( 'NONE', #346, 23.00000000000000000 ) ;
#773 = CIRCLE ( 'NONE', #528, 2.500000000000000000 ) ;
#774 = AXIS2_PLACEMENT_3D ( 'NONE', #348, #649, #589 ) ;
#775 = APPROVAL_ROLE ( '' ) ;
#776 = DIRECTION ( 'NONE',  ( -1.000000000000000000, -0.0000000000000000000, -0.0000000000000000000 ) ) ;
#777 = ADVANCED_FACE ( 'NONE', ( #415 ), #377, .F. ) ;
#778 = CARTESIAN_POINT ( 'NONE',  ( 0.0000000000000000000, 0.0000000000000000000, 0.0000000000000000000 ) ) ;
#779 = CIRCLE ( 'NONE', #201, 39.00000000000002100 ) ;
#780 = EDGE_LOOP ( 'NONE', ( #396, #96, #385, #738 ) ) ;
#781 = ADVANCED_FACE ( 'NONE', ( #561 ), #229, .T. ) ;
#782 = DIRECTION ( 'NONE',  ( 0.0000000000000000000, 0.0000000000000000000, 1.000000000000000000 ) ) ;
#783 = ORIENTED_EDGE ( 'NONE', *, *, #242, .F. ) ;
#784 = DIRECTION ( 'NONE',  ( 0.0000000000000000000, 0.0000000000000000000, -1.000000000000000000 ) ) ;
#785 = ADVANCED_FACE ( 'NONE', ( #395, #541 ), #22, .F. ) ;
ENDSEC;
END-ISO-10303-21;
